<svg xmlns="http://www.w3.org/2000/svg" fill="none" viewBox="0 0 24 24"><path fill="#000" fill-rule="evenodd" d="M14.1215 16.5355C14.6738 16.5355 15.1215 16.0878 15.1215 15.5355C15.1215 14.9832 14.6738 14.5355 14.1215 14.5355L10.8788 14.5355L16.2428 9.17153C16.6333 8.781 16.6333 8.14784 16.2428 7.75731C15.8523 7.36679 15.2191 7.36679 14.8286 7.75731L9.46461 13.1213L9.46461 9.87863C9.46461 9.32635 9.0169 8.87863 8.46461 8.87863C7.91233 8.87863 7.46461 9.32635 7.46461 9.87863L7.46461 15.5355C7.46461 16.0878 7.91233 16.5355 8.46461 16.5355L14.1215 16.5355Z" clip-rule="evenodd"/><path fill="#000" fill-rule="evenodd" d="M17.6569 17.6569C20.7811 14.5327 20.7811 9.46734 17.6569 6.34315C14.5327 3.21895 9.46739 3.21895 6.34319 6.34315C3.219 9.46734 3.219 14.5327 6.34319 17.6569C9.46738 20.7811 14.5327 20.7811 17.6569 17.6569ZM19.0711 19.0711C22.9764 15.1658 22.9764 8.83418 19.0711 4.92893C15.1659 1.02369 8.83422 1.02369 4.92898 4.92893C1.02374 8.83418 1.02373 15.1658 4.92898 19.0711C8.83422 22.9763 15.1659 22.9763 19.0711 19.0711Z" clip-rule="evenodd"/><defs><clipPath id="clip0"><rect fill="#fff"/></clipPath></defs></svg>