<svg xmlns="http://www.w3.org/2000/svg" fill="none" viewBox="0 0 24 24"><path fill="#000" fill-rule="evenodd" d="M7.29289 10.2929C6.90237 10.6834 6.90237 11.3166 7.29289 11.7071C7.68342 12.0976 8.31658 12.0976 8.70711 11.7071L11 9.41421L11 17C11 17.5523 11.4477 18 12 18C12.5523 18 13 17.5523 13 17L13 9.41421L15.2929 11.7071C15.6834 12.0976 16.3166 12.0976 16.7071 11.7071C17.0976 11.3166 17.0976 10.6834 16.7071 10.2929L12.7071 6.29289C12.3166 5.90237 11.6834 5.90237 11.2929 6.29289L7.29289 10.2929Z" clip-rule="evenodd"/><path fill="#000" fill-rule="evenodd" d="M4 12C4 16.4183 7.58172 20 12 20C16.4183 20 20 16.4183 20 12C20 7.58172 16.4183 4 12 4C7.58172 4 4 7.58172 4 12ZM2 12C2 17.5228 6.47715 22 12 22C17.5228 22 22 17.5228 22 12C22 6.47715 17.5228 2 12 2C6.47715 2 2 6.47715 2 12Z" clip-rule="evenodd"/></svg>