<svg  viewBox="0 0 24 24" fill="none" xmlns="http://www.w3.org/2000/svg">
<path fill-rule="evenodd" clip-rule="evenodd" d="M16.5356 9.87866C16.5356 9.32637 16.0879 8.87866 15.5356 8.87866C14.9833 8.87866 14.5356 9.32637 14.5356 9.87866L14.5356 13.1213L9.17165 7.75734C8.78112 7.36681 8.14796 7.36681 7.75743 7.75734C7.36691 8.14786 7.36691 8.78102 7.75743 9.17155L13.1214 14.5355L9.87875 14.5355C9.32647 14.5355 8.87875 14.9832 8.87875 15.5355C8.87875 16.0878 9.32647 16.5355 9.87875 16.5355L15.5356 16.5355C16.0879 16.5355 16.5356 16.0878 16.5356 15.5355L16.5356 9.87866Z" fill="black"/>
<path fill-rule="evenodd" clip-rule="evenodd" d="M17.6569 6.3431C14.5327 3.21891 9.46734 3.2189 6.34315 6.3431C3.21895 9.46729 3.21895 14.5326 6.34315 17.6568C9.46734 20.781 14.5327 20.781 17.6569 17.6568C20.7811 14.5326 20.7811 9.4673 17.6569 6.3431ZM19.0711 4.92889C15.1658 1.02364 8.83418 1.02364 4.92893 4.92888C1.02369 8.83413 1.02369 15.1658 4.92893 19.071C8.83418 22.9763 15.1658 22.9763 19.0711 19.071C22.9763 15.1658 22.9763 8.83413 19.0711 4.92889Z" fill="black"/>
<defs>
<clipPath id="clip0">
<rect  fill="white"/>
</clipPath>
</defs>
</svg>
