<svg xmlns="http://www.w3.org/2000/svg" fill="none" viewBox="0 0 24 24"><path fill="#000" fill-rule="evenodd" d="M13.3333 8.66667C13.3333 9.09836 13.1376 9.76411 12.7722 10.3188C12.3779 10.9173 12.0612 11 12 11C11.9388 11 11.6221 10.9173 11.2278 10.3188C10.8624 9.76411 10.6667 9.09836 10.6667 8.66667C10.6667 7.93029 11.2636 7.33333 12 7.33333C12.7364 7.33333 13.3333 7.93029 13.3333 8.66667ZM13.2605 11.7891C12.8851 12.1231 12.4559 12.3333 12 12.3333C11.5441 12.3333 11.1149 12.1231 10.7395 11.7891L7.86242 13.9649C7.52918 14.2169 7.33333 14.6106 7.33333 15.0284V15.3333C7.33333 16.0697 7.93029 16.6667 8.66667 16.6667H15.3333C16.0697 16.6667 16.6667 16.0697 16.6667 15.3333V15.0284C16.6667 14.6105 16.4708 14.2169 16.1376 13.9649L13.2605 11.7891ZM14.0771 10.7349C14.4459 10.0667 14.6667 9.30001 14.6667 8.66667C14.6667 7.19391 13.4728 6 12 6C10.5272 6 9.33334 7.19391 9.33334 8.66667C9.33334 9.3 9.55413 10.0667 9.92294 10.7349L7.05817 12.9014C6.39169 13.4055 6 14.1927 6 15.0284V15.3333C6 16.8061 7.19391 18 8.66667 18H15.3333C16.8061 18 18 16.8061 18 15.3333V15.0284C18 14.1927 17.6083 13.4055 16.9418 12.9014L14.0771 10.7349Z" clip-rule="evenodd"/><path fill="#000" fill-rule="evenodd" d="M5 1C2.79086 1 1 2.79086 1 5L1 19C1 21.2091 2.79086 23 5 23L19 23C21.2091 23 23 21.2091 23 19L23 5C23 2.79086 21.2091 1 19 1L5 1ZM3 5C3 3.89543 3.89543 3 5 3L19 3C20.1046 3 21 3.89543 21 5L21 19C21 20.1046 20.1046 21 19 21L5 21C3.89543 21 3 20.1046 3 19L3 5ZM12.9333 8.66664C12.9333 9.00708 12.7683 9.59755 12.4381 10.0987C12.263 10.3645 12.1187 10.4952 12.0315 10.5564C12.0199 10.5645 12.0094 10.5713 12 10.5771C11.9906 10.5713 11.9801 10.5645 11.9685 10.5564C11.8813 10.4952 11.737 10.3645 11.5619 10.0987C11.2317 9.59755 11.0667 9.00708 11.0667 8.66664C11.0667 8.15118 11.4845 7.73331 12 7.73331C12.5155 7.73331 12.9333 8.15118 12.9333 8.66664ZM11.9436 10.6058L11.9402 10.6068C11.9402 10.6069 11.9407 10.6067 11.9419 10.6064C11.9424 10.6062 11.9429 10.606 11.9436 10.6058ZM12.0564 10.6058L12.0598 10.6068C12.0598 10.6069 12.0587 10.6066 12.0564 10.6058ZM12 12.7333C12.4694 12.7333 12.8974 12.5592 13.2669 12.2955L15.8963 14.2839C16.1296 14.4603 16.2667 14.7359 16.2667 15.0283V15.3333C16.2667 15.8488 15.8488 16.2666 15.3333 16.2666H8.66667C8.15121 16.2666 7.73334 15.8488 7.73334 15.3333V15.0283C7.73334 14.7359 7.87043 14.4603 8.1037 14.2839L10.7331 12.2954C11.1026 12.5592 11.5306 12.7333 12 12.7333ZM12 12.3333C12.4559 12.3333 12.8851 12.1231 13.2605 11.789L16.1376 13.9649C16.4708 14.2169 16.6667 14.6105 16.6667 15.0283V15.3333C16.6667 16.0697 16.0697 16.6666 15.3333 16.6666H8.66667C7.93029 16.6666 7.33334 16.0697 7.33334 15.3333V15.0283C7.33334 14.6105 7.52918 14.2169 7.86242 13.9649L10.7396 11.789C11.1149 12.1231 11.5441 12.3333 12 12.3333ZM16.9418 12.9014L14.0771 10.7349C14.4459 10.0667 14.6667 9.29998 14.6667 8.66664C14.6667 7.19388 13.4728 5.99998 12 5.99998C10.5272 5.99998 9.33334 7.19388 9.33334 8.66664C9.33334 9.29998 9.55413 10.0667 9.92294 10.7349L7.05818 12.9014C6.39169 13.4054 6.00001 14.1927 6.00001 15.0283V15.3333C6.00001 16.8061 7.19391 18 8.66667 18L15.3333 18C16.8061 18 18 16.8061 18 15.3333V15.0283C18 14.1927 17.6083 13.4054 16.9418 12.9014ZM8.93334 8.66664C8.93334 9.28 9.114 9.98035 9.41437 10.618L6.8169 12.5824C6.05045 13.162 5.60001 14.0674 5.60001 15.0283V15.3333C5.60001 17.027 6.973 18.4 8.66667 18.4L15.3333 18.4C17.027 18.4 18.4 17.027 18.4 15.3333V15.0283C18.4 14.0674 17.9496 13.162 17.1831 12.5824L14.5856 10.618C14.886 9.98036 15.0667 9.28 15.0667 8.66664C15.0667 6.97297 13.6937 5.59998 12 5.59998C10.3063 5.59998 8.93334 6.97297 8.93334 8.66664ZM13.3333 8.66664C13.3333 9.09833 13.1376 9.76408 12.7722 10.3188C12.3779 10.9173 12.0612 11 12 11C11.9388 11 11.6221 10.9173 11.2278 10.3188C10.8624 9.76408 10.6667 9.09833 10.6667 8.66664C10.6667 7.93026 11.2636 7.33331 12 7.33331C12.7364 7.33331 13.3333 7.93026 13.3333 8.66664Z" clip-rule="evenodd"/></svg>