<svg xmlns="http://www.w3.org/2000/svg" fill="none" viewBox="0 0 24 24"><path fill="#000" fill-rule="evenodd" d="M6 4.91943C6 3.87465 6.86707 3 8 3C9.13293 3 10 3.87465 10 4.91943C10 5.7639 9.65022 6.57227 9.01884 7.19099L9.00697 7.20281L8.3349 7.88385C8.25194 7.95874 8.15885 8 8 8C7.86036 8 7.74235 7.95206 7.66412 7.88286L6.99303 7.20281L6.98116 7.19099C6.34978 6.57227 6 5.7639 6 4.91943ZM8 1C5.82044 1 4 2.71302 4 4.91943C4 5.75617 4.20655 6.55897 4.58176 7.27686L1.98046 9.97216L1.96721 9.98615C1.38589 10.6122 1 11.448 1 12.3666V16.0999C1 17.7568 2.34315 19.0999 4 19.0999H9.93359V21.8666C9.93359 22.2252 10.1028 22.5 10.2681 22.6654C10.4335 22.8307 10.7083 23 11.0669 23H21.867C22.2256 23 22.5005 22.8308 22.6658 22.6654C22.8311 22.5001 23.0004 22.2252 23.0004 21.8666V12C23.0004 11.6414 22.8311 11.3665 22.6658 11.2012C22.5005 11.0359 22.2256 10.8666 21.867 10.8666H14.3459C14.3111 10.8114 14.2702 10.7588 14.2234 10.7098L11.2435 7.58523C11.7288 6.79229 12 5.87815 12 4.91943C12 2.71302 10.1796 1 8 1ZM9.93436 9.11041L9.74302 9.3043C9.73468 9.31275 9.7262 9.32104 9.71757 9.32919C9.24063 9.77925 8.64722 10 8 10C7.39513 10 6.76691 9.78637 6.28243 9.32919C6.2738 9.32104 6.26532 9.31275 6.25698 9.3043L5.82603 8.8676L3.42694 11.3534C3.14542 11.6594 3 12.021 3 12.3666V16.0999C3 16.6522 3.44772 17.0999 4 17.0999H9.93359V12C9.93359 11.6414 10.1028 11.3666 10.2681 11.2012C10.4335 11.0359 10.7083 10.8666 11.0669 10.8666H11.6093L9.93436 9.11041ZM11.9336 21V12.8666H21.0004V21H11.9336ZM17.4668 14.8666C17.4668 14.3143 17.0191 13.8666 16.4668 13.8666C15.9145 13.8666 15.4668 14.3143 15.4668 14.8666V15.9332H14.2002C13.6479 15.9332 13.2002 16.381 13.2002 16.9332C13.2002 17.4855 13.6479 17.9332 14.2002 17.9332H15.4668V18.9999C15.4668 19.5522 15.9145 19.9999 16.4668 19.9999C17.0191 19.9999 17.4668 19.5522 17.4668 18.9999V17.9332H18.7336C19.2859 17.9332 19.7336 17.4855 19.7336 16.9332C19.7336 16.381 19.2859 15.9332 18.7336 15.9332H17.4668V14.8666Z" clip-rule="evenodd"/></svg>