<svg  viewBox="0 0 24 24" fill="none" xmlns="http://www.w3.org/2000/svg">
<path fill-rule="evenodd" clip-rule="evenodd" d="M6 5.33668C6 3.93713 6.98742 3 8.00001 3C9.00887 3 9.99275 3.93026 9.99996 5.32128C9.96328 6.36741 9.56688 7.34334 8.91472 8.0894L8.25212 8.82374C8.18105 8.89128 8.11111 8.93929 8.05241 8.9684C7.99176 8.99847 7.96094 8.99993 7.95946 9C7.89985 9 7.80226 8.97653 7.69582 8.85591L6.99922 8.08384L6.99388 8.07801C6.37182 7.39948 6 6.40363 6 5.33668ZM8.00001 1C5.68827 1 4 3.03774 4 5.33668C4 6.51782 4.31993 7.69323 4.94022 8.67137C4.93276 8.67641 4.92535 8.68157 4.91798 8.68684L2.25395 10.5936C1.46692 11.1569 1 12.0653 1 13.0331V17C1 18.6569 2.34315 20 4 20L9 20C9 21.6569 10.3929 23 12.1111 23H19.8889C21.6071 23 23 21.6569 23 20V15.6086C23 14.5742 22.4474 13.6128 21.5378 13.0646L19.0431 11.5611C19.6245 10.6181 19.9632 9.51911 19.9995 8.36818C19.9998 8.35769 20 8.34719 20 8.33668C20 6.03774 18.3117 4 16 4C13.6883 4 12 6.03774 12 8.33668C12 8.69358 12.0292 9.04996 12.0871 9.40053L11.1 8.70002C11.067 8.67529 11.033 8.6529 10.9982 8.63284C11.6071 7.67401 11.9623 6.54841 11.9995 5.36818C11.9998 5.35769 12 5.34719 12 5.33668C12 3.03774 10.3117 1 8.00001 1ZM17.7552 13.1434L17.7154 13.1875C17.703 13.2012 17.6902 13.2146 17.6771 13.2277C17.2834 13.6181 16.68 14 15.9595 14C15.3058 14 14.6884 13.7163 14.2305 13.2174L11.4889 15.2001C11.2278 15.3889 11.0741 15.6853 11.0741 16.0001V20C11.0741 20.5523 11.5384 21 12.1111 21H19.8889C20.4616 21 20.9259 20.5523 20.9259 20V15.6086C20.9259 15.2638 20.7417 14.9433 20.4385 14.7606L17.7552 13.1434ZM12.377 12.0579L9.9 10.3C9.84201 10.2565 9.7901 10.2079 9.7444 10.1554L9.71542 10.1875C9.70302 10.2012 9.69024 10.2146 9.6771 10.2277C9.28338 10.6181 8.68001 11 7.95946 11C7.29822 11 6.674 10.7097 6.21453 10.1999C6.1744 10.2407 6.1302 10.2787 6.08202 10.3132L3.41798 12.2199C3.15564 12.4077 3 12.7105 3 13.0331V17C3 17.5523 3.44772 18 4 18H9V16.0001C9 15.0558 9.46105 14.1667 10.2444 13.6001L12.377 12.0579ZM16 6C14.9874 6 14 6.93713 14 8.33668C14 9.40363 14.3718 10.3995 14.9939 11.078L14.9992 11.0838L15.6958 11.8559C15.8023 11.9765 15.8998 12 15.9595 12C15.9609 11.9999 15.9918 11.9985 16.0524 11.9684C16.1111 11.9393 16.181 11.8913 16.2521 11.8237L16.9147 11.0894C17.5669 10.3433 17.9633 9.36741 18 8.32128C17.9927 6.93026 17.0089 6 16 6Z" fill="black"/>
</svg>
