<svg  viewBox="0 0 24 24" fill="none" xmlns="http://www.w3.org/2000/svg">
<path fill-rule="evenodd" clip-rule="evenodd" d="M11.97 10.0803C10.575 10.0748 9.23177 8.92003 8.81517 7.15883C9.98355 6.58564 10.8364 5.92324 11.4527 5.23923C12.2898 6.15698 13.3241 6.594 14.2011 6.79088C14.5634 6.87221 14.9032 6.91409 15.1992 6.93338C14.8425 8.83222 13.4302 10.086 11.97 10.0803ZM17.0834 5.83895C17.013 2.81294 14.9025 0.127993 12.0048 0.116553C9.04998 0.104887 6.8942 2.87973 6.88336 5.97828C6.87647 7.94946 7.73853 9.79648 9.12749 10.8826V11.7294C9.12749 11.7781 9.10733 11.8301 9.06788 11.8705C9.03135 11.908 8.98599 11.9284 8.9316 11.9284L6.77635 11.9284C4.74269 11.9284 3.1001 13.5791 3.1001 15.6123L3.1001 21.0338C3.1001 21.3666 3.28377 21.6722 3.57764 21.8285L4.0001 21.0338C3.57764 21.8285 3.57798 21.8286 3.57836 21.8288L3.57928 21.8293L3.58176 21.8306L3.58921 21.8346L3.61399 21.8474C3.63486 21.8582 3.66438 21.8732 3.70219 21.8921C3.77781 21.9298 3.88669 21.9828 4.02607 22.0474C4.30468 22.1765 4.70597 22.3521 5.20766 22.544C6.20906 22.9271 7.62113 23.3791 9.26333 23.6524C12.5384 24.1974 16.8341 24.0443 20.5605 21.0786C20.7751 20.9079 20.9001 20.6486 20.9001 20.3744V15.649C20.9001 13.619 19.2655 11.9771 17.2824 11.9286L17.2604 11.9284H15.1051C15.0635 11.9284 15.0289 11.9131 15.001 11.8844C14.9734 11.8562 14.9458 11.807 14.9458 11.7294V10.7941C16.2197 9.74043 17.0265 8.03522 17.0821 6.19832C17.1032 6.09715 17.1071 5.99061 17.0909 5.88243C17.0888 5.8678 17.0863 5.8533 17.0834 5.83895ZM15.2127 5.12934C15.0233 5.11295 14.8141 5.08369 14.5954 5.03459C13.8633 4.87024 13.0613 4.49629 12.4907 3.65381C12.5361 3.55091 12.5775 3.44871 12.6151 3.34746C12.7876 2.88299 12.875 2.45296 12.9147 2.0858C14.0187 2.49406 14.9521 3.61242 15.2127 5.12934ZM11.1007 2.07159C9.97651 2.46822 9.01952 3.59818 8.75549 5.1408C10.0942 4.3181 10.6712 3.41152 10.9278 2.72071C11.0149 2.48605 11.0687 2.26671 11.1007 2.07159ZM10.9273 11.7578C11.2591 11.8366 11.6054 11.8789 11.9637 11.8803C12.3744 11.8819 12.7696 11.8297 13.1458 11.7303C13.1462 12.8272 14.0017 13.7284 15.1051 13.7284H17.2483C18.2562 13.7584 19.1001 14.6053 19.1001 15.649V19.9301C16.0005 22.2108 12.4514 22.3582 9.55879 21.8768C8.064 21.6281 6.77059 21.2147 5.85076 20.8628C5.46005 20.7134 5.13867 20.5758 4.9001 20.4679L4.9001 15.6123C4.9001 14.5685 5.74153 13.7284 6.77635 13.7284L8.9316 13.7284C10.0612 13.7284 10.9122 12.8072 10.9273 11.7578ZM8.25 16.6358C8.25 15.2528 9.45346 14.25 10.785 14.25C11.2963 14.25 11.7104 14.4611 12 14.6679C12.2896 14.4611 12.7037 14.25 13.215 14.25C14.5465 14.25 15.75 15.2528 15.75 16.6358C15.75 17.327 15.438 17.9378 14.9654 18.3622L12.727 20.464C12.5258 20.6529 12.263 20.75 12.0001 20.75C11.7372 20.75 11.4744 20.653 11.2731 20.4641L8.98124 18.3129C8.53848 17.8911 8.25 17.3001 8.25 16.6358ZM13.5434 16.8492L13.5353 16.8564L13.5209 16.8697L11.9999 18.2979L10.4441 16.8377C10.3761 16.772 10.35 16.7011 10.35 16.6358C10.35 16.5249 10.4624 16.331 10.7309 16.3078L10.7389 16.3128C10.7561 16.3239 10.7784 16.3399 10.8055 16.3621C10.9198 16.4558 11.0407 16.5945 11.1615 16.7514C11.368 17.0196 11.6841 17.1603 12 17.1603C12.3159 17.1603 12.632 17.0196 12.8385 16.7514C12.9593 16.5945 13.0802 16.4558 13.1945 16.3621C13.2216 16.3399 13.2439 16.3239 13.2611 16.3128L13.2691 16.3078C13.5376 16.331 13.65 16.5249 13.65 16.6358C13.65 16.7043 13.6209 16.7806 13.5434 16.8492Z" fill="black"/>
</svg>
