<svg  viewBox="0 0 24 24" fill="none" xmlns="http://www.w3.org/2000/svg">
<path fill-rule="evenodd" clip-rule="evenodd" d="M13.7232 9.6968C14.0778 9.27332 14.7084 9.21741 15.1319 9.57193L20.9257 14.4222C21.6066 14.9922 22 15.8345 22 16.7225V20C22 21.6568 20.6569 23 19 23H5C3.34315 23 2 21.6568 2 20V16.7216C2 15.8344 2.39269 14.9927 3.07254 14.4227L8.85751 9.57241C9.28073 9.21758 9.91146 9.27301 10.2663 9.69622C10.6211 10.1194 10.5657 10.7502 10.1425 11.105L4.35751 15.9553C4.1309 16.1453 4 16.4259 4 16.7216V20C4 20.5523 4.44772 21 5 21H19C19.5523 21 20 20.5523 20 20V16.7225C20 16.4265 19.8689 16.1457 19.6419 15.9557L13.8481 11.1055C13.4246 10.751 13.3687 10.1203 13.7232 9.6968Z" fill="black"/>
<path fill-rule="evenodd" clip-rule="evenodd" d="M12 3C10.375 3 9 4.37186 9 6.17086C9 7.54062 9.5078 8.84025 10.3906 9.74306L10.3962 9.74874L11.3228 10.7116C11.5168 10.9176 11.7418 11 11.946 11C12.0961 11 12.3428 10.9122 12.5982 10.6813L13.4906 9.7541C14.4051 8.77407 14.9504 7.5039 15 6.15439C14.9916 4.36349 13.6201 3 12 3ZM7 6.17086C7 3.34673 9.19261 1 12 1C14.8074 1 17 3.34674 17 6.17086C17 6.18206 16.9998 6.19326 16.9994 6.20445C16.937 8.06235 16.1875 9.79862 14.9465 11.1253L14.9367 11.1357L14.0178 12.0904C14.005 12.1038 13.9917 12.1168 13.9782 12.1294C13.4833 12.5895 12.7652 13 11.946 13C11.179 13 10.4329 12.6819 9.87058 12.0868L8.9578 11.1384C7.68036 9.83038 7 8.01578 7 6.17086Z" fill="black"/>
</svg>
