<svg  viewBox="0 0 24 24" fill="none" xmlns="http://www.w3.org/2000/svg">
<path fill-rule="evenodd" clip-rule="evenodd" d="M5.96981 15.2555C6.36253 15.6438 6.36611 16.277 5.97779 16.6697L3.04442 19.6364C3.0303 19.6507 3.01576 19.6645 3.0008 19.6779C3.00034 19.6837 3 19.691 3 19.7V21H11.8335V19.7139C11.8322 19.7092 11.8297 19.7018 11.8256 19.6924C11.8203 19.6803 11.8137 19.6684 11.8067 19.658C11.7997 19.6475 11.7944 19.6418 11.793 19.6404L11.789 19.6364L11.789 19.6364L8.85567 16.6697C8.46736 16.277 8.47093 15.6438 8.86365 15.2555C9.25638 14.8672 9.88953 14.8708 10.2778 15.2635L13.2096 18.2285C13.5753 18.5954 13.8335 19.1415 13.8335 19.7V22C13.8335 22.5522 13.3857 23 12.8335 23H2C1.44772 23 1 22.5522 1 22V19.7C1 19.1732 1.1817 18.6233 1.64645 18.2057L4.55562 15.2635C4.94393 14.8708 5.57709 14.8672 5.96981 15.2555Z" fill="black"/>
<path fill-rule="evenodd" clip-rule="evenodd" d="M7.39994 10.9666C6.29987 10.9666 5.3999 11.8711 5.3999 13C5.3999 13.8927 5.75526 14.745 6.38132 15.4005L7.07369 16.0928C7.16544 16.1846 7.28247 16.2333 7.39994 16.2333C7.5174 16.2333 7.63443 16.1846 7.72618 16.0928L8.41852 15.4005C9.04182 14.7477 9.39997 13.8633 9.39997 13C9.39997 11.8711 8.50001 10.9666 7.39994 10.9666ZM3.3999 13C3.3999 10.7955 5.16663 8.96661 7.39994 8.96661C9.63324 8.96661 11.4 10.7955 11.4 13C11.4 14.4002 10.8273 15.7793 9.85467 16.7925L9.84039 16.8071L9.14039 17.5071C9.14038 17.5071 9.14039 17.5071 9.14039 17.5071C8.6988 17.9486 8.08248 18.2333 7.39994 18.2333C6.71739 18.2333 6.10108 17.9486 5.65949 17.5071C5.65949 17.5071 5.65949 17.5071 5.65949 17.5071L4.95948 16.8071L4.9452 16.7925C3.97538 15.7823 3.3999 14.4374 3.3999 13Z" fill="black"/>
<path fill-rule="evenodd" clip-rule="evenodd" d="M12 3C10.9 3 10 3.90452 10 5.03335C10 5.92604 10.3554 6.77834 10.9814 7.43387L11.6738 8.12622C11.7655 8.21797 11.8826 8.26666 12 8.26666C12.1175 8.26666 12.2345 8.21798 12.3263 8.12622L13.0186 7.4339C13.6419 6.78105 14.0001 5.89673 14.0001 5.03335C14.0001 3.90452 13.1001 3 12 3ZM8 5.03335C8 2.82884 9.76673 1 12 1C14.2333 1 16.0001 2.82884 16.0001 5.03335C16.0001 6.43358 15.4274 7.81272 14.4548 8.82588L14.4405 8.84046L13.7405 9.54045C13.7405 9.54045 13.7405 9.54044 13.7405 9.54045C13.2989 9.98202 12.6826 10.2667 12 10.2667C11.3175 10.2667 10.7012 9.98203 10.2596 9.54045C10.2596 9.54045 10.2596 9.54045 10.2596 9.54045L9.55958 8.84046L9.5453 8.82588C8.57547 7.81566 8 6.47083 8 5.03335Z" fill="black"/>
<path fill-rule="evenodd" clip-rule="evenodd" d="M18.0303 15.2555C18.423 14.8672 19.0562 14.8708 19.4445 15.2635L22.3762 18.2285C22.7419 18.5954 23.0001 19.1415 23.0001 19.7V22C23.0001 22.5522 22.5524 23 22.0001 23H11.5C10.9477 23 10.5 22.5522 10.5 22C10.5 21.4477 10.9477 21 11.5 21H21.0001V19.7139C20.9988 19.7092 20.9964 19.7018 20.9923 19.6924C20.987 19.6803 20.9804 19.6684 20.9734 19.658C20.9663 19.6475 20.9611 19.6418 20.9597 19.6404L20.9557 19.6364L20.9557 19.6364L18.0223 16.6697C17.634 16.277 17.6376 15.6438 18.0303 15.2555Z" fill="black"/>
<path fill-rule="evenodd" clip-rule="evenodd" d="M16.5669 10.9666C15.4669 10.9666 14.5669 11.8711 14.5669 13C14.5669 13.8927 14.9222 14.745 15.5483 15.4005L16.2407 16.0928C16.3324 16.1846 16.4495 16.2333 16.5669 16.2333C16.6844 16.2333 16.8014 16.1846 16.8932 16.0928L17.5932 15.3928C17.5932 15.3928 17.5932 15.3928 17.5932 15.3928C18.2428 14.7432 18.5922 13.8721 18.5674 13.0294C18.5671 13.0196 18.567 13.0098 18.567 13C18.567 11.8711 17.667 10.9666 16.5669 10.9666ZM12.5669 13C12.5669 10.7955 14.3336 8.96661 16.5669 8.96661C18.7952 8.96661 20.559 10.7872 20.5669 12.9851C20.6044 14.4039 20.021 15.7935 19.0074 16.8071L18.3074 17.5071C18.3074 17.5071 18.3074 17.5071 18.3074 17.5071C17.8658 17.9486 17.2495 18.2333 16.5669 18.2333C15.8844 18.2333 15.2681 17.9486 14.8265 17.5071L14.1265 16.8071L14.1122 16.7925C13.1424 15.7823 12.5669 14.4374 12.5669 13Z" fill="black"/>
<path fill-rule="evenodd" clip-rule="evenodd" d="M11.1141 7.60148C11.4078 8.06921 11.2667 8.68646 10.799 8.98014L7.93229 10.7801C7.46456 11.0738 6.84732 10.9327 6.55363 10.465C6.25994 9.9973 6.40103 9.38005 6.86876 9.08637L9.73546 7.28636C10.2032 6.99267 10.8204 7.13376 11.1141 7.60148Z" fill="black"/>
<path fill-rule="evenodd" clip-rule="evenodd" d="M12.8507 7.60589C13.1419 7.13665 13.7584 6.99236 14.2277 7.28361L17.1277 9.08362C17.597 9.37487 17.7413 9.99138 17.45 10.4606C17.1588 10.9299 16.5422 11.0742 16.073 10.7829L13.173 8.9829C12.7037 8.69164 12.5594 8.07514 12.8507 7.60589Z" fill="black"/>
<path fill-rule="evenodd" clip-rule="evenodd" d="M15.7117 15.5649C16.0072 16.0315 15.8685 16.6493 15.4019 16.9448L12.4019 18.8448C11.9353 19.1403 11.3175 19.0016 11.022 18.535C10.7265 18.0685 10.8652 17.4507 11.3318 17.1552L14.3318 15.2552C14.7984 14.9597 15.4162 15.0984 15.7117 15.5649Z" fill="black"/>
</svg>
