<svg xmlns="http://www.w3.org/2000/svg" fill="none" viewBox="0 0 24 24"><path fill="#000" fill-rule="evenodd" d="M12.9718 2.18701C12.5356 2.02586 12.057 2.02171 11.6181 2.17528L1.94556 5.5598C1.44461 5.61434 1.05469 6.04 1.05469 6.55701L1.05469 15.8341C1.05469 16.633 1.53007 17.3552 2.26382 17.6711L12.0565 21.8871C12.3579 22.0936 12.7615 22.1265 13.1032 21.9379L22.0206 17.0183C22.6584 16.6664 23.0545 15.9955 23.0545 15.2671L23.0545 6.65216C23.0545 6.22336 22.7863 5.85741 22.409 5.71389C22.3916 5.70144 22.3738 5.68947 22.3558 5.67802L22.2662 5.62117L12.9718 2.18701ZM21.0545 15.2616L13.6212 19.3625L13.6212 11.7775L21.0545 8.25263L21.0545 15.2616ZM11.6212 11.4949L3.05469 8.01058L3.05469 15.8284L11.6212 19.5165L11.6212 11.4949ZM12.9571 9.87339L4.97208 6.62558L7.51009 5.73749C7.55336 5.76323 7.59911 5.78601 7.6472 5.80547L15.1413 8.8376L12.9571 9.87339ZM10.3606 4.74005L17.6029 7.67029L19.5398 6.75181L12.2787 4.06892L10.3606 4.74005ZM4.45133 10.9545C4.64408 10.4354 5.2199 10.1712 5.73746 10.3646L8.37076 11.3484C8.88832 11.5417 9.15163 12.1193 8.95888 12.6385C8.76613 13.1577 8.19031 13.4218 7.67275 13.2284L5.03945 12.2447C4.52189 12.0513 4.25858 11.4737 4.45133 10.9545ZM5.76193 13.7889C5.24962 13.582 4.66708 13.8309 4.46081 14.3448C4.25454 14.8587 4.50264 15.443 5.01496 15.6499L8.31493 16.9827C8.82725 17.1896 9.40978 16.9408 9.61605 16.4268C9.82232 15.9129 9.57422 15.3286 9.0619 15.1217L5.76193 13.7889Z" clip-rule="evenodd"/></svg>