<svg xmlns="http://www.w3.org/2000/svg" fill="none" viewBox="0 0 24 24"><path fill="#000" fill-rule="evenodd" d="M17.8514 2.00823C17.8514 1.50662 17.4447 1.09998 16.9431 1.09998C16.4415 1.09998 16.0349 1.50662 16.0349 2.00823V5.20416L11.3599 5.20416C10.8583 5.20416 10.4517 5.6108 10.4517 6.11242L10.4517 11.0237L2.00785 11.0237C1.50624 11.0237 1.09961 11.4304 1.09961 11.932L1.09961 22.1919C1.09961 22.6936 1.50624 23.1002 2.00785 23.1002H5.23713C5.73874 23.1002 6.14537 22.6936 6.14537 22.1919L6.14537 19.8708H7.05363L7.05363 22.1919C7.05363 22.6936 7.46026 23.1002 7.96186 23.1002H11.3257C11.3314 23.1002 11.337 23.1001 11.3427 23.1C11.3484 23.1001 11.3541 23.1002 11.3599 23.1002L14.0846 23.1002C14.5862 23.1002 14.9928 22.6936 14.9928 22.1919V19.5008H16.1029V22.1919C16.1029 22.6936 16.5096 23.1002 17.0112 23.1002H22.1915C22.6931 23.1002 23.0997 22.6936 23.0997 22.1919L23.0997 6.11242C23.0997 5.6108 22.6931 5.20416 22.1915 5.20416L17.8514 5.20416V2.00823ZM13.8828 7.79437C13.3812 7.79437 12.9746 8.20101 12.9746 8.70263V11.2928C12.9746 11.7945 13.3812 12.2011 13.8828 12.2011H16.7758C17.2774 12.2011 17.684 11.7945 17.684 11.2928V8.70263C17.684 8.20101 17.2774 7.79437 16.7758 7.79437L13.8828 7.79437ZM14.7911 10.3846V9.61089H15.8675V10.3846H14.7911ZM15.4292 13.2775C15.4292 12.7758 15.8358 12.3692 16.3374 12.3692L19.2304 12.3692C19.732 12.3692 20.1386 12.7758 20.1386 13.2775V15.8677C20.1386 16.3693 19.732 16.7759 19.2304 16.7759L16.3374 16.7759C15.8358 16.7759 15.4292 16.3693 15.4292 15.8677V13.2775ZM17.2457 14.1857V14.9594L18.3221 14.9594V14.1857L17.2457 14.1857ZM5.0684 13.1762C4.56679 13.1762 4.16016 13.5828 4.16016 14.0845L4.16016 16.6747C4.16016 17.1763 4.56679 17.5829 5.0684 17.5829H7.96132C8.46292 17.5829 8.86956 17.1763 8.86956 16.6747L8.86956 14.0845C8.86956 13.5828 8.46292 13.1762 7.96132 13.1762L5.0684 13.1762ZM5.97663 15.7664V14.9927L7.05308 14.9927V15.7664L5.97663 15.7664ZM2.91609 12.8403L2.91609 21.2837H4.3289L4.3289 18.9626C4.3289 18.4609 4.73553 18.0543 5.23713 18.0543H7.96186C8.46347 18.0543 8.8701 18.4609 8.8701 18.9626V21.2837H10.4175L10.4175 12.8403L2.91609 12.8403ZM12.2681 21.2837L12.2681 7.02068L21.2833 7.02068L21.2833 21.2837H17.9194V18.5926C17.9194 18.0909 17.5128 17.6843 17.0112 17.6843H14.0846C13.583 17.6843 13.1764 18.0909 13.1764 18.5926V21.2837H12.2681Z" clip-rule="evenodd"/></svg>