<svg xmlns="http://www.w3.org/2000/svg" fill="none" viewBox="0 0 24 24"><path fill="#000" fill-rule="evenodd" d="M17.7522 1.90826C17.7522 1.40664 17.3455 1 16.8439 1C16.3423 1 15.9356 1.40664 15.9356 1.90826V5.10396L11.2598 5.10396C10.7582 5.10396 10.3516 5.5106 10.3516 6.01222L10.3516 10.789L1.90826 10.789C1.40664 10.789 1 11.1956 1 11.6973L1 22.0917C1 22.5933 1.40664 23 1.90826 23H5.13764C5.63926 23 6.0459 22.5933 6.0459 22.0917L6.0459 19.7706H6.95415L6.95415 22.0917C6.95415 22.5933 7.3608 23 7.86242 23H11.2263C11.2321 23 11.2379 22.9999 11.2436 22.9998C11.249 22.9999 11.2544 23 11.2598 23L13.9846 23C14.4862 23 14.8929 22.5933 14.8929 22.0917V19.367H16.003V22.0917C16.003 22.5933 16.4096 23 16.9112 23H22.0917C22.5933 23 22.9999 22.5933 22.9999 22.0917L22.9999 6.01222C22.9999 5.5106 22.5933 5.10396 22.0917 5.10396L17.7522 5.10396V1.90826ZM19.9728 8.97248C19.9728 8.47086 19.5661 8.06422 19.0645 8.06422C18.5629 8.06422 18.1562 8.47086 18.1562 8.97248L18.1563 16.0367C18.1563 16.5383 18.5629 16.945 19.0645 16.945C19.5661 16.945 19.9728 16.5383 19.9728 16.0367L19.9728 8.97248ZM2.81652 12.6055L2.81652 21.1835H4.22938L4.22938 18.8624C4.22938 18.3608 4.63602 17.9541 5.13764 17.9541H7.86242C8.36403 17.9541 8.77068 18.3608 8.77068 18.8624V21.1835H10.3181L10.3181 12.6055L2.81652 12.6055ZM12.1681 21.1834L12.1681 6.92048L21.1834 6.92048L21.1834 21.1834H17.8195V18.4587C17.8195 17.9571 17.4128 17.5504 16.9112 17.5504H13.9846C13.483 17.5504 13.0763 17.9571 13.0763 18.4587V21.1834H12.1681Z" clip-rule="evenodd"/></svg>