<svg xmlns="http://www.w3.org/2000/svg" fill="none" viewBox="0 0 24 24"><path fill="#000" fill-rule="evenodd" d="M7.88989 2C8.44218 2 8.88989 2.44772 8.88989 3V3.44L11.0901 3.44V3C11.0901 2.44772 11.5378 2 12.0901 2C12.6424 2 13.0901 2.44772 13.0901 3V3.44L15.3201 3.44V3C15.3201 2.44772 15.7678 2 16.3201 2C16.8724 2 17.3201 2.44772 17.3201 3V3.44H19.95C20.9727 3.44 22 4.21315 22 5.4L22 20.04C22 21.2268 20.9727 22 19.95 22L4.05 22C3.02728 22 2 21.2268 2 20.04L2 5.4C2 4.26239 3.00618 3.44 4.05 3.44L6.88989 3.44V3C6.88989 2.44772 7.33761 2 7.88989 2ZM13.0901 5.44H15.3201V5.46C15.3201 6.01228 15.7678 6.46 16.3201 6.46C16.8724 6.46 17.3201 6.01228 17.3201 5.46V5.44L19.95 5.44C19.9717 5.44 19.9883 5.44436 20 5.44915L20 19.9909C19.9883 19.9956 19.9717 20 19.95 20L4.05 20C4.02834 20 4.01166 19.9956 4 19.9909L4 5.45559C4.00508 5.45227 4.01097 5.44912 4.01746 5.44652C4.02876 5.44199 4.03963 5.44 4.05 5.44L6.88989 5.44V5.46C6.88989 6.01228 7.33761 6.46 7.88989 6.46C8.44218 6.46 8.88989 6.01228 8.88989 5.46V5.44L11.0901 5.44V5.46C11.0901 6.01228 11.5378 6.46 12.0901 6.46C12.6424 6.46 13.0901 6.01228 13.0901 5.46V5.44ZM6.72021 8.44995C6.16793 8.44995 5.72021 8.89767 5.72021 9.44995C5.72021 10.0022 6.16793 10.45 6.72021 10.45L17.2802 10.45C17.8325 10.45 18.2802 10.0022 18.2802 9.44995C18.2802 8.89767 17.8325 8.44995 17.2802 8.44995L6.72021 8.44995ZM6.26025 13.26C6.26025 12.7077 6.70797 12.26 7.26025 12.26L10.2003 12.26C10.7525 12.26 11.2003 12.7077 11.2003 13.26V16.17C11.2003 16.7223 10.7525 17.17 10.2003 17.17H7.26025C6.70797 17.17 6.26025 16.7223 6.26025 16.17L6.26025 13.26ZM8.26025 14.26V15.17H9.20025V14.26H8.26025ZM13.8 12.26C13.2478 12.26 12.8 12.7077 12.8 13.26V16.17C12.8 16.7223 13.2478 17.17 13.8 17.17H16.74C17.2923 17.17 17.74 16.7223 17.74 16.17V13.26C17.74 12.7077 17.2923 12.26 16.74 12.26H13.8ZM14.8 15.17V14.26H15.74V15.17H14.8Z" clip-rule="evenodd"/></svg>