<svg xmlns="http://www.w3.org/2000/svg" width="24" height="24" fill="none" viewBox="0 0 24 24"><path fill="#000" fill-rule="evenodd" d="M18.7071 18.7071C18.3166 19.0976 17.6834 19.0976 17.2929 18.7071L11.2929 12.7071C10.9024 12.3166 10.9024 11.6834 11.2929 11.2929L17.2929 5.29289C17.6834 4.90237 18.3166 4.90237 18.7071 5.29289C19.0976 5.68342 19.0976 6.31658 18.7071 6.70711L13.4142 12L18.7071 17.2929C19.0976 17.6834 19.0976 18.3166 18.7071 18.7071Z" clip-rule="evenodd"/><path fill="#000" fill-rule="evenodd" d="M6 19C5.44771 19 5 18.5523 5 18L5 6C5 5.44771 5.44772 5 6 5C6.55228 5 7 5.44771 7 6L7 18C7 18.5523 6.55228 19 6 19Z" clip-rule="evenodd"/></svg>