<svg  viewBox="0 0 24 24" fill="none" xmlns="http://www.w3.org/2000/svg">
<path fill-rule="evenodd" clip-rule="evenodd" d="M12 20C16.4183 20 20 16.4183 20 12C20 7.58172 16.4183 4 12 4C7.58172 4 4 7.58172 4 12C4 16.4183 7.58172 20 12 20ZM12 22C17.5228 22 22 17.5229 22 12C22 6.47716 17.5228 2 12 2C6.47715 2 2 6.47715 2 12C2 17.5228 6.47715 22 12 22Z" fill="black"/>
<path fill-rule="evenodd" clip-rule="evenodd" d="M13.7071 16.7071C13.3166 17.0976 12.6834 17.0976 12.2929 16.7071L8.29289 12.7071C7.90237 12.3166 7.90237 11.6834 8.29289 11.2929L12.2929 7.29289C12.6834 6.90237 13.3166 6.90237 13.7071 7.29289C14.0976 7.68342 14.0976 8.31658 13.7071 8.70711L10.4142 12L13.7071 15.2929C14.0976 15.6834 14.0976 16.3166 13.7071 16.7071Z" fill="black"/>
</svg>
