<svg  viewBox="0 0 24 24" fill="none" xmlns="http://www.w3.org/2000/svg">
<path fill-rule="evenodd" clip-rule="evenodd" d="M4 12C4 16.4183 7.58172 20 12 20C16.4183 20 20 16.4183 20 12C20 7.58172 16.4183 4 12 4C7.58172 4 4 7.58172 4 12ZM2 12C2 17.5228 6.47715 22 12 22C17.5228 22 22 17.5228 22 12C22 6.47715 17.5228 2 12 2C6.47715 2 2 6.47715 2 12Z" fill="black"/>
<path fill-rule="evenodd" clip-rule="evenodd" d="M7.29289 13.7071C6.90237 13.3166 6.90237 12.6834 7.29289 12.2929L11.2929 8.29289C11.6834 7.90237 12.3166 7.90237 12.7071 8.29289L16.7071 12.2929C17.0976 12.6834 17.0976 13.3166 16.7071 13.7071C16.3166 14.0976 15.6834 14.0976 15.2929 13.7071L12 10.4142L8.70711 13.7071C8.31658 14.0976 7.68342 14.0976 7.29289 13.7071Z" fill="black"/>
</svg>
