<svg xmlns="http://www.w3.org/2000/svg" fill="none" viewBox="0 0 24 24"><path fill="#000" fill-rule="evenodd" d="M12 4C7.58172 4 4 7.58172 4 12C4 16.4183 7.58172 20 12 20C16.4183 20 20 16.4183 20 12C20 7.58172 16.4183 4 12 4ZM12 2C6.47715 2 2 6.47715 2 12C2 17.5228 6.47715 22 12 22C17.5228 22 22 17.5228 22 12C22 6.47715 17.5228 2 12 2Z" clip-rule="evenodd"/><path fill="#000" fill-rule="evenodd" d="M10.2929 7.29289C10.6834 6.90237 11.3166 6.90237 11.7071 7.29289L15.7071 11.2929C16.0976 11.6834 16.0976 12.3166 15.7071 12.7071L11.7071 16.7071C11.3166 17.0976 10.6834 17.0976 10.2929 16.7071C9.90237 16.3166 9.90237 15.6834 10.2929 15.2929L13.5858 12L10.2929 8.70711C9.90237 8.31658 9.90237 7.68342 10.2929 7.29289Z" clip-rule="evenodd"/></svg>