<svg width="24" height="24" viewBox="0 0 24 24" fill="none" xmlns="http://www.w3.org/2000/svg">
<path fill-rule="evenodd" clip-rule="evenodd" d="M5.29289 5.29289C5.68342 4.90237 6.31658 4.90237 6.70711 5.29289L12.7071 11.2929C13.0976 11.6834 13.0976 12.3166 12.7071 12.7071L6.70711 18.7071C6.31658 19.0976 5.68342 19.0976 5.29289 18.7071C4.90237 18.3166 4.90237 17.6834 5.29289 17.2929L10.5858 12L5.29289 6.70711C4.90237 6.31658 4.90237 5.68342 5.29289 5.29289Z" fill="black"/>
<path fill-rule="evenodd" clip-rule="evenodd" d="M18 19C17.4477 19 17 18.5523 17 18L17 6C17 5.44771 17.4477 5 18 5C18.5523 5 19 5.44771 19 6L19 18C19 18.5523 18.5523 19 18 19Z" fill="black"/>
</svg>
