<svg  viewBox="0 0 24 24" fill="none" xmlns="http://www.w3.org/2000/svg">
<path fill-rule="evenodd" clip-rule="evenodd" d="M3 3.38046C3 3.18637 3.14832 3 3.42245 3L17.5776 3C17.8517 3 18 3.18637 18 3.38046V9H17V5C17 4.44772 16.5523 4 16 4L5 4C4.44772 4 4 4.44772 4 5L4 11.6555V12H3.42245C3.14836 12 3 11.8136 3 11.6195L3 3.38046ZM15 6L15 9L6.55804 9C6.3648 9 6.17827 9.02133 6 9.06159V6L15 6ZM6 13V11.6555C6 11.23 6.30105 11 6.55804 11L20.442 11C20.699 11 21 11.23 21 11.6555L21 19.3445C21 19.77 20.699 20 20.442 20L6.55804 20C6.30105 20 6 19.77 6 19.3445L6 13ZM4 14H3.42245C2.10062 14 1 12.9742 1 11.6195L1 3.38046C1 2.02573 2.10066 1 3.42245 1L17.5776 1C18.8993 1 20 2.02573 20 3.38046V9H20.442C21.9161 9 23 10.2415 23 11.6555L23 19.3445C23 20.7585 21.9161 22 20.442 22L6.55804 22C5.08388 22 4 20.7585 4 19.3445L4 14ZM8 12C7.44772 12 7 12.4477 7 13L7 18C7 18.5523 7.44772 19 8 19L19 19C19.5523 19 20 18.5523 20 18V13C20 12.4477 19.5523 12 19 12L8 12ZM9 17V14L18 14V17L9 17Z" fill="black"/>
</svg>
