<svg xmlns="http://www.w3.org/2000/svg" width="8" height="8" fill="none" viewBox="0 0 8 8"><g clip-path="url(#clip0)"><path fill="#fff" fill-rule="evenodd" d="M7.83031 1.12465C8.03761 1.30708 8.05778 1.62302 7.87535 1.83032L3.47536 6.83031C3.38043 6.93818 3.24369 7 3.1 7C2.95631 7 2.81957 6.93818 2.72465 6.83031L0.124649 3.87577C-0.0577778 3.66847 -0.0376114 3.35253 0.169692 3.1701C0.376996 2.98767 0.692935 3.00784 0.875362 3.21514L3.1 5.74315L7.12464 1.16969C7.30707 0.962389 7.623 0.942222 7.83031 1.12465Z" clip-rule="evenodd"/><path fill="#fff" fill-rule="evenodd" d="M6.7642 1.23496C7.02174 0.947923 7.46777 0.92 7.76043 1.17259C8.0531 1.42518 8.08157 1.86264 7.82402 2.14967L3.68286 6.76505C3.54885 6.91441 3.3558 7 3.15294 7C2.95009 7 2.75704 6.91441 2.62303 6.76505L0.175975 4.03778C-0.0815685 3.75075 -0.0530984 3.31329 0.239565 3.0607C0.532229 2.80811 0.97826 2.83603 1.2358 3.12307L3.15294 5.25974L6.7642 1.23496ZM7.44955 1.51907C7.352 1.43488 7.20332 1.44418 7.11747 1.53986L3.32958 5.76151C3.28491 5.8113 3.22056 5.83983 3.15294 5.83983C3.08533 5.83983 3.02098 5.8113 2.9763 5.76151L0.882528 3.42797C0.79668 3.33229 0.648003 3.32299 0.550449 3.40718C0.452894 3.49138 0.443404 3.6372 0.529252 3.73288L2.97631 6.46015C3.02098 6.50993 3.08533 6.53846 3.15294 6.53846C3.22056 6.53846 3.28491 6.50993 3.32958 6.46015L7.47075 1.84477C7.5566 1.74909 7.54711 1.60327 7.44955 1.51907Z" clip-rule="evenodd"/></g><defs><clipPath id="clip0"><rect width="8" height="8" fill="#fff"/></clipPath></defs></svg>