<svg xmlns="http://www.w3.org/2000/svg" fill="none" viewBox="0 0 9 12"><path fill="#3E5D6F" fill-rule="evenodd" d="M1.5 1C1.5 0.723858 1.27614 0.5 1 0.5C0.723858 0.5 0.5 0.723858 0.5 1V6C0.5 6.41334 0.61989 7.02223 0.994233 7.54215C1.38693 8.08757 2.03704 8.5 3 8.5H6.79289L4.64645 10.6464C4.45118 10.8417 4.45118 11.1583 4.64645 11.3536C4.84171 11.5488 5.15829 11.5488 5.35355 11.3536L8.35355 8.35355C8.54882 8.15829 8.54882 7.84171 8.35355 7.64645L5.35355 4.64645C5.15829 4.45118 4.84171 4.45118 4.64645 4.64645C4.45118 4.84171 4.45118 5.15829 4.64645 5.35355L6.79289 7.5H3C2.36296 7.5 2.01307 7.24577 1.80577 6.95785C1.58011 6.64443 1.5 6.25332 1.5 6V1Z" clip-rule="evenodd"/></svg>