<svg  viewBox="0 0 24 24" fill="none" xmlns="http://www.w3.org/2000/svg">
<path fill-rule="evenodd" clip-rule="evenodd" d="M10.2251 6.86051C10.2251 5.80947 11.0499 5 12.0156 5C12.9812 5 13.806 5.80946 13.806 6.86051C13.806 7.91156 12.9812 8.72102 12.0156 8.72102C11.0499 8.72102 10.2251 7.91155 10.2251 6.86051ZM12.0156 3C9.89894 3 8.2251 4.75191 8.2251 6.86051C8.2251 7.27394 8.28945 7.67366 8.40886 8.04916C6.47876 8.24728 5.00537 9.91162 5.00537 11.8899C5.00537 12.3912 5.09996 12.8723 5.27259 13.3144C3.40715 13.5726 2 15.2061 2 17.1394C2 19.248 3.6738 21 5.79046 21C7.08001 21 8.20519 20.3497 8.88764 19.3647C9.57008 20.3497 10.6952 21 11.9848 21C13.2839 21 14.4162 20.34 15.0971 19.3427C15.778 20.34 16.9103 21 18.2094 21C20.3261 21 21.9999 19.248 21.9999 17.1394C21.9999 15.1458 20.5036 13.471 18.5515 13.2943C18.7192 12.8577 18.8109 12.3836 18.8109 11.8899C18.8109 9.98267 17.4415 8.36723 15.6136 8.07612C15.7386 7.69282 15.806 7.28385 15.806 6.86051C15.806 4.75192 14.1322 3 12.0156 3ZM7.00537 11.8899C7.00537 10.8389 7.83022 10.0294 8.79585 10.0294C9.76147 10.0294 10.5863 10.8389 10.5863 11.8899C10.5863 12.941 9.76147 13.7504 8.79585 13.7504C7.83022 13.7504 7.00537 12.941 7.00537 11.8899ZM4 17.1394C4 16.0884 4.82484 15.2789 5.79046 15.2789C6.75609 15.2789 7.58094 16.0884 7.58094 17.1394C7.58094 18.1905 6.75608 19 5.79046 19C4.82486 19 4 18.1905 4 17.1394ZM10.1943 17.1394C10.1943 16.0884 11.0192 15.2789 11.9848 15.2789C12.9504 15.2789 13.7753 16.0884 13.7753 17.1394C13.7753 18.1905 12.9504 19 11.9848 19C11.0192 19 10.1943 18.1905 10.1943 17.1394ZM18.2094 15.2789C17.2438 15.2789 16.4189 16.0884 16.4189 17.1394C16.4189 18.1905 17.2438 19 18.2094 19C19.175 19 19.9999 18.1905 19.9999 17.1394C19.9999 16.0884 19.175 15.2789 18.2094 15.2789ZM15.0205 10.0294C14.0548 10.0294 13.23 10.8389 13.23 11.8899C13.23 12.941 14.0548 13.7504 15.0205 13.7504C15.9861 13.7504 16.8109 12.941 16.8109 11.8899C16.8109 10.8389 15.9861 10.0294 15.0205 10.0294Z" fill="black"/>
</svg>
