<svg  viewBox="0 0 24 24" fill="none" xmlns="http://www.w3.org/2000/svg">
<path fill-rule="evenodd" clip-rule="evenodd" d="M11.7982 3.83258C11.1453 4.36578 10.7987 5.00594 10.7987 5.59313C10.7987 6.14465 10.351 6.59176 9.79874 6.59176L8.33231 6.59176C7.16395 6.59176 6.13283 7.59557 6.13283 8.95466L6.13283 9.69704C6.14069 9.81772 6.12734 9.94824 6.08212 10.0828C5.99135 10.353 5.81463 10.5099 5.71306 10.5835C5.53409 10.7133 5.35287 10.7544 5.30602 10.765L5.30343 10.7656C5.17075 10.7958 5.03172 10.8046 4.94658 10.809C4.75813 10.8186 4.50395 10.8186 4.2562 10.8186H4.25615H4.23297C3.58982 10.8186 3 11.3649 3 12.1498V12.3827C3 13.2826 3.67088 13.9136 4.39961 13.9136L4.424 13.9139L5.77825 13.9469L10.9541 13.9469C10.6455 13.2577 10.4886 12.4948 10.4886 11.7316C10.4886 9.77632 11.9177 8 13.924 8C15.9304 8 17.3595 9.77632 17.3595 11.7316C17.3595 11.742 17.3593 11.7525 17.359 11.7629C17.3355 12.5136 17.1611 13.2388 16.858 13.8979L18.6384 13.8492C20.189 13.5913 20.9499 12.4537 20.9976 11.3054C21.0459 10.1445 20.3705 8.99767 18.8709 8.70306C18.402 8.61095 18.0639 8.20042 18.0639 7.72321V7.02428C18.0639 4.76887 16.3018 2.99726 14.2647 2.99726L13.9314 2.99726C13.2652 2.99726 12.4497 3.30061 11.7982 3.83258ZM15.4893 15.7875L15.4592 15.8212C15.4468 15.835 15.4341 15.8484 15.421 15.8615C15.0817 16.2009 14.5461 16.5493 13.8911 16.5493C13.312 16.5493 12.77 16.3001 12.3679 15.8705L9.38551 18.1935C9.14225 18.3829 9 18.674 9 18.9824V20C9 20.5523 9.44771 21 10 21L17.7493 21C18.3016 21 18.7493 20.5523 18.7493 20V18.948C18.7493 18.6494 18.6159 18.3665 18.3856 18.1765L15.4893 15.7875ZM13.3422 13.9607L13.821 14.4959C13.8477 14.5264 13.8684 14.5395 13.8784 14.5446L13.88 14.5438C13.9073 14.5302 13.947 14.5039 13.9912 14.4624L14.5231 13.8679C15.0238 13.2898 15.3303 12.5316 15.3594 11.7165C15.3525 10.6529 14.6131 10 13.924 10C13.2317 10 12.4886 10.6591 12.4886 11.7316C12.4886 12.506 12.7369 13.2246 13.1477 13.7379C13.1987 13.7813 13.2461 13.8306 13.2889 13.8855C13.308 13.91 13.3257 13.9351 13.3422 13.9607ZM5.76606 15.9441L9.01864 15.9441L8.15652 16.6156C7.42674 17.1841 7 18.0574 7 18.9824V20C7 21.6569 8.34315 23 10 23L17.7493 23C19.4062 23 20.7493 21.6569 20.7493 20V18.948C20.7493 18.0524 20.3492 17.2036 19.6583 16.6337L18.7026 15.8454L18.758 15.8439C18.7988 15.8428 18.8394 15.8392 18.8797 15.8331C21.4902 15.44 22.911 13.4295 22.9959 11.3883C23.0715 9.57265 22.0861 7.71298 20.0637 6.96811C20.0344 3.72333 17.4749 1 14.2647 1H13.9314C12.7313 1 11.4805 1.51207 10.5322 2.28643C9.82459 2.86423 9.20645 3.65648 8.93928 4.59449H8.33231C6.01191 4.59449 4.20131 6.51269 4.13473 8.82283C2.35944 8.87619 1 10.3713 1 12.1498V12.3827C1 14.2743 2.45544 15.9034 4.38637 15.9108L5.74166 15.9438L5.76606 15.9441Z" fill="black"/>
</svg>
