<svg  viewBox="0 0 24 24" fill="none" xmlns="http://www.w3.org/2000/svg">
<path fill-rule="evenodd" clip-rule="evenodd" d="M11.7715 5.78208C11.1173 6.28078 10.7988 6.86046 10.7988 7.36952V8.36952L8.33237 8.36952C7.10264 8.36952 6.13286 9.34926 6.13286 10.5144V11.2276C6.14101 11.3518 6.12672 11.4863 6.0784 11.625C5.98232 11.9007 5.79777 12.056 5.69851 12.1254C5.52146 12.2491 5.34381 12.2879 5.29841 12.2978L5.29556 12.2985C5.16596 12.3269 5.02959 12.3353 4.94469 12.3395C4.75729 12.3488 4.50405 12.3487 4.25585 12.3487H4.21999L4.20698 12.3484C3.54431 12.3312 3 12.8657 3 13.5309V13.7555C3 14.5101 3.60991 15.1303 4.39964 15.1303H4.41138L5.77783 15.1623L7.39919 15.1623C7.95147 15.1623 8.39919 15.6101 8.39919 16.1623C8.39919 16.7146 7.95147 17.1623 7.39919 17.1623H5.75436L4.38693 17.1302C2.51624 17.1235 1 15.6281 1 13.7555V13.5309C1 11.7977 2.38977 10.3687 4.13617 10.3482C4.22487 8.12554 6.08504 6.36952 8.33237 6.36952H8.95134C9.23029 5.46987 9.8588 4.72528 10.5591 4.1915C11.5113 3.46563 12.7533 3 13.9315 3H14.2648C17.4004 3 20.0113 5.4972 20.0633 8.62232C22.0583 9.32025 23.0741 11.0763 22.996 12.8489C22.908 14.8445 21.4443 16.7343 18.8671 17.0888L18.7993 17.0982H18C17.4477 17.0982 17 16.6505 17 16.0982C17 15.5459 17.4477 15.0982 18 15.0982H18.6586C20.236 14.8554 20.9532 13.7761 20.9979 12.7608C21.043 11.7376 20.4161 10.653 18.8855 10.3751L18.0641 10.226V8.71732C18.0641 6.68798 16.3634 5 14.2648 5H13.9315C13.2433 5 12.419 5.2885 11.7715 5.78208Z" fill="black"/>
<path fill-rule="evenodd" clip-rule="evenodd" d="M12.8315 6.72766C12.8315 6.17538 13.2793 5.72766 13.8315 5.72766C15.7081 5.72766 17.2312 7.22547 17.2312 9.10234C17.2312 9.65463 16.7835 10.1023 16.2312 10.1023C15.6789 10.1023 15.2312 9.65463 15.2312 9.10234C15.2312 8.34777 14.6213 7.72766 13.8315 7.72766C13.2793 7.72766 12.8315 7.27995 12.8315 6.72766Z" fill="black"/>
<path fill-rule="evenodd" clip-rule="evenodd" d="M9.6651 13.1224C8.86042 13.9261 8.46582 14.951 8.46582 15.9698C8.46582 16.9899 8.86138 18.016 9.66804 18.8201C11.2792 20.3943 13.855 20.3933 15.465 18.8173C17.064 17.2519 17.064 14.7198 15.465 13.1544C13.8551 11.5785 11.277 11.5764 9.6651 13.1224ZM8.27199 11.6874C10.6598 9.38822 14.4765 9.38805 16.864 11.7252C19.2644 14.0749 19.2644 17.8968 16.864 20.2465C14.4756 22.5845 10.6545 22.5845 8.26606 20.2465L8.26025 20.2408L8.26027 20.2408C7.06917 19.0557 6.46582 17.5158 6.46582 15.9698C6.46582 14.4238 7.06917 12.884 8.26027 11.6989L8.26608 11.6931L8.27199 11.6874Z" fill="black"/>
<path fill-rule="evenodd" clip-rule="evenodd" d="M15.3358 14.2901C14.9732 13.9033 14.3768 13.9033 14.0142 14.2901L12.175 16.2519L11.5858 15.6234C11.2232 15.2366 10.6268 15.2366 10.2642 15.6234C9.91193 15.9992 9.91193 16.6008 10.2642 16.9766L11.5142 18.3099C11.8768 18.6967 12.4732 18.6967 12.8358 18.3099L15.3358 15.6433C15.6881 15.2675 15.6881 14.6658 15.3358 14.2901Z" fill="black"/>
</svg>
