<svg xmlns="http://www.w3.org/2000/svg" fill="none" viewBox="0 0 24 24"><path fill="#000" fill-rule="evenodd" d="M10.7987 6.62818C10.7987 6.01405 11.1508 5.36628 11.7994 4.83434C12.4486 4.30186 13.2634 4 13.9314 4L14.2647 4C16.2939 4 18.0639 5.78902 18.0639 8.07241V8.77691C18.0639 9.25386 18.4007 9.66443 18.8685 9.75763C20.3647 10.0558 21.0463 11.2139 20.9976 12.3947C20.9496 13.5585 20.1881 14.7006 18.6511 14.9628L16.6643 14.9628V13.9902C16.6643 13.4379 16.2166 12.9902 15.6643 12.9902H15.5313V11.7006C15.5313 10.9064 15.2499 10.0892 14.6578 9.46341C14.0685 8.84055 13.3056 8.51666 12.465 8.51666H11.4985C10.6639 8.51666 9.89052 8.89543 9.3362 9.43248C9.32579 9.44257 9.3156 9.45288 9.30564 9.46341C8.71885 10.0836 8.43213 10.8628 8.43213 11.7006V12.9902H8.16553C7.61324 12.9902 7.16553 13.4379 7.16553 13.9902V15.0685L5.77895 15.0685L4.42538 15.0337C4.41679 15.0334 4.4082 15.0333 4.39961 15.0333C3.68756 15.0333 3 14.39 3 13.4619V13.2505C3 12.4466 3.60358 11.8904 4.23297 11.8904H4.25746H4.2575C4.50432 11.8904 4.75962 11.8904 4.94946 11.8802C5.03497 11.8755 5.17805 11.866 5.31536 11.8329L5.31744 11.8324C5.36649 11.8206 5.55284 11.7759 5.7343 11.6366C5.8385 11.5567 6.00387 11.3974 6.08719 11.135C6.12826 11.0056 6.1403 10.8803 6.13283 10.7643L6.13283 10.0098C6.13283 8.64226 7.16965 7.62818 8.33231 7.62818L9.79875 7.62818C10.351 7.62818 10.7987 7.18047 10.7987 6.62818ZM18.7306 16.9628L16.6643 16.9628L16.6643 21C16.6643 21.5523 16.2166 22 15.6643 22L8.16553 22C7.61324 22 7.16553 21.5523 7.16553 21V17.0685H5.76606C5.75747 17.0685 5.74888 17.0684 5.7403 17.0682L4.38561 17.0333C2.43853 17.0253 1 15.3473 1 13.4619V13.2505C1 11.4802 2.34636 9.94649 4.13435 9.89192C4.19388 7.57692 6.00166 5.62818 8.33231 5.62818H8.93561C9.19984 4.67555 9.81757 3.87315 10.531 3.28797C11.4816 2.50831 12.733 2 13.9314 2L14.2647 2C17.485 2 20.0381 4.76215 20.0637 8.0228C22.0897 8.77596 23.0712 10.6529 22.9959 12.4771C22.9113 14.5278 21.4955 16.5567 18.8799 16.9516C18.8305 16.9591 18.7806 16.9628 18.7306 16.9628ZM14.5313 14.9902L14.5293 14.9902H9.4341L9.43213 14.9902L9.43015 14.9902H9.16553L9.16553 20L14.6643 20L14.6643 14.9902H14.5333L14.5313 14.9902ZM13.5313 11.7006V12.9902H10.4321V11.7006C10.4321 11.3491 10.5401 11.0761 10.7437 10.8537C10.986 10.6261 11.2715 10.5167 11.4985 10.5167H12.465C12.7575 10.5167 12.9945 10.6154 13.205 10.838C13.4128 11.0576 13.5313 11.3676 13.5313 11.7006ZM12.8989 16.7377C12.8989 16.1854 12.4512 15.7377 11.8989 15.7377C11.3466 15.7377 10.8989 16.1854 10.8989 16.7377V18.1467C10.8989 18.699 11.3466 19.1467 11.8989 19.1467C12.4512 19.1467 12.8989 18.699 12.8989 18.1467V16.7377Z" clip-rule="evenodd"/></svg>