<svg xmlns="http://www.w3.org/2000/svg" fill="none" viewBox="0 0 24 24"><path fill="#000" fill-rule="evenodd" d="M11.8246 6.89195C11.1758 7.46309 10.7976 8.17973 10.7976 8.88328C10.7976 9.43556 10.3499 9.88328 9.79759 9.88328L8.33138 9.88328C7.23699 9.88328 6.13236 10.9523 6.13236 12.5217V13.2926C6.13325 13.3003 6.13406 13.308 6.13479 13.3158C6.16871 13.68 6.00513 13.9586 5.85181 14.1163C5.71891 14.2531 5.57973 14.3193 5.51694 14.3465C5.44296 14.3785 5.37792 14.3968 5.33619 14.4072C5.19353 14.4426 5.04216 14.4518 4.95986 14.4561C4.76663 14.4663 4.50378 14.4663 4.2557 14.4662H4.23265C4.22319 14.4662 4.21374 14.4661 4.20428 14.4658C3.67778 14.4509 3 14.9945 3 15.9851V16.23C3 17.3535 3.74589 17.9938 4.39926 17.9938L17.6951 17.9938C17.7108 17.9938 17.7265 17.9942 17.7422 17.9949C18.8002 18.0447 19.5445 17.726 20.0458 17.2738C20.5601 16.81 20.8806 16.1492 20.9728 15.4295C21.1604 13.9646 20.4102 12.5422 18.8499 12.2046C18.3898 12.105 18.0614 11.698 18.0614 11.2272V10.4576C18.0614 7.87823 16.2277 6 14.2629 6H13.9296C13.2847 6 12.4785 6.31628 11.8246 6.89195ZM10.5031 5.39079C11.4486 4.55834 12.7085 4 13.9296 4H14.2629C17.5631 4 20.0614 7.0196 20.0614 10.4576V10.4873C22.2955 11.3673 23.2153 13.6633 22.9566 15.6836C22.8113 16.8181 22.2966 17.9371 21.3853 18.759C20.466 19.5881 19.2027 20.0603 17.6725 19.9938L4.39926 19.9938C2.38679 19.9938 1 18.1851 1 16.23V15.9851C1 14.2171 2.26355 12.4901 4.13268 12.4657C4.15961 10.0687 5.91235 7.88328 8.33138 7.88328H8.9223C9.17441 6.88251 9.78242 6.02519 10.5031 5.39079Z" clip-rule="evenodd"/><path fill="#000" fill-rule="evenodd" d="M14.7423 9.71596C14.4077 9.33272 13.8843 9.33272 13.5497 9.71596C13.1864 10.132 12.5547 10.1748 12.1387 9.81152C11.7227 9.44828 11.6799 8.81656 12.0431 8.40054C13.1737 7.10565 15.1139 7.10452 16.2459 8.39716C16.9413 9.18168 17.1518 10.2271 17.0187 11.1588C16.9406 11.7056 16.434 12.0854 15.8873 12.0073C15.3406 11.9292 14.9607 11.4227 15.0388 10.8759C15.1054 10.4096 14.9835 9.98731 14.7482 9.72266L14.7423 9.71598L14.7423 9.71596Z" clip-rule="evenodd"/></svg>