<svg xmlns="http://www.w3.org/2000/svg" fill="none" viewBox="0 0 24 24"><path stroke="#000" stroke-linecap="round" stroke-linejoin="round" stroke-miterlimit="10" stroke-width="2" d="M19.83 16.92L4.14 16.86C3.51 16.86 3 16.29 3 15.57L3.03 4.29C3.03 3.57 3.54 3 4.17 3L19.86 3.05999C20.49 3.05999 21 3.63 21 4.35L20.97 15.63C21 16.35 20.46 16.92 19.83 16.92Z"/><path fill="#000" fill-rule="evenodd" d="M6.18164 14.3396C5.62936 14.3364 5.18424 13.8861 5.18745 13.3338L5.22663 6.5838C5.22984 6.03152 5.68015 5.5864 6.23244 5.58961L17.8724 5.65718C18.4247 5.66039 18.8698 6.1107 18.8666 6.66299L18.8274 13.413C18.8242 13.9653 18.3739 14.4104 17.8216 14.4072L6.18164 14.3396ZM7.19325 12.3454L16.8332 12.4014L16.8608 7.65138L7.22083 7.59541L7.19325 12.3454Z" clip-rule="evenodd"/><path stroke="#000" stroke-linecap="round" stroke-linejoin="round" stroke-miterlimit="10" stroke-width="2" d="M15.5698 21H14.3698C14.2798 21 14.2198 20.94 14.2198 20.85V17.0699H9.83984V19.8599"/><path stroke="#000" stroke-linecap="round" stroke-linejoin="round" stroke-miterlimit="10" stroke-width="2" d="M9.83975 19.86V20.85C9.83975 20.94 9.77975 21 9.68975 21H8.48975"/><path stroke="#000" stroke-linecap="round" stroke-linejoin="round" stroke-miterlimit="10" stroke-width="2" d="M8.82031 21H15.5103"/></svg>