<svg xmlns="http://www.w3.org/2000/svg" fill="none" viewBox="0 0 24 24"><path fill="#000" fill-rule="evenodd" d="M12 9L19 9C20.6569 9 22 10.3431 22 12V19C22 20.6569 20.6569 22 19 22H12C10.3431 22 9 20.6569 9 19L9 12C9 10.3431 10.3431 9 12 9ZM12 11C11.4477 11 11 11.4477 11 12L11 19C11 19.5523 11.4477 20 12 20H19C19.5523 20 20 19.5523 20 19V12C20 11.4477 19.5523 11 19 11L12 11Z" clip-rule="evenodd"/><path fill="#000" fill-rule="evenodd" d="M5 4C4.44772 4 4 4.44772 4 5L4 12C4 12.5523 4.44772 13 5 13H7V15H5C3.34315 15 2 13.6569 2 12L2 5C2 3.34315 3.34315 2 5 2L12 2C13.6569 2 15 3.34315 15 5V7H13V5C13 4.44772 12.5523 4 12 4L5 4Z" clip-rule="evenodd"/></svg>