<svg  viewBox="0 0 24 24" fill="none" xmlns="http://www.w3.org/2000/svg">
<path fill-rule="evenodd" clip-rule="evenodd" d="M7.76902 16.3226C8.4095 17.1355 9.49721 17.4492 10.4722 17.1022L11.8682 16.6053C12.3987 16.4164 12.8834 16.1177 13.2905 15.7287L21.5413 7.84373C22.1536 7.25857 22.5 6.44845 22.5 5.60149C22.5 3.88208 21.0943 2.5 19.388 2.5C18.5971 2.5 17.8292 2.80087 17.2498 3.34533L9.20498 10.905C8.86126 11.228 8.57738 11.6093 8.36645 12.0311L7.50629 13.7514C7.08849 14.5871 7.19085 15.5888 7.76902 16.3226ZM9.80154 15.218C9.63507 15.2772 9.44936 15.2237 9.34 15.0849C9.24129 14.9596 9.22381 14.7885 9.29514 14.6459L10.1553 12.9256C10.2608 12.7146 10.4027 12.524 10.5746 12.3625L18.6194 4.8028C18.8248 4.60972 19.1018 4.5 19.388 4.5C20.0028 4.5 20.5 4.99966 20.5 5.60149C20.5 5.90229 20.377 6.19 20.1595 6.39782L11.9087 14.2828C11.7051 14.4773 11.4628 14.6267 11.1975 14.7211L9.80154 15.218ZM3 3.81837C2.44772 3.81837 2 4.26609 2 4.81837L2 21C2 21.5523 2.44772 22 3 22L14.83 22C15.1046 22 15.3671 21.8871 15.5559 21.6878L20.0559 16.9378C20.4358 16.5369 20.4187 15.9039 20.0177 15.5241C19.6168 15.1443 18.9839 15.1614 18.604 15.5623L14.3999 20L4 20L4 5.81837L10.2 5.81837C10.7523 5.81837 11.2 5.37066 11.2 4.81837C11.2 4.26609 10.7523 3.81837 10.2 3.81837L3 3.81837Z" fill="black"/>
</svg>
