<svg  viewBox="0 0 24 24" fill="none" xmlns="http://www.w3.org/2000/svg">
<path fill-rule="evenodd" clip-rule="evenodd" d="M11.6771 3.00416C10.7183 3.03296 9.85878 3.20218 9.04161 3.57709C7.7396 4.18318 6.80075 5.07795 6.13745 6.28516L6.12856 6.301C5.94291 6.6248 5.80037 6.95678 5.6962 7.30463H6.99165C7.333 7.30463 7.60258 7.45808 7.7725 7.61977C7.93924 7.77843 8.12475 8.05642 8.12475 8.43127L8.12475 15.1747C8.12475 15.6175 7.86967 15.9312 7.61878 16.0903C7.39595 16.2317 7.16438 16.2696 6.99165 16.2696H2.1331C1.79185 16.2696 1.52228 16.1163 1.35232 15.9546C1.18554 15.7959 1 15.5179 1 15.143L1 8.43127C1 8.05642 1.18551 7.77843 1.35225 7.61977C1.52217 7.45808 1.79175 7.30463 2.1331 7.30463H3.63502C3.77957 6.61191 4.02457 5.95164 4.38895 5.31418C5.2559 3.73996 6.51131 2.54821 8.20034 1.76263L8.2047 1.7606L8.2047 1.76061C9.31615 1.25015 10.4517 1.03971 11.6206 1.00496L11.6266 1.0048C13.0271 0.97149 14.5054 1.09968 15.9068 1.76631C17.8484 2.68988 19.2648 4.13614 20.0635 6.09007L20.0682 6.10171L20.0682 6.10173C20.2274 6.50566 20.3314 6.9197 20.4116 7.30463H21.8669C22.2082 7.30463 22.4778 7.45808 22.6477 7.61977C22.8145 7.77843 23 8.05642 23 8.43127L23 15.1747C23 15.3367 22.9606 15.4964 22.8852 15.6399C22.8456 15.7153 22.7466 15.8932 22.5516 16.0416C22.3248 16.2142 22.0752 16.2696 21.8669 16.2696H20.3664C20.1674 16.9764 19.8899 17.6976 19.4481 18.373C18.8068 19.3981 17.8674 20.2335 16.4815 20.5223C16.2744 20.5661 16.0583 20.5971 15.845 20.616V20.905C15.845 21.2111 15.7076 21.4243 15.6723 21.4785C15.6142 21.5678 15.5506 21.6377 15.4969 21.6888C15.4428 21.7403 15.3713 21.7989 15.2823 21.8512C15.2236 21.8858 15.0242 22 14.7451 22L9.72021 22C9.54477 22 9.22762 21.9591 8.95606 21.7008C8.67518 21.4335 8.62036 21.104 8.62036 20.905V18.5306C8.62036 18.3316 8.67519 18.002 8.95617 17.7347C9.22777 17.4764 9.54492 17.4356 9.72021 17.4356L14.7451 17.4356C14.9204 17.4356 15.2376 17.4764 15.5093 17.7348C15.7902 18.0021 15.845 18.3317 15.845 18.5306V18.604C15.9222 18.5934 15.9977 18.5804 16.0694 18.5653L16.0725 18.5646C16.811 18.4109 17.3337 17.9848 17.7569 17.3053L17.7699 17.285C17.9737 16.9749 18.1343 16.6373 18.2679 16.2696L17.0083 16.2696C16.6671 16.2696 16.3975 16.1163 16.2276 15.9546C16.0608 15.7959 15.8752 15.5179 15.8752 15.143V8.43127C15.8752 8.05642 16.0608 7.77843 16.2275 7.61977C16.3974 7.45808 16.667 7.30463 17.0083 7.30463H18.3587C18.3159 7.14213 18.2677 6.98873 18.2097 6.8408C17.6104 5.37858 16.5649 4.2941 15.0477 3.57239C14.0539 3.09966 12.9376 2.97442 11.6771 3.00416ZM3 14.2696L3 9.30463H6.12475V14.2696H3ZM17.8752 9.30463L17.8752 14.2696H21L21 9.30463H17.8752ZM10.6204 20V19.4356L13.845 19.4356V20L10.6204 20Z" fill="black"/>
</svg>
