<svg xmlns="http://www.w3.org/2000/svg" fill="none" viewBox="0 0 24 24"><path fill="#000" fill-rule="evenodd" d="M8.08542 11.9502C8.08542 11.4269 8.10459 10.915 8.14119 10.4176C8.7483 9.98139 9.40722 9.55949 10.1113 9.16244C10.7199 8.81928 11.3276 8.5142 11.9263 8.24737C12.5366 8.51798 13.1565 8.82839 13.7772 9.17843C14.3499 9.50138 14.8928 9.84078 15.4021 10.1909C15.4504 10.7591 15.4759 11.3471 15.4759 11.9502C15.4759 12.8405 15.4204 13.6979 15.3179 14.5071C14.8319 14.8379 14.3161 15.1587 13.7733 15.4647C13.1539 15.814 12.5354 16.1238 11.9263 16.394C11.3289 16.1276 10.7225 15.8231 10.1152 15.4807C9.43825 15.0989 8.80306 14.6942 8.21553 14.2759C8.13089 13.5352 8.08542 12.7562 8.08542 11.9502ZM6.40143 12.8072C6.39081 12.5242 6.38542 12.2384 6.38542 11.9502L6.38565 11.8469C6.21628 12.0043 6.05396 12.162 5.89897 12.3196C6.05876 12.4822 6.22634 12.6449 6.40143 12.8072ZM4.78512 13.6186C5.3322 14.1641 5.94934 14.7015 6.62619 15.2189C6.76165 16.111 6.95162 16.9546 7.18936 17.7312C6.27891 17.8157 5.52578 17.7566 4.95959 17.5872C4.39073 17.4171 4.06036 17.1536 3.88732 16.8558C3.71428 16.558 3.65094 16.1439 3.79006 15.5745C3.92783 15.0106 4.25483 14.3449 4.78512 13.6186ZM4.78573 11.02C5.30355 10.5041 5.88402 9.99545 6.51838 9.50417C6.6201 8.58549 6.77825 7.70962 6.9861 6.89498C6.16813 6.83713 5.48616 6.89955 4.9635 7.0559C4.39464 7.22607 4.06426 7.48957 3.89122 7.78736C3.71819 8.08516 3.65484 8.49924 3.79397 9.06863C3.93145 9.63132 4.25738 10.2955 4.78573 11.02ZM7.50769 5.24302C7.47593 5.23968 7.44426 5.23647 7.41268 5.2334C6.34138 5.12934 5.33409 5.18205 4.47837 5.43803C3.61678 5.69576 2.86089 6.17701 2.41039 6.95232C1.95988 7.72764 1.92142 8.61344 2.13214 9.47584C2.34142 10.3324 2.80539 11.2147 3.43899 12.072C3.4998 12.1543 3.56239 12.2367 3.62674 12.3191C3.56102 12.4031 3.49713 12.4871 3.43509 12.5711C2.80149 13.4284 2.33752 14.3107 2.12823 15.1673C1.91752 16.0297 1.95597 16.9155 2.40648 17.6908C2.85699 18.4661 3.61288 18.9474 4.47447 19.2051C5.33019 19.4611 6.33748 19.5138 7.40878 19.4097C7.53938 19.397 7.67154 19.382 7.80515 19.3645C8.65523 21.2128 9.9976 22.7503 11.7806 22.7503C13.5718 22.7503 14.9183 21.1987 15.7677 19.3392C15.7683 19.338 15.7688 19.3368 15.7694 19.3356C16.0107 19.3731 16.2477 19.4032 16.4798 19.4257C17.5511 19.5298 18.5584 19.4771 19.4141 19.2211C20.2757 18.9634 21.0316 18.4821 21.4821 17.7068C21.9326 16.9315 21.9711 16.0457 21.7603 15.1833C21.5511 14.3267 21.0871 13.4444 20.4535 12.5871C20.3875 12.4978 20.3194 12.4085 20.2493 12.3191C20.3181 12.2314 20.3848 12.1437 20.4496 12.0561C21.0832 11.1987 21.5471 10.3164 21.7564 9.45986C21.9671 8.59746 21.9287 7.71165 21.4782 6.93634C21.0277 6.16102 20.2718 5.67977 19.4102 5.42204C18.5545 5.16606 17.5472 5.11336 16.4759 5.21741C16.3396 5.23065 16.2016 5.2465 16.062 5.26492C15.969 5.0216 15.8708 4.78678 15.7677 4.56118C14.9183 2.70161 13.5718 1.15002 11.7806 1.15002C9.98946 1.15002 8.64298 2.70161 7.79353 4.56118C7.69357 4.78 7.59821 5.0075 7.50769 5.24302ZM8.67609 7.15162C8.58844 7.47952 8.50927 7.82129 8.43947 8.17537C8.70607 8.01064 8.9788 7.84952 9.25722 7.69252C9.41631 7.60281 9.57564 7.51536 9.73509 7.43018C9.37336 7.32142 9.01964 7.22855 8.67609 7.15162ZM11.9244 6.40413C10.9993 6.03244 10.0899 5.74253 9.22094 5.53867C9.25979 5.44637 9.29944 5.35597 9.33984 5.26753C10.1354 3.52586 11.0616 2.85002 11.7806 2.85002C12.4997 2.85002 13.4258 3.52586 14.2214 5.26753C14.2703 5.37448 14.318 5.48428 14.3646 5.59685C13.5756 5.79788 12.7563 6.06801 11.9244 6.40413ZM14.1152 7.42576C14.2874 7.51736 14.4595 7.61162 14.6314 7.70851C14.7824 7.7937 14.9318 7.88011 15.0795 7.96764C15.0248 7.70762 14.965 7.45459 14.9005 7.20921C14.6436 7.27279 14.3815 7.34498 14.1152 7.42576ZM17.1726 11.5644C17.1748 11.6925 17.1759 11.8211 17.1759 11.9502C17.1759 12.3373 17.1661 12.7202 17.1471 13.0977C17.4417 12.8395 17.7177 12.5794 17.9739 12.3196C17.7251 12.0674 17.4577 11.8151 17.1726 11.5644ZM19.0893 11.0226C18.4791 10.416 17.7822 9.81952 17.0132 9.24972C16.912 8.42824 16.7654 7.643 16.5784 6.90752L16.654 6.89988C17.583 6.80964 18.3504 6.86799 18.9251 7.03991C19.4939 7.21008 19.8243 7.47358 19.9973 7.77138C20.1704 8.06917 20.2337 8.48325 20.0946 9.05265C19.9559 9.62012 19.6256 10.2908 19.0893 11.0226ZM19.0899 13.6161C18.4483 14.2544 17.7107 14.8815 16.894 15.4782C16.7634 16.2675 16.5897 17.0165 16.3777 17.7121C16.4723 17.7239 16.5657 17.7343 16.6579 17.7432C17.5869 17.8335 18.3543 17.7751 18.929 17.6032C19.4979 17.4331 19.8282 17.1696 20.0013 16.8718C20.1743 16.574 20.2376 16.1599 20.0985 15.5905C19.9596 15.0219 19.6282 14.3495 19.0899 13.6161ZM14.7 17.3818C14.7607 17.1915 14.8184 16.9955 14.8729 16.7943C14.7916 16.8414 14.7098 16.8882 14.6275 16.9346C14.4566 17.031 14.2854 17.1247 14.1141 17.2159C14.3119 17.2759 14.5073 17.3312 14.7 17.3818ZM9.73618 17.2114C9.44557 17.2989 9.16012 17.3761 8.88095 17.4431C8.79179 17.1683 8.70893 16.8814 8.63299 16.5837C8.83891 16.7082 9.04834 16.8306 9.2611 16.9506C9.41927 17.0398 9.57767 17.1267 9.73618 17.2114ZM11.9245 18.2374C12.6503 18.5309 13.3667 18.7741 14.0617 18.965C13.3041 20.4611 12.4521 21.0503 11.7806 21.0503C11.1186 21.0503 10.2811 20.4775 9.53147 19.0274C10.3056 18.8295 11.1089 18.5652 11.9245 18.2374ZM10.9477 12.0828C10.9477 11.6483 11.3088 11.2745 11.7811 11.2745C12.2535 11.2745 12.6146 11.6483 12.6146 12.0828C12.6146 12.5173 12.2535 12.8912 11.7811 12.8912C11.3088 12.8912 10.9477 12.5173 10.9477 12.0828ZM11.7811 9.57446C10.394 9.57446 9.24772 10.6855 9.24772 12.0828C9.24772 13.4801 10.394 14.5912 11.7811 14.5912C13.1682 14.5912 14.3146 13.4801 14.3146 12.0828C14.3146 10.6855 13.1682 9.57446 11.7811 9.57446Z" clip-rule="evenodd"/></svg>