<svg  viewBox="0 0 24 24" fill="none" xmlns="http://www.w3.org/2000/svg">
<path fill-rule="evenodd" clip-rule="evenodd" d="M12 9C13.1046 9 14 8.10457 14 7C14 5.89543 13.1046 5 12 5C10.8954 5 10 5.89543 10 7C10 8.10457 10.8954 9 12 9ZM12 19C13.1046 19 14 18.1046 14 17C14 15.8954 13.1046 15 12 15C10.8954 15 10 15.8954 10 17C10 18.1046 10.8954 19 12 19ZM18 13C18.5523 13 19 12.5523 19 12C19 11.4477 18.5523 11 18 11L6 11C5.44771 11 5 11.4477 5 12C5 12.5523 5.44771 13 6 13L18 13Z" fill="black"/>
</svg>
