<svg  viewBox="0 0 24 24" fill="none" xmlns="http://www.w3.org/2000/svg">
<path fill-rule="evenodd" clip-rule="evenodd" d="M2 5C2 2.79086 3.79086 1 6 1L18 1C20.2091 1 22 2.79086 22 5L22 19C22 21.2091 20.2091 23 18 23L6 23C3.79086 23 2 21.2091 2 19L2 5ZM6 3C4.89543 3 4 3.89543 4 5L4 19C4 20.1046 4.89543 21 6 21L18 21C19.1046 21 20 20.1046 20 19L20 5C20 3.89543 19.1046 3 18 3L6 3Z" fill="black"/>
<path fill-rule="evenodd" clip-rule="evenodd" d="M7 8C7 7.44772 7.44772 7 8 7L16 7C16.5523 7 17 7.44772 17 8C17 8.55228 16.5523 9 16 9L8 9C7.44772 9 7 8.55228 7 8Z" fill="black"/>
<path fill-rule="evenodd" clip-rule="evenodd" d="M7 12C7 11.4477 7.44772 11 8 11L16 11C16.5523 11 17 11.4477 17 12C17 12.5523 16.5523 13 16 13L8 13C7.44772 13 7 12.5523 7 12Z" fill="black"/>
<path fill-rule="evenodd" clip-rule="evenodd" d="M7 16C7 15.4477 7.44772 15 8 15L16 15C16.5523 15 17 15.4477 17 16C17 16.5523 16.5523 17 16 17H8C7.44772 17 7 16.5523 7 16Z" fill="black"/>
</svg>
