<svg  viewBox="0 0 24 24" fill="none" xmlns="http://www.w3.org/2000/svg">
<path d="M12 3C11.4477 3 11 3.44772 11 4V13.529L6.78165 9.30602C6.37408 8.89799 5.71326 8.89799 5.30568 9.30602C4.89811 9.71405 4.89811 10.3756 5.30568 10.7836L11.2096 16.694C11.4267 16.9114 11.7157 17.0129 12 16.9987C12.2843 17.0129 12.5733 16.9113 12.7905 16.694L18.6944 10.7836C19.1019 10.3756 19.1019 9.71404 18.6944 9.30602C18.2868 8.89799 17.626 8.89799 17.2184 9.30602L13 13.529V4C13 3.44772 12.5523 3 12 3Z" fill="black"/>
<path d="M5 20C5 19.4477 5.44772 19 6 19H18C18.5523 19 19 19.4477 19 20C19 20.5523 18.5523 21 18 21H6C5.44772 21 5 20.5523 5 20Z" fill="black"/>
</svg>
