<svg xmlns="http://www.w3.org/2000/svg" fill="none" viewBox="0 0 24 24"><path fill="#000" fill-rule="evenodd" d="M6 4C3.79086 4 2 5.79086 2 8V16C2 18.2091 3.79086 20 6 20H18C20.2091 20 22 18.2091 22 16V8C22 5.79086 20.2091 4 18 4H6ZM5.57122 6.04607C5.70935 6.0159 5.85282 6 6 6H18C18.1472 6 18.2906 6.0159 18.4288 6.04607L12 11.6712L5.57122 6.04607ZM4.08938 7.40699C4.03129 7.59437 4 7.79353 4 8V16C4 17.1046 4.89543 18 6 18H18C19.1046 18 20 17.1046 20 16V8C20 7.79353 19.9687 7.59436 19.9106 7.40699L12.6585 13.7526C12.2815 14.0825 11.7185 14.0825 11.3415 13.7526L4.08938 7.40699Z" clip-rule="evenodd"/></svg>