<svg xmlns="http://www.w3.org/2000/svg" fill="none" viewBox="0 0 24 24"><path fill="#000" fill-rule="evenodd" d="M11.0537 1.33025C11.5844 0.889917 12.3456 0.889917 12.8762 1.33025L12.8833 1.33614L16.5111 4.46094H16.8586C17.959 4.46094 18.8853 5.31231 18.8853 6.45927V6.56667C18.9537 6.60165 19.0192 6.64513 19.0802 6.69721L20.4922 7.9033C21.3538 8.1033 21.9331 8.90057 21.9331 9.78702V20.7022C21.9331 21.9016 20.9903 23 19.6818 23H4.18443C2.94074 23 1.93311 21.9688 1.93311 20.7022V9.78702C1.93311 8.92236 2.53365 8.0614 3.45502 7.88712L5.01367 6.54458V6.45927C5.01367 5.29248 5.99276 4.46094 7.04041 4.46094H7.4775C7.52933 4.37891 7.59408 4.3031 7.6715 4.23657L11.047 1.33577L11.0537 1.33025ZM11.9645 3.18436L13.4466 4.46094H10.479L11.9645 3.18436ZM18.8853 9.53053V9.16105L19.1082 9.35137L18.8853 9.53053ZM16.8853 6.46389V11.1385L11.9645 15.0949L7.01367 11.2338V6.47093C7.0168 6.4685 7.02089 6.46601 7.02563 6.46409C7.03158 6.46168 7.03657 6.46094 7.04041 6.46094H16.8586C16.8713 6.46094 16.88 6.46247 16.8853 6.46389ZM5.01367 9.18422V9.67408L4.7152 9.44131L5.01367 9.18422ZM13.1115 16.739L19.9331 11.2544V20.7022C19.9331 20.7907 19.8983 20.8704 19.8462 20.9254C19.797 20.9774 19.7411 21 19.6818 21H4.18443C4.08053 21 3.93311 20.8998 3.93311 20.7022V11.3677L10.8279 16.7448C11.489 17.3221 12.4524 17.3202 13.1115 16.739ZM8.96533 8.45428C8.41305 8.45428 7.96533 8.902 7.96533 9.45428C7.96533 10.0066 8.41305 10.4543 8.96533 10.4543H14.837C15.3893 10.4543 15.837 10.0066 15.837 9.45428C15.837 8.902 15.3893 8.45428 14.837 8.45428H8.96533Z" clip-rule="evenodd"/></svg>