<svg xmlns="http://www.w3.org/2000/svg" fill="none" viewBox="0 0 24 24"><path fill="#000" fill-rule="evenodd" d="M7.25185 18.6572C7.26452 18.671 7.27699 18.685 7.28927 18.6991C7.45939 18.895 7.70472 19 7.94649 19H16.0535C16.268 19 16.5169 18.9073 16.7498 18.6555C16.7502 18.6551 16.7506 18.6546 16.7509 18.6542L21.6217 13.3544C21.8634 13.068 22 12.7018 22 12.3235V11.6765C22 11.2298 21.8445 10.8872 21.6473 10.6735L21.6445 10.6705L16.7482 5.34278C16.7355 5.329 16.723 5.31503 16.7108 5.3009C16.5406 5.10504 16.2953 5 16.0535 5L7.94649 5C7.75776 5 7.47246 5.10435 7.25011 5.34468C7.24977 5.34505 7.24943 5.34541 7.24909 5.34578L2.37833 10.6457C2.1366 10.932 2 11.2983 2 11.6765V12.3235C2 12.7437 2.16277 13.1207 2.35276 13.3265L2.35552 13.3295L7.25185 18.6572ZM0.882948 9.31713L5.77928 3.98944C6.34115 3.38056 7.14381 3 7.94649 3L16.0535 3C16.8562 3 17.6589 3.34251 18.2207 3.98944L23.1171 9.31713C23.6789 9.92601 24 10.7632 24 11.6765V12.3235C24 13.1987 23.6789 14.0359 23.1171 14.6829L18.2207 20.0106C17.6589 20.6194 16.8963 21 16.0535 21L7.94649 21C7.14381 21 6.34115 20.6575 5.77928 20.0106L0.882948 14.6829C0.321075 14.074 0 13.1987 0 12.3235L0 11.6765C0 10.8013 0.321075 9.96407 0.882948 9.31713Z" clip-rule="evenodd"/><path fill="#000" fill-rule="evenodd" d="M10.7037 14H13.2963L15 12.0226V11.9774L13.2963 10L10.7037 10L9 11.9774V12.0226L10.7037 14ZM7.3679 10.8076L9.40803 8.43975C9.64215 8.16914 9.97659 8 10.311 8H13.689C14.0234 8 14.3579 8.15223 14.592 8.43975L16.6321 10.8076C16.8662 11.0782 17 11.4503 17 11.8562V12.1438C17 12.5328 16.8662 12.9049 16.6321 13.1924L14.592 15.5602C14.3579 15.8309 14.0401 16 13.689 16H10.311C9.97659 16 9.64215 15.8478 9.40803 15.5602L7.3679 13.1924C7.13378 12.9218 7 12.5328 7 12.1438V11.8562C7 11.4672 7.13378 11.0951 7.3679 10.8076Z" clip-rule="evenodd"/></svg>