<svg  viewBox="0 0 24 24" fill="none" xmlns="http://www.w3.org/2000/svg">
<path fill-rule="evenodd" clip-rule="evenodd" d="M3 3L6.13333 3C6.68561 3 7.13333 2.55228 7.13333 2C7.13333 1.44772 6.68561 1 6.13333 1L2.8 1C1.87063 1 1 1.72642 1 2.76666L1 6.53334C1 7.08563 1.44772 7.53334 2 7.53334C2.55228 7.53334 3 7.08563 3 6.53334L3 3ZM10.6335 8.99998C10.6335 8.2098 11.2616 7.59998 12.0002 7.59998C12.7388 7.59998 13.3669 8.20979 13.3669 8.99998C13.3669 9.64747 13.1301 10.2559 12.6598 10.7262L12.0931 11.2929C12.0889 11.297 12.0731 11.31 12.0472 11.3211C12.0216 11.3319 12.004 11.3333 12.0002 11.3333C11.9964 11.3333 11.9788 11.3319 11.9533 11.3211C11.9273 11.31 11.9115 11.297 11.9073 11.2929L11.3407 10.7262C10.8985 10.2841 10.6335 9.63998 10.6335 8.99998ZM12.0002 5.59998C10.1388 5.59998 8.63354 7.12349 8.63354 8.99998C8.63354 9.73157 8.81984 10.4615 9.16429 11.1078L6.98457 13.5706C6.82274 13.7534 6.7334 13.9892 6.7334 14.2333L6.7334 17.4333C6.7334 17.9856 7.18111 18.4333 7.7334 18.4333L16.2667 18.4333C16.819 18.4333 17.2667 17.9856 17.2667 17.4333V14.2333C17.2667 13.9914 17.179 13.7576 17.0198 13.5754L14.851 11.0927C15.1952 10.4456 15.3669 9.72829 15.3669 8.99998C15.3669 7.1235 13.8616 5.59998 12.0002 5.59998ZM13.5598 12.6546L13.5073 12.7071C13.1286 13.0858 12.5776 13.3333 12.0002 13.3333C11.4228 13.3333 10.8718 13.0858 10.4931 12.7071L10.4541 12.6681L8.7334 14.6123L8.7334 16.4333H15.2667V14.6086L13.5598 12.6546ZM17.8667 1C17.3144 1 16.8667 1.44772 16.8667 2C16.8667 2.55228 17.3144 3 17.8667 3L21 3V6.53334C21 7.08563 21.4478 7.53334 22 7.53334C22.5523 7.53334 23 7.08563 23 6.53334V2.76666C23 1.7264 22.1294 1 21.2 1L17.8667 1ZM22 16.5C22.5523 16.5 23 16.9477 23 17.5V21.2667C23 22.3069 22.1294 23.0333 21.2 23.0333H17.8667C17.3144 23.0333 16.8667 22.5856 16.8667 22.0333C16.8667 21.4811 17.3144 21.0333 17.8667 21.0333H21V17.5C21 16.9477 21.4478 16.5 22 16.5ZM3 17.5C3 16.9477 2.55228 16.5 2 16.5C1.44772 16.5 1 16.9477 1 17.5L1 21.2667C1 22.3069 1.8706 23.0333 2.8 23.0333H6.13333C6.68561 23.0333 7.13333 22.5856 7.13333 22.0333C7.13333 21.4811 6.68561 21.0333 6.13333 21.0333H3L3 17.5Z" fill="black"/>
</svg>
