<svg xmlns="http://www.w3.org/2000/svg" width="17" height="16" fill="none" viewBox="0 0 17 16"><g clip-path="url(#clip0_2780_34445)"><path fill="#1E2A33" d="M8.30032 0C8.50942 0 8.71638 0 8.92548 0C8.95108 0.0042678 8.97668 0.0106695 9.00015 0.0128034C9.50582 0.0298746 10.0051 0.102427 10.4958 0.22406C12.1088 0.623099 13.4765 1.43612 14.5774 2.68018C15.8939 4.16964 16.5745 5.91304 16.598 7.90611C16.6044 8.42891 16.5681 8.94532 16.4721 9.45959C16.2929 10.4241 15.9493 11.3268 15.4373 12.1632C14.6265 13.4799 13.5298 14.4849 12.1451 15.1742C11.2063 15.6415 10.212 15.904 9.16871 15.9808C8.76119 16.0107 8.35153 16.0064 7.94401 15.9723C7.55356 15.9381 7.16951 15.8805 6.78972 15.7909C5.61197 15.5135 4.54729 14.9971 3.60637 14.2374C2.42647 13.2857 1.57943 12.095 1.06949 10.6674C0.817727 9.96532 0.672641 9.2398 0.627835 8.49506C0.623567 8.43318 0.610766 8.3713 0.600098 8.31155C0.600098 8.10243 0.600098 7.89544 0.600098 7.68632C0.606499 7.66071 0.615033 7.63724 0.617167 7.61163C0.638503 7.40464 0.653438 7.19765 0.676908 6.99066C0.74305 6.42731 0.871067 5.8789 1.06309 5.34542C1.70745 3.55508 2.8404 2.15737 4.45981 1.16298C5.61197 0.454521 6.8708 0.0746866 8.22351 0.0128034C8.24912 0.0106695 8.27472 0.0042678 8.30032 0ZM11.1103 3.30968C11.0762 3.30755 11.0463 3.30328 11.0186 3.30328C10.6985 3.28621 10.3785 3.26914 10.0606 3.25633C9.79172 3.24567 9.52502 3.2542 9.26045 3.31395C8.50088 3.4868 7.99522 3.93705 7.76052 4.68391C7.67731 4.94638 7.64957 5.21739 7.64744 5.49266C7.6453 5.8725 7.64744 6.25233 7.64744 6.63217C7.64744 6.65991 7.64744 6.68765 7.64744 6.71966C7.39994 6.71966 7.16311 6.71966 6.92627 6.71966C6.68731 6.71966 6.45048 6.71539 6.21151 6.72179C6.21151 7.29368 6.21151 7.85489 6.21151 8.42464C6.68944 8.42464 7.16524 8.42464 7.6453 8.42464C7.6453 8.54414 7.6453 8.65297 7.6453 8.7618C7.6453 8.87276 7.6453 8.98586 7.6453 9.09682C7.6453 9.20565 7.6453 9.31448 7.6453 9.42545C7.6453 9.53641 7.6453 9.6495 7.6453 9.76047C7.6453 9.8693 7.6453 9.97813 7.6453 10.0891C7.6453 10.2001 7.6453 10.3131 7.6453 10.4241C7.6453 10.5329 7.6453 10.6418 7.6453 10.7527C7.6453 10.8637 7.6453 10.9768 7.6453 11.0878C7.6453 11.1966 7.6453 11.3054 7.6453 11.4164C7.6453 11.5273 7.6453 11.6404 7.6453 11.7514C7.6453 11.8602 7.6453 11.9691 7.6453 12.08C7.6453 12.191 7.6453 12.3041 7.6453 12.415C7.6453 12.5239 7.6453 12.6306 7.64744 12.7415C8.21925 12.7415 8.78039 12.7415 9.3522 12.7415C9.3522 11.3033 9.3522 9.86716 9.3522 8.42251C9.83653 8.42251 10.3123 8.42251 10.7924 8.42251C10.8628 7.85063 10.9353 7.28728 11.0036 6.71752C10.8841 6.71752 10.7732 6.71752 10.6644 6.71752C10.5556 6.71752 10.4467 6.71752 10.3358 6.71752C10.2248 6.71752 10.1182 6.71752 10.0072 6.71752C9.89627 6.71752 9.78959 6.71752 9.67864 6.71752C9.56983 6.71752 9.46315 6.71966 9.35006 6.71539C9.35006 6.68338 9.35006 6.66204 9.35006 6.64284C9.35006 6.31848 9.35006 5.992 9.35006 5.66764C9.35006 5.60576 9.3522 5.54174 9.35647 5.47986C9.3842 5.14697 9.54849 4.95279 9.87494 4.8845C9.99442 4.86103 10.1182 4.85463 10.2398 4.85249C10.5001 4.84823 10.7604 4.85036 11.0207 4.85036C11.0484 4.85036 11.0762 4.84823 11.1039 4.84609C11.1103 4.33396 11.1103 3.82609 11.1103 3.30968Z"/></g><defs><clipPath id="clip0_2780_34445"><rect width="16" height="16" fill="#fff" transform="translate(0.600098)"/></clipPath></defs></svg>