<svg xmlns="http://www.w3.org/2000/svg" fill="none" viewBox="0 0 24 24"><path fill="#0C1720" fill-rule="evenodd" d="M8 3C7.44772 3 7 3.44772 7 4C7 4.55228 7.44772 5 8 5C8.55228 5 9 4.55228 9 4C9 3.44772 8.55228 3 8 3ZM5 5C5.05652 5 5.11194 4.99531 5.1659 4.9863C5.57385 6.15864 6.68867 7 8 7C9.31133 7 10.4262 6.15864 10.8341 4.9863C10.8881 4.99531 10.9435 5 11 5L21 5C21.5523 5 22 4.55228 22 4C22 3.44772 21.5523 3 21 3L11 3C10.9435 3 10.8881 3.00469 10.8341 3.0137C10.4262 1.84136 9.31133 1 8 1C6.68867 1 5.57385 1.84136 5.1659 3.0137C5.11194 3.00469 5.05652 3 5 3L3 3C2.44772 3 2 3.44772 2 4C2 4.55228 2.44772 5 3 5H5ZM2 20C2 19.4477 2.44772 19 3 19H5C5.05652 19 5.11194 19.0047 5.1659 19.0137C5.57385 17.8414 6.68867 17 8 17C9.31133 17 10.4262 17.8414 10.8341 19.0137C10.8881 19.0047 10.9435 19 11 19L21 19C21.5523 19 22 19.4477 22 20C22 20.5523 21.5523 21 21 21L11 21C10.9435 21 10.8881 20.9953 10.8341 20.9863C10.4262 22.1586 9.31133 23 8 23C6.68867 23 5.57385 22.1586 5.1659 20.9863C5.11194 20.9953 5.05652 21 5 21H3C2.44772 21 2 20.5523 2 20ZM18.8341 12.9863C18.4262 14.1586 17.3113 15 16 15C14.6887 15 13.5738 14.1586 13.1659 12.9863C13.1119 12.9953 13.0565 13 13 13L3 13C2.44772 13 2 12.5523 2 12C2 11.4477 2.44772 11 3 11L13 11C13.0565 11 13.1119 11.0047 13.1659 11.0137C13.5738 9.84135 14.6887 9 16 9C17.3113 9 18.4262 9.84135 18.8341 11.0137C18.8881 11.0047 18.9435 11 19 11H21C21.5523 11 22 11.4477 22 12C22 12.5523 21.5523 13 21 13H19C18.9435 13 18.8881 12.9953 18.8341 12.9863ZM7 20C7 19.4477 7.44772 19 8 19C8.55228 19 9 19.4477 9 20C9 20.5523 8.55228 21 8 21C7.44772 21 7 20.5523 7 20ZM15 12C15 11.4477 15.4477 11 16 11C16.5523 11 17 11.4477 17 12C17 12.5523 16.5523 13 16 13C15.4477 13 15 12.5523 15 12Z" clip-rule="evenodd"/></svg>