<svg xmlns="http://www.w3.org/2000/svg" fill="none" viewBox="0 0 24 24"><path fill="#0C1720" fill-rule="evenodd" d="M2.98789 2.1963C3.31316 2.03368 3.64375 2 3.90534 2L12.0267 2C14.7291 2 17.4055 2 20.1159 2.03301C20.4124 2.03383 20.7557 2.08817 21.0836 2.2714C21.4272 2.46336 21.6821 2.75703 21.8445 3.11412C21.8508 3.12812 21.8569 3.14226 21.8626 3.15654C21.9904 3.47613 22.0434 3.83881 21.9598 4.21514C21.877 4.58749 21.679 4.89022 21.4432 5.12605L15.4658 11.1027L15.4658 20.1259C15.4658 20.6423 15.2899 21.1761 14.8676 21.5571C14.4359 21.9467 13.8713 22.0632 13.335 21.9686L13.3127 21.9644C12.9332 21.8885 12.5954 21.6827 12.3727 21.46L9.13113 18.2188C8.6546 17.7964 8.54859 17.2417 8.54859 16.8261L8.54859 11.1027L2.57124 5.12605C2.31995 4.87478 2.09862 4.54091 2.02514 4.12109C1.95119 3.69853 2.04687 3.30244 2.22705 2.96559C2.39418 2.63866 2.64495 2.36775 2.98789 2.1963ZM4.27365 4L12.0237 4C14.6022 4 17.1443 4.00001 19.7123 4.02845L13.9238 9.81635C13.5532 10.1868 13.4658 10.6042 13.4658 10.9525L13.4658 19.7247L10.5486 16.8078V10.9195C10.5486 10.4615 10.3566 10.0823 10.0907 9.81635L4.27365 4Z" clip-rule="evenodd"/></svg>