<svg  viewBox="0 0 24 24" fill="none" xmlns="http://www.w3.org/2000/svg">
<path fill-rule="evenodd" clip-rule="evenodd" d="M19.3493 7.24584C16.2011 4.47101 11.222 4.35701 8.10212 6.77249C5.86507 8.50446 5.07248 10.79 5.00468 13.046C4.9358 15.3379 5.62276 17.5673 6.31816 18.9975C6.56514 19.5054 6.36492 20.1231 5.87097 20.3771C5.37702 20.631 4.77637 20.4251 4.5294 19.9172C3.72488 18.2626 2.92422 15.6947 3.00574 12.9824C3.08833 10.2343 4.08415 7.30907 6.8992 5.12959C10.779 2.1258 16.7993 2.28972 20.6508 5.68442C21.0701 6.054 21.1187 6.70313 20.7593 7.13431C20.3998 7.56548 19.7686 7.61541 19.3493 7.24584ZM6.96217 11.463C8.1779 7.08748 13.481 5.45372 17.4193 7.76791C19.4877 8.98331 20.6667 10.4923 20.8689 11.9408C20.9725 12.6822 20.8126 13.4262 20.3335 13.9936C19.8543 14.5612 19.1585 14.8302 18.4231 14.8302C17.7586 14.8302 17.2135 14.5429 16.7963 14.2436C16.4493 13.9946 16.111 13.6758 15.8242 13.4054C15.7774 13.3613 15.732 13.3185 15.6881 13.2775C14.9771 12.6128 14.4917 12.2596 13.9233 12.2596C13.2694 12.2596 12.7174 12.5896 12.4001 13.1198C12.087 13.643 11.9537 14.4529 12.3519 15.4766C12.6406 16.2188 13.2861 16.9852 14.0875 17.6539C14.8806 18.3157 15.7235 18.7963 16.2744 19.0087C16.7914 19.2081 17.0534 19.8008 16.8595 20.3325C16.6656 20.8642 16.0892 21.1337 15.5721 20.9343C14.7897 20.6325 13.7615 20.0303 12.8274 19.2508C11.9016 18.4784 10.9638 17.4454 10.495 16.2403C9.8933 14.6934 10.01 13.1898 10.6969 12.042C11.3795 10.9013 12.5774 10.2031 13.9234 10.2031C15.3549 10.2031 16.3695 11.1352 17.0334 11.7558C17.0879 11.8068 17.1401 11.8558 17.1903 11.903C17.4851 12.1799 17.7115 12.3926 17.9406 12.557C18.1953 12.7397 18.3377 12.7737 18.4231 12.7737C18.6877 12.7737 18.7898 12.6852 18.8234 12.6453C18.8572 12.6053 18.9255 12.4917 18.8893 12.233C18.8123 11.6812 18.2414 10.6195 16.4271 9.55346C13.3658 7.75463 9.66929 9.20566 8.88512 12.0279C8.00701 15.1883 9.32513 17.902 10.6306 19.2444C11.0211 19.6459 11.0211 20.297 10.6306 20.6985C10.2401 21.1001 9.60699 21.1001 9.21648 20.6986C7.52212 18.9563 5.84038 15.5004 6.96217 11.463ZM13.9761 13.9105C14.4701 13.6565 15.0707 13.8624 15.3177 14.3704C15.4474 14.6371 15.8917 15.1208 16.5761 15.5583C17.248 15.9878 17.9359 16.2336 18.4231 16.2336C18.9754 16.2336 19.4231 16.6939 19.4231 17.2618C19.4231 17.8297 18.9754 18.2901 18.4231 18.2901C17.4104 18.2901 16.3484 17.8342 15.5203 17.3049C14.7049 16.7837 13.8992 16.0516 13.5289 15.2901C13.282 14.7821 13.4822 14.1645 13.9761 13.9105Z" fill="black"/>
</svg>
