<svg xmlns="http://www.w3.org/2000/svg" fill="none" viewBox="0 0 24 24"><path fill="#000" fill-rule="evenodd" d="M14.4942 8.94975C15.0465 8.94975 15.4942 8.50203 15.4942 7.94975L15.4942 3C15.4942 2.44772 15.0465 2 14.4942 2L9.48144 2C8.92915 2 8.48144 2.44772 8.48144 3V7.94975C8.48144 8.50203 8.92915 8.94975 9.48144 8.94975L10.9988 8.94975V11.7005L7.62172 15.0502L3 15.0502C2.44772 15.0502 2 15.4979 2 16.0502L2 21C2 21.5523 2.44772 22 3 22H8.01277C8.56505 22 9.01277 21.5523 9.01277 21V16.4875L12.002 13.5225L14.9873 16.4615L14.9873 21C14.9873 21.5523 15.435 22 15.9873 22H21.0001C21.5524 22 22.0001 21.5523 22.0001 21V16.0502C22.0001 15.4979 21.5524 15.0502 21.0001 15.0502L16.4046 15.0502L12.9988 11.6973V8.94975H14.4942ZM13.4942 4V6.94975H10.4814V4L13.4942 4ZM7.01277 20V17.0502H4L4 20H7.01277ZM20.0001 20V17.0502L16.9873 17.0502L16.9873 20H20.0001Z" clip-rule="evenodd"/></svg>