<svg  viewBox="0 0 24 24" fill="none" xmlns="http://www.w3.org/2000/svg">
<path fill-rule="evenodd" clip-rule="evenodd" d="M10.1104 2C9.55807 2 9.11035 2.44772 9.11035 3V6.81058C9.11035 7.36287 9.55807 7.81058 10.1104 7.81058L10.9106 7.81058V13.849H9.15595L7.60017 11.4929L7.60017 7.95074C7.60017 7.39846 7.15245 6.95074 6.60017 6.95074L3 6.95074C2.44772 6.95074 2 7.39846 2 7.95074L2 11.7613C2 12.3136 2.44772 12.7613 3 12.7613H6.04107L7.67015 15.2285L7.67015 21C7.67015 21.5523 8.11787 22 8.67015 22L15.2104 22C15.7627 22 16.2104 21.5523 16.2104 21L16.2104 15.1564L17.9311 12.7557L21 12.7557C21.5523 12.7557 22 12.308 22 11.7557V7.94516C22 7.39287 21.5523 6.94516 21 6.94516H17.3998C16.8475 6.94516 16.3998 7.39287 16.3998 7.94516V11.459L14.6868 13.849H12.9106V7.81058H13.7105C14.2628 7.81058 14.7105 7.36287 14.7105 6.81058V3C14.7105 2.44772 14.2628 2 13.7105 2L10.1104 2ZM11.9191 5.81058H12.7105V4H11.1104V5.81058H11.9022L11.9106 5.81055L11.9191 5.81058ZM14.2104 20L14.2104 15.849H9.67015V20L14.2104 20ZM4 10.7613V8.95074H5.60017V10.7613H4ZM20 10.7557V8.94516H18.3998V10.7557L20 10.7557Z" fill="black"/>
</svg>
