<svg xmlns="http://www.w3.org/2000/svg" fill="none" viewBox="0 0 24 24"><path fill="#000" fill-rule="evenodd" d="M10.2082 1.08619C10.3361 1.02936 10.4744 1 10.6144 1L13.4858 1C13.6257 1 13.7641 1.02936 13.892 1.08619C14.1997 1.22296 14.4686 1.43555 14.6609 1.73473C14.8461 2.02284 14.9211 2.33032 14.9483 2.60168C14.9492 2.61108 14.95 2.6205 14.9507 2.62993C14.9711 2.9148 15.0053 3.21783 15.0455 3.52543C15.3576 3.63202 15.6619 3.75564 15.9581 3.89634L16.8494 3.21071C16.8587 3.20351 16.8682 3.19647 16.8779 3.1896C17.4328 2.79322 18.3256 2.72108 18.9342 3.32963L20.7372 5.13262C21.3743 5.7698 21.3164 6.67048 20.8634 7.27446L20.8561 7.28421L20.85 7.29211C20.6376 7.56821 20.4193 7.852 20.1982 8.13017C20.3412 8.4301 20.4667 8.73835 20.5747 9.05469C20.8103 9.08545 21.0432 9.11275 21.2674 9.13298C21.5759 9.05811 21.9026 9.09334 22.1984 9.24716C22.5673 9.43901 22.7892 9.76083 22.9138 10.0413C22.9706 10.1691 23 10.3075 23 10.4474L23 13.3189C23 13.4588 22.9706 13.5971 22.9138 13.725C22.777 14.0327 22.5645 14.3016 22.2653 14.4939C21.9772 14.6791 21.6697 14.7542 21.3983 14.7813C21.3889 14.7823 21.3795 14.7831 21.3701 14.7838C21.0852 14.8041 20.7822 14.8384 20.4746 14.8785C20.368 15.1907 20.2444 15.495 20.1037 15.7911L20.7967 16.6921C21.2497 17.2961 21.3075 18.1968 20.6704 18.834C20.1007 19.4036 19.5441 19.9604 19.022 20.5151C19.0151 20.5224 19.0081 20.5297 19.0009 20.5368C18.7714 20.7664 18.4081 21.0575 17.8967 21.0979C17.3821 21.1385 16.9713 20.9059 16.6921 20.6965C16.4813 20.5384 16.2724 20.373 16.0754 20.217L16.0704 20.2131C16.0191 20.1725 15.9686 20.1325 15.9188 20.0931C15.6336 20.2319 15.3392 20.3552 15.0326 20.4566C15.0203 20.5503 15.0074 20.6404 14.9953 20.7249L14.9933 20.7391C14.959 20.9788 14.9311 21.1775 14.9173 21.3701C14.9167 21.3795 14.9158 21.3889 14.9149 21.3983C14.8878 21.6697 14.8127 21.9772 14.6275 22.2653C14.4352 22.5645 14.1663 22.777 13.8586 22.9138C13.7307 22.9706 13.5923 23 13.4524 23L10.581 23C10.4069 23 10.2359 22.9546 10.0848 22.8682C9.90672 22.7665 9.68606 22.6145 9.50131 22.3784C9.30599 22.1288 9.18917 21.8347 9.15303 21.5094C9.15141 21.4948 9.15011 21.4802 9.14913 21.4655C9.13485 21.2514 9.10583 21.0238 9.07167 20.759L9.06988 20.7452C9.05844 20.6566 9.04644 20.5635 9.03487 20.4678C8.72988 20.3628 8.43244 20.2416 8.14275 20.104C7.85375 20.328 7.57602 20.5471 7.31464 20.7649C7.30152 20.7758 7.28812 20.7864 7.27446 20.7967C6.67048 21.2496 5.7698 21.3075 5.13262 20.6704L3.36301 18.9008C3.34732 18.8851 3.33216 18.8689 3.31754 18.8522C3.09849 18.6018 2.90469 18.2572 2.87986 17.835C2.8547 17.4072 3.01073 17.0258 3.25974 16.7289C3.42722 16.5117 3.59375 16.3035 3.754 16.1032L3.75671 16.0998C3.80711 16.0368 3.85689 15.9746 3.90623 15.9127C3.76404 15.6167 3.63939 15.3151 3.53205 15.012C3.23142 14.9718 2.93885 14.9379 2.63466 14.9177C2.62365 14.9169 2.61266 14.916 2.60168 14.9149C2.3303 14.8878 2.02281 14.8127 1.73471 14.6275C1.43553 14.4352 1.22295 14.1663 1.08619 13.8586C1.02936 13.7307 1 13.5923 1 13.4524L1 10.581C1 10.4069 1.04542 10.2359 1.13176 10.0848C1.34226 9.71644 1.73395 9.24334 2.44358 9.15464C2.46407 9.15208 2.48463 9.15015 2.50524 9.14886C2.73418 9.13456 2.96068 9.10568 3.22429 9.07167L3.23701 9.07003C3.33103 9.05789 3.43005 9.04511 3.5329 9.03289C3.64102 8.71895 3.76642 8.41301 3.90913 8.11529L3.24412 7.25079C3.23691 7.24142 3.22987 7.23193 3.22301 7.22231C2.82903 6.67075 2.77121 5.82972 3.26852 5.23295C3.28787 5.20973 3.30826 5.1874 3.32963 5.16603L5.13262 3.36301C5.39917 3.09647 5.77099 2.87947 6.22771 2.86605C6.66683 2.85314 7.03467 3.03285 7.3048 3.26C7.52194 3.42742 7.73002 3.59389 7.93026 3.75408L7.93354 3.75671C7.99663 3.80717 8.05895 3.85703 8.12092 3.90643C8.42376 3.76155 8.73509 3.63456 9.05469 3.52543C9.09486 3.21783 9.12911 2.9148 9.14946 2.62993C9.15013 2.6205 9.15094 2.61108 9.15188 2.60168C9.17902 2.33032 9.25407 2.02284 9.43927 1.73473C9.63159 1.43555 9.90048 1.22296 10.2082 1.08619ZM11.126 3C11.0871 3.43489 11.027 3.87886 10.9699 4.27832C10.9614 4.33771 10.9476 4.39622 10.9287 4.45313L10.9279 4.45537C10.9068 4.51871 10.849 4.69213 10.7215 4.86213C10.5663 5.06909 10.359 5.20933 10.1293 5.28591C10.1132 5.29127 10.097 5.29621 10.0807 5.30075C9.57159 5.44216 9.09262 5.63761 8.64193 5.88684C8.52645 5.96113 8.41867 5.99893 8.34942 6.01871C8.232 6.05226 8.12118 6.06345 8.0267 6.06345C7.93223 6.06345 7.82141 6.05226 7.70399 6.01871C7.61552 5.99344 7.46416 5.93876 7.31421 5.81616C7.09659 5.6484 6.88808 5.48159 6.68744 5.32107L6.68415 5.31844C6.55625 5.21612 6.43148 5.11632 6.30637 5.0177L5.03082 6.29326L5.83103 7.33352C5.94098 7.47645 6.00977 7.64583 6.0312 7.8234C6.03452 7.8425 6.03943 7.87247 6.04321 7.90267C6.04891 7.94826 6.06048 8.05363 6.0468 8.18123C6.03766 8.26655 6.00855 8.44941 5.88858 8.63879C5.63992 9.08787 5.44468 9.56503 5.30313 10.0721C5.25353 10.261 5.13966 10.5384 4.86213 10.7466C4.60388 10.9403 4.33444 10.9748 4.17825 10.9794C3.95643 10.9941 3.73576 11.0223 3.48023 11.0552L3.46753 11.0569C3.32219 11.0756 3.16494 11.0959 3 11.1133V12.9399C3.43815 12.9775 3.84885 13.0355 4.23201 13.0902C4.46236 13.1069 4.74463 13.1885 4.98176 13.4256C5.18652 13.6304 5.26495 13.8728 5.28351 13.9302C5.28447 13.9331 5.28526 13.9356 5.28591 13.9375C5.28967 13.9488 5.29324 13.9602 5.29659 13.9716C5.43915 14.4563 5.63655 14.9389 5.88684 15.3914C5.96113 15.5069 5.99893 15.6147 6.01871 15.684C6.05226 15.8014 6.06345 15.9122 6.06345 16.0067C6.06345 16.1011 6.05226 16.212 6.01871 16.3294C5.99344 16.4179 5.93876 16.5692 5.81616 16.7192C5.64839 16.9368 5.48157 17.1453 5.32105 17.346L5.31844 17.3492C5.21612 17.4771 5.11632 17.6019 5.0177 17.727L6.08062 18.7899C6.0708 18.7801 6.06098 18.7703 6.08752 18.7968L6.30066 19.01C6.61115 18.7591 6.93263 18.5108 7.24593 18.2698C7.40776 18.1031 7.62339 17.9864 7.87266 17.9508C8.17955 17.9069 8.42593 18.0014 8.55739 18.0672C8.57192 18.0744 8.58628 18.0821 8.60044 18.09C9.06069 18.3489 9.55058 18.5513 10.0721 18.6969C10.2611 18.7465 10.5384 18.8604 10.7466 19.1379C10.9391 19.3945 10.9744 19.6623 10.9793 19.8189C10.9941 20.0265 11.0222 20.2475 11.0552 20.5031L11.057 20.5169C11.0765 20.6679 11.0976 20.8318 11.1155 21L12.942 21C12.9618 20.8117 12.9884 20.6311 13.0114 20.4704L13.0134 20.4562C13.0462 20.2268 13.0732 20.035 13.0875 19.8502C13.0936 19.6458 13.1431 19.3543 13.356 19.0882C13.5841 18.8031 13.8775 18.701 14.0446 18.6592L14.0581 18.6559C14.4946 18.5532 14.9268 18.3711 15.3909 18.1135C15.5066 18.039 15.6146 18.0011 15.684 17.9813C15.8014 17.9477 15.9122 17.9366 16.0067 17.9366C16.1011 17.9366 16.212 17.9477 16.3294 17.9813C16.4164 18.0061 16.5642 18.0594 16.7117 18.1778C16.9153 18.331 17.1168 18.4906 17.3071 18.6413L17.3119 18.645C17.4557 18.7589 17.5935 18.8679 17.7287 18.9721C18.1488 18.531 18.5849 18.0916 19.0171 17.6589L18.2195 16.622C18.0773 16.4503 18.0122 16.2655 17.9831 16.1491C17.9624 16.0662 17.9397 15.939 17.9506 15.7873C17.9581 15.6812 17.9882 15.4882 18.1121 15.2933C18.3604 14.8445 18.5554 14.3677 18.6969 13.8611C18.7465 13.6722 18.8604 13.3948 19.1379 13.1867C19.37 13.0126 19.6111 12.967 19.771 12.9563C20.1575 12.9013 20.5829 12.8445 21 12.8072L21 11.1167C20.5975 11.0779 20.1907 11.0226 19.8218 10.9699C19.7625 10.9614 19.7039 10.9476 19.647 10.9287L19.6448 10.9279C19.5815 10.9068 19.408 10.849 19.238 10.7215C19.0311 10.5663 18.8908 10.359 18.8143 10.1293C18.8089 10.1132 18.804 10.097 18.7994 10.0807C18.6622 9.58669 18.4741 9.12107 18.2354 8.68215C18.136 8.54956 18.0117 8.32514 18.0117 8.0267C18.0117 7.62746 18.2342 7.36067 18.3218 7.26904C18.5721 6.96729 18.8241 6.64426 19.0838 6.30768L17.788 5.01194L16.7889 5.78049C16.6173 5.9227 16.4325 5.98776 16.3161 6.01687C16.2331 6.03762 16.106 6.06026 15.9543 6.04944C15.8482 6.04186 15.6552 6.01183 15.4602 5.88795C15.0115 5.63959 14.5347 5.44456 14.0281 5.30313C13.8391 5.25353 13.5618 5.13966 13.3536 4.86213C13.1795 4.63002 13.134 4.38889 13.1232 4.22904C13.0683 3.84252 13.0115 3.41709 12.9742 3H11.126ZM6.77629 11.8425C6.78021 8.9897 9.0962 6.67612 11.9499 6.67612C14.7569 6.67612 17.1235 8.91124 17.1235 11.8497C17.1235 14.7445 14.8008 17.0234 11.9499 17.0234C9.10959 17.0234 6.73862 14.7198 6.77629 11.8425ZM11.9499 8.67612C10.1984 8.67612 8.77629 10.0982 8.77629 11.8497L8.77618 11.8642C8.75115 13.5913 10.1849 15.0234 11.9499 15.0234C13.7067 15.0234 15.1235 13.6295 15.1235 11.8497C15.1235 10.047 13.6838 8.67612 11.9499 8.67612Z" clip-rule="evenodd"/></svg>