<svg xmlns="http://www.w3.org/2000/svg" fill="none" viewBox="0 0 24 24"><path fill="#000" fill-rule="evenodd" d="M20 3.50002C20 3.22386 20.2239 3 20.5 3C20.7761 3 21 3.22386 21 3.50002C21 3.77615 20.7762 4 20.5 4C20.2238 4 20 3.77615 20 3.50002ZM20.5 1C19.1193 1 18 2.11932 18 3.50002C18 3.81515 18.0583 4.11666 18.1647 4.39435L15.8005 6.36449C15.4216 6.13324 14.9764 6 14.5 6C13.7628 6 13.1001 6.31912 12.6425 6.82676L10.9901 6.27596C10.8768 5.00022 9.80521 4 8.5 4C7.11928 4 6 5.1193 6 6.5C6 6.94007 6.1137 7.35358 6.31334 7.71276L4.57647 9.24299C4.25046 9.08722 3.88541 9 3.5 9C2.11928 9 1 10.1193 1 11.5C1 12.8807 2.11928 14 3.5 14C4.88072 14 6 12.8807 6 11.5C6 11.2402 5.96036 10.9896 5.88681 10.754L7.94729 8.93869C8.12509 8.97882 8.31007 9 8.5 9C9.23722 9 9.89991 8.68089 10.3575 8.17327L12.0099 8.72408C12.1232 9.99983 13.1948 11 14.5 11C15.8807 11 17 9.88075 17 8.50002C17 8.33182 16.9834 8.16749 16.9517 8.0086L19.5744 5.82305C19.8607 5.93722 20.173 6 20.5 6C21.8807 6 23 4.88075 23 3.50002C23 2.11932 21.8807 1 20.5 1ZM17 12C17 10.8954 17.8954 10 19 10H22C23.1046 10 24 10.8954 24 12L24 23H17L17 12ZM22 21L22 12H19L19 21H22ZM11 13C9.89543 13 9 13.8954 9 15L9 23L16 23L16 15C16 13.8954 15.1046 13 14 13H11ZM11 15H14L14 21L11 21L11 15ZM3 15C1.89543 15 1 15.8954 1 17L1 23H8V17C8 15.8954 7.10457 15 6 15H3ZM3 17H6L6 21H3L3 17ZM3.5 11C3.22386 11 3 11.2239 3 11.5C3 11.7761 3.22386 12 3.5 12C3.77614 12 4 11.7761 4 11.5C4 11.2239 3.77614 11 3.5 11ZM8 6.5C8 6.22386 8.22386 6 8.5 6C8.77614 6 9 6.22386 9 6.5C9 6.77614 8.77614 7 8.5 7C8.22386 7 8 6.77614 8 6.5ZM14.5 8C14.2239 8 14 8.22386 14 8.50002C14 8.77615 14.2238 9 14.5 9C14.7762 9 15 8.77615 15 8.50002C15 8.22386 14.7761 8 14.5 8Z" clip-rule="evenodd"/></svg>