<svg  viewBox="0 0 24 24" fill="none" xmlns="http://www.w3.org/2000/svg">
<path fill-rule="evenodd" clip-rule="evenodd" d="M3 1.8999C3.55228 1.8999 4 2.34762 4 2.8999L4 19.8999L21 19.8999C21.5523 19.8999 22 20.3476 22 20.8999C22 21.4522 21.5523 21.8999 21 21.8999L3 21.8999C2.44772 21.8999 2 21.4522 2 20.8999L2 2.8999C2 2.34762 2.44772 1.8999 3 1.8999ZM13.9097 5.8999C13.9097 5.34762 14.3574 4.8999 14.9097 4.8999L20.9392 4.8999C21.2062 4.8999 21.4625 5.00665 21.6503 5.19638C21.8382 5.3861 21.9423 5.64305 21.9396 5.91L21.8796 11.85C21.874 12.4022 21.4218 12.8454 20.8696 12.8398C20.3173 12.8343 19.8741 12.382 19.8797 11.8298L19.9157 8.26412L16.1057 14.0686C15.9594 14.2916 15.73 14.4469 15.4685 14.5C15.2071 14.553 14.9354 14.4994 14.7137 14.351L11.3771 12.1186L7.70239 17.6437C7.39654 18.1035 6.7758 18.2284 6.31594 17.9225C5.85608 17.6167 5.73123 16.9959 6.03708 16.5361L10.2671 10.1761C10.4142 9.95487 10.6434 9.80129 10.9039 9.74926C11.1645 9.69723 11.435 9.75102 11.6558 9.89877L14.9873 12.1278L18.4188 6.8999L14.9097 6.8999C14.3574 6.8999 13.9097 6.45219 13.9097 5.8999Z" fill="black"/>
</svg>
