<svg  viewBox="0 0 24 24" fill="none" xmlns="http://www.w3.org/2000/svg">
<path fill-rule="evenodd" clip-rule="evenodd" d="M16.1995 1C15.0949 1 14.1995 1.89543 14.1995 3V6.00982C14.1339 6.00333 14.0673 6 14 6L9 6C7.89543 6 7 6.89543 7 8L7 12L3 12C1.89543 12 1 12.8954 1 14L1 22C1 22.5523 1.44772 23 2 23H8L15 23C15.0337 23 15.0669 22.9983 15.0997 22.9951C15.1325 22.9983 15.1658 23 15.1995 23H22C22.5523 23 23 22.5523 23 22L23 3C23 1.89543 22.1046 1 21 1L16.1995 1ZM16.1995 3L21 3L21 21H16.1995L16.1995 3ZM7 14L7 21H3L3 14L7 14ZM14 21L9 21L9 14V8L14 8L14 21Z" fill="black"/>
</svg>
