<svg  viewBox="0 0 24 24" fill="none" xmlns="http://www.w3.org/2000/svg">
<path fill-rule="evenodd" clip-rule="evenodd" d="M6.17853 15.7623C5.8879 15.9243 5.57624 16.098 5.26973 16.2513C4.89033 16.441 4.50445 16.6211 4.13276 16.7945L4.12683 16.7973C3.81497 16.9428 3.51296 17.0838 3.21838 17.2279C3.82509 18.1572 4.43088 19.1138 5.03225 20.0634C5.08388 20.0386 5.13754 20.0117 5.19938 19.9808C5.22319 19.9689 5.24821 19.9564 5.2748 19.9432C5.38816 19.8868 5.52587 19.8193 5.67032 19.7594C5.93487 19.6495 6.36977 19.4985 6.85673 19.5797L6.87562 19.583C8.86337 19.9536 10.8507 20.3914 12.8375 20.8964C13.5593 21.0615 14.1018 21.0357 14.6259 20.7736C14.6346 20.7693 14.6433 20.7651 14.6521 20.761C15.1154 20.5459 15.5877 20.3222 16.0641 20.0965L16.0657 20.0957C16.5398 19.8711 17.018 19.6446 17.4885 19.4261C18.5575 18.925 19.6197 18.427 20.6478 17.9295L20.6643 17.9217C20.8871 17.8189 20.9569 17.7015 20.9811 17.6313C21.007 17.5562 21.0222 17.4124 20.9164 17.192C20.7795 16.9068 20.3524 16.7105 19.9232 16.9061C19.2444 17.2284 18.4636 17.5733 17.699 17.9111L17.6907 17.9148C16.9145 18.2576 16.1552 18.5931 15.5023 18.9033L15.4956 18.9065L14.4224 19.4065C14.0675 19.5718 13.6487 19.5148 13.3509 19.2606C13.0531 19.0064 12.931 18.6018 13.0386 18.2253L13.1009 18.0073C13.4299 16.8556 12.6736 15.6467 11.4537 15.4246C10.5117 15.253 9.54634 15.06 8.9329 14.8874C8.5053 14.7753 8.0185 14.859 7.37427 15.1421C7.05436 15.2826 6.72667 15.4581 6.37098 15.6553C6.30809 15.6901 6.24384 15.7259 6.17853 15.7623ZM2.97914 16.835C2.97825 16.8325 2.97815 16.8325 2.97914 16.835V16.835ZM6.56966 13.3111C7.38323 12.9535 8.38075 12.6702 9.45425 12.9565L9.46854 12.9604C9.97799 13.1044 10.8601 13.2835 11.8121 13.4569C13.5782 13.7786 14.8862 15.1921 15.1365 16.8668C15.6896 16.6123 16.2867 16.3485 16.8743 16.0889L16.8826 16.0853C17.6587 15.7424 18.4181 15.4069 19.071 15.0968L19.081 15.092C20.3868 14.4893 22.0555 14.9431 22.7195 16.3266C23.0144 16.941 23.0964 17.632 22.8719 18.2832C22.6467 18.9363 22.1524 19.4351 21.5115 19.7334C20.4732 20.2358 19.4026 20.7377 18.3386 21.2365L18.3358 21.2378L18.3325 21.2393C17.8691 21.4545 17.3968 21.6782 16.9204 21.9039L16.9186 21.9048C16.4481 22.1276 15.9736 22.3524 15.5066 22.5693C14.4353 23.1003 13.3825 23.0747 12.3775 22.8428L12.3559 22.8375C10.4264 22.3469 8.49733 21.9212 6.56869 21.5603C6.54794 21.5656 6.50589 21.578 6.43716 21.6065C6.36041 21.6384 6.27482 21.6795 6.16594 21.7337C6.1475 21.7429 6.12794 21.7526 6.10749 21.7629C6.01808 21.8076 5.91181 21.8608 5.8092 21.9081L5.80396 21.9105C5.62713 21.9909 5.42024 22.0827 5.22175 22.1391C5.01408 22.198 4.6939 22.2552 4.34015 22.1341C3.99118 22.0147 3.77419 21.7777 3.64835 21.6137C3.53102 21.4608 3.42346 21.2767 3.33117 21.1154C2.70009 20.1189 2.07384 19.1303 1.44838 18.1755L1.44639 18.1725C1.33029 17.9939 1.20604 17.7884 1.12103 17.5749C1.03447 17.3575 0.949378 17.0359 1.03658 16.6697C1.12639 16.2924 1.35713 16.0396 1.55577 15.8802C1.74081 15.7317 1.95576 15.618 2.14648 15.5268C2.52319 15.3386 2.90613 15.1599 3.27508 14.9877L3.28102 14.9849C3.65879 14.8086 4.02209 14.639 4.37525 14.4624C4.6378 14.3311 4.90075 14.1847 5.18873 14.0243C5.25811 13.9856 5.32893 13.9462 5.40155 13.9059C5.76271 13.7058 6.15916 13.4914 6.56966 13.3111Z" fill="black"/>
<path fill-rule="evenodd" clip-rule="evenodd" d="M8.52403 17.283C8.64383 16.7439 9.17801 16.404 9.71714 16.5238L14.2171 17.5238C14.7563 17.6436 15.0962 18.1778 14.9764 18.7169C14.8566 19.256 14.3224 19.596 13.7833 19.4762L9.28328 18.4762C8.74415 18.3563 8.40422 17.8222 8.52403 17.283Z" fill="black"/>
<path fill-rule="evenodd" clip-rule="evenodd" d="M13.9997 3C11.7908 3 10 4.7908 10 7.00004C10 9.20929 11.7908 11.0001 13.9997 11.0001C16.2086 11.0001 17.9994 9.20929 17.9994 7.00004C17.9994 4.7908 16.2086 3 13.9997 3ZM8 7.00004C8 3.68637 10.6861 1 13.9997 1C17.3133 1 19.9994 3.68637 19.9994 7.00004C19.9994 10.3137 17.3133 13.0001 13.9997 13.0001C10.6861 13.0001 8 10.3137 8 7.00004Z" fill="black"/>
<path fill-rule="evenodd" clip-rule="evenodd" d="M14 4.5C14.5523 4.5 15 4.94772 15 5.5V8.5C15 9.05228 14.5523 9.5 14 9.5C13.4477 9.5 13 9.05228 13 8.5V5.5C13 4.94772 13.4477 4.5 14 4.5Z" fill="black"/>
</svg>
