<svg  viewBox="0 0 24 24" fill="none" xmlns="http://www.w3.org/2000/svg">
<path fill-rule="evenodd" clip-rule="evenodd" d="M6.63052 5.25553C6.46286 4.62119 6.9412 4 7.59732 4L16.3689 4C17.0302 4 17.5094 4.63042 17.3324 5.26761L17.3036 5.37124C17.2545 5.36383 17.2043 5.35999 17.1531 5.35999L6.65813 5.35999L6.63052 5.25553ZM7.22164 7.35999C7.44597 7.85974 7.82985 8.28755 8.3338 8.58626L11.521 10.4205C11.8245 10.5952 12.1972 10.5984 12.5036 10.429L15.4716 8.78833C16.0451 8.45946 16.4931 7.95776 16.7339 7.35999L7.22164 7.35999ZM7.59732 2C5.62897 2 4.19395 3.86357 4.69691 5.76658L5.13356 7.41867C5.44151 8.65006 6.24202 9.67392 7.3214 10.3112L10.2306 11.9854L7.55443 13.4647L7.54259 13.4715C6.43462 14.1038 5.56863 15.1539 5.22618 16.4487L4.74056 18.1972C4.20965 20.1087 5.64722 22 7.63114 22L16.4027 22C18.371 22 19.8061 20.1364 19.3031 18.2334L18.8664 16.5813C18.5585 15.3499 17.758 14.3261 16.6786 13.6888L13.7694 12.0145L16.4456 10.5352L16.4574 10.5285C17.5654 9.89616 18.4314 8.84606 18.7738 7.5513L19.2594 5.80282C19.7904 3.89126 18.3528 2 16.3689 2L7.59732 2ZM12.479 13.5795C12.1755 13.4048 11.8028 13.4016 11.4964 13.571L8.52843 15.2116C7.95492 15.5405 7.50691 16.0422 7.26608 16.64H16.7784C16.554 16.1403 16.1702 15.7124 15.6662 15.4137L12.479 13.5795ZM17.3419 18.64L6.84668 18.64C6.7956 18.64 6.74541 18.6362 6.69639 18.6288L6.66761 18.7324C6.49064 19.3696 6.96984 20 7.63114 20L16.4027 20C17.0588 20 17.5371 19.3788 17.3695 18.7445L17.3419 18.64Z" fill="black"/>
</svg>
