<svg xmlns="http://www.w3.org/2000/svg" fill="none" viewBox="0 0 24 24"><path fill="#000" fill-rule="evenodd" d="M12 4C7.58172 4 4 7.58172 4 12C4 16.4183 7.58172 20 12 20C16.4183 20 20 16.4183 20 12C20 7.58172 16.4183 4 12 4ZM12 2C6.47715 2 2 6.47715 2 12C2 17.5228 6.47715 22 12 22C17.5228 22 22 17.5228 22 12C22 6.47715 17.5228 2 12 2Z" clip-rule="evenodd"/><path fill="#000" fill-rule="evenodd" d="M12 18C11.4477 18 11 17.5523 11 17L11 11C11 10.4477 11.4477 10 12 10C12.5523 10 13 10.4477 13 11L13 17C13 17.5523 12.5523 18 12 18Z" clip-rule="evenodd"/><circle cx="12" cy="7" r="1" fill="#000" transform="rotate(-180 12 7)"/></svg>