<svg  viewBox="0 0 24 24" fill="none" xmlns="http://www.w3.org/2000/svg">
<path fill-rule="evenodd" clip-rule="evenodd" d="M6.67285 6.77295L6.67285 21.0667L21 21.0667L21 6.77295L6.67285 6.77295ZM5.02835 5.12845C5.20624 4.95057 5.49785 4.77295 5.8732 4.77295L21.7996 4.77295C22.175 4.77295 22.4666 4.95057 22.6445 5.12845C22.8224 5.30634 23 5.59795 23 5.97329L23 21.8663C23 22.2417 22.8224 22.5333 22.6445 22.7112C22.4666 22.8891 22.175 23.0667 21.7996 23.0667L5.8732 23.0667C5.49785 23.0667 5.20624 22.8891 5.02835 22.7112C4.85047 22.5333 4.67285 22.2417 4.67285 21.8663L4.67285 5.97329C4.67285 5.59795 4.85047 5.30634 5.02835 5.12845Z" fill="black"/>
<path fill-rule="evenodd" clip-rule="evenodd" d="M3 3L3 16.4256H5.50582C6.05811 16.4256 6.50582 16.8733 6.50582 17.4256C6.50582 17.9779 6.05811 18.4256 5.50582 18.4256H2.6344C1.68087 18.4256 1 17.6428 1 16.7912L1 2.6344C1 1.68087 1.78281 1 2.6344 1L16.9582 1C17.9117 1 18.5926 1.78281 18.5926 2.6344V5.2721C18.5926 5.82438 18.1448 6.2721 17.5926 6.2721C17.0403 6.2721 16.5926 5.82438 16.5926 5.2721V3L3 3Z" fill="black"/>
<path fill-rule="evenodd" clip-rule="evenodd" d="M13.9199 8.21204C14.4722 8.21204 14.9199 8.65975 14.9199 9.21204V10.338C15.4258 10.5198 15.8476 10.8126 16.2109 11.1274C16.6283 11.4891 16.6734 12.1207 16.3117 12.538C15.95 12.9554 15.3184 13.0005 14.9011 12.6388C14.4989 12.2903 14.1894 12.1486 13.8198 12.1486C13.73 12.1486 13.654 12.1836 13.6102 12.2251C13.5902 12.244 13.5764 12.2645 13.567 12.2873C13.558 12.3093 13.5476 12.3472 13.5501 12.4091L13.5507 12.4229L13.5506 12.4229L13.5506 12.4286C13.5502 12.44 13.55 12.4474 13.5841 12.4831C13.6504 12.5525 13.7775 12.6426 14.0235 12.7724C14.0827 12.8037 14.167 12.8458 14.2626 12.8937C14.4514 12.9882 14.6844 13.1047 14.8558 13.2029C15.1501 13.3715 15.5241 13.6202 15.7999 14.0033L15.8077 14.0141L15.8076 14.0141C16.5473 15.0708 16.4348 16.8472 14.9376 17.5334C14.9317 17.5361 14.9258 17.5387 14.9199 17.5414V18.6277C14.9199 19.18 14.4722 19.6277 13.9199 19.6277C13.3676 19.6277 12.9199 19.18 12.9199 18.6277V17.6317C12.9118 17.6295 12.9036 17.6273 12.8955 17.625C12.2963 17.4577 11.7137 17.1427 11.298 16.7515C10.8959 16.373 10.8767 15.7401 11.2552 15.3379C11.6337 14.9358 12.2666 14.9166 12.6688 15.2951C12.8207 15.4381 13.1062 15.6073 13.4335 15.6987C13.7696 15.7926 13.9975 15.7642 14.1043 15.7152C14.185 15.6782 14.2305 15.6206 14.2495 15.5246C14.2714 15.4135 14.2473 15.2767 14.1737 15.1676C14.1459 15.1315 14.0669 15.0559 13.8616 14.9383C13.7212 14.8579 13.6069 14.8015 13.471 14.7345L13.471 14.7344L13.471 14.7344L13.4709 14.7344L13.4709 14.7344C13.3647 14.682 13.2454 14.6232 13.0902 14.5413C12.5717 14.2678 11.5892 13.7029 11.5516 12.4856C11.51 11.4194 12.1345 10.6612 12.9199 10.3318V9.21204C12.9199 8.65975 13.3676 8.21204 13.9199 8.21204Z" fill="black"/>
</svg>
