<svg  viewBox="0 0 24 24" fill="none" xmlns="http://www.w3.org/2000/svg">
<path fill-rule="evenodd" clip-rule="evenodd" d="M11.0075 4C11.007 4 11.0068 4.00001 11.0075 4V4ZM11.3408 4L15.5156 4C15.2004 4.62478 14.8851 5.24727 14.5694 5.87065C14.108 6.78147 13.6456 7.69435 13.1832 8.61564C13.1439 8.68964 13.0813 8.8086 13.0221 8.97578C12.9138 9.28186 12.9608 9.62149 13.1482 9.88664C13.3357 10.1518 13.6401 10.3094 13.9648 10.3094H16.2431C15.0107 11.7849 13.7831 13.2557 12.5557 14.7264C11.6034 15.8675 10.6512 17.0084 9.69673 18.1514C9.73979 17.9638 9.78279 17.7763 9.82575 17.589L9.82607 17.5876C10.0616 16.5607 10.2963 15.5372 10.5392 14.5064C10.6596 14.1892 10.7382 13.8804 10.8095 13.5444C10.8722 13.2494 10.7983 12.9417 10.6084 12.7073C10.4185 12.4729 10.133 12.3367 9.83131 12.3367H7.37743C7.9876 11.0444 8.60288 9.75585 9.21927 8.46501L9.21992 8.46365C9.92824 6.98029 10.638 5.49389 11.3408 4ZM8.5246 14.3367H6.44609C6.13514 14.3367 5.58921 14.2634 5.23965 13.7805C4.87059 13.2707 5.00537 12.711 5.1337 12.4088C5.13856 12.3974 5.14362 12.3861 5.1489 12.3748C5.89861 10.7777 6.65701 9.18947 7.41376 7.60471L7.41447 7.6032C8.17192 6.01696 8.92771 4.43419 9.67438 2.84354C9.68135 2.8287 9.68868 2.81404 9.69636 2.79956C9.78715 2.62855 9.94256 2.38698 10.2216 2.21178C10.5091 2.03134 10.8008 2 11.0072 2L16.4948 2C16.8443 2 17.4098 2.1046 17.737 2.63284C18.0649 3.16225 17.9048 3.71199 17.7409 4.02702C17.2783 4.94877 16.8157 5.86193 16.3541 6.77321L16.3536 6.77438C16.0944 7.28607 15.8355 7.79716 15.5768 8.30942H17.5282C17.7059 8.30942 18.4863 8.31967 18.8434 9.04793C19.036 9.39776 19.0382 9.77411 18.919 10.0924C18.8325 10.323 18.682 10.5076 18.6391 10.5602C18.6358 10.5643 18.6331 10.5676 18.6312 10.57L18.6163 10.5883C17.1021 12.4003 15.5967 14.204 14.0912 16.0079L14.087 16.013C12.5869 17.8103 11.0866 19.608 9.5774 21.414C9.39125 21.6516 9.10966 21.8877 8.72209 21.9707C8.30554 22.0598 7.92168 21.9384 7.63759 21.7288C7.37568 21.5391 7.19175 21.267 7.12677 20.9405C7.07197 20.6653 7.1188 20.4236 7.1427 20.311L7.14761 20.2891C7.39621 19.2355 7.63604 18.1898 7.87668 17.1405L7.87705 17.1389C8.09034 16.2089 8.30427 15.2761 8.5246 14.3367ZM9.0975 20.7343C9.09635 20.7403 9.09602 20.743 9.09616 20.7429C9.0963 20.7427 9.09699 20.7393 9.09779 20.733C9.09769 20.7334 9.0976 20.7338 9.0975 20.7343ZM17.1012 9.28017C17.1012 9.2801 17.1012 9.28013 17.1012 9.28017V9.28017Z" fill="black"/>
</svg>
