<svg  viewBox="0 0 24 24" fill="none" xmlns="http://www.w3.org/2000/svg">
<path fill-rule="evenodd" clip-rule="evenodd" d="M21.9241 2.61722C21.8757 2.50014 21.804 2.3904 21.7092 2.29502C21.7078 2.2936 21.7064 2.29219 21.705 2.29078C21.5242 2.11106 21.2751 2 21 2H20.9998H12C11.4477 2 11 2.44772 11 3C11 3.55228 11.4477 4 12 4H18.5858L8.79289 13.7929C8.40237 14.1834 8.40237 14.8166 8.79289 15.2071C9.18342 15.5976 9.81658 15.5976 10.2071 15.2071L20 5.41421V12C20 12.5523 20.4477 13 21 13C21.5523 13 22 12.5523 22 12V3.00069V3C22 2.999 22 2.998 22 2.997C21.9996 2.8625 21.9727 2.73425 21.9241 2.61722Z" fill="black"/>
<path fill-rule="evenodd" clip-rule="evenodd" d="M2 4C2 3.44772 2.44772 3 3 3H7C7.55228 3 8 3.44772 8 4C8 4.55228 7.55228 5 7 5H4V20H19V17C19 16.4477 19.4477 16 20 16C20.5523 16 21 16.4477 21 17V21C21 21.5523 20.5523 22 20 22H3C2.44772 22 2 21.5523 2 21L2 4Z" fill="black"/>
</svg>
