<svg width="14" height="14" viewBox="0 0 14 14" fill="none" xmlns="http://www.w3.org/2000/svg">
<path d="M3.13138 14H0.228013V4.65144H3.13138V14ZM1.6797 3.37249C0.752443 3.37249 0 2.61881 0 1.68244C0 0.753671 0.752443 0 1.6797 0C2.60695 0 3.35939 0.753671 3.35939 1.68244C3.36699 2.61881 2.61455 3.37249 1.6797 3.37249ZM14 14H11.0966V9.45514C11.0966 8.37412 11.0814 6.97336 9.59175 6.97336C8.07926 6.97336 7.85125 8.15334 7.85125 9.3714V13.9924H4.95548V4.65144H7.73724V5.9304H7.77524C8.16287 5.19195 9.10532 4.42306 10.519 4.42306C13.4528 4.42306 14 6.35672 14 8.87656V14Z" fill="#1E2A33"/>
</svg>
