<svg xmlns="http://www.w3.org/2000/svg" fill="none" viewBox="0 0 24 24"><path fill="#000" fill-rule="evenodd" d="M1 3C1 2.44772 1.44772 2 2 2H22C22.5523 2 23 2.44772 23 3V9V15V21C23 21.5523 22.5523 22 22 22H2C1.44772 22 1 21.5523 1 21V15V9V3ZM3 16V20H21V16H3ZM3 10V14H21V10H3ZM3 4V8H21V4H3ZM8 6C8 5.44772 8.44772 5 9 5H19C19.5523 5 20 5.44772 20 6C20 6.55228 19.5523 7 19 7H9C8.44772 7 8 6.55228 8 6ZM8 12C8 11.4477 8.44772 11 9 11H19C19.5523 11 20 11.4477 20 12C20 12.5523 19.5523 13 19 13H9C8.44772 13 8 12.5523 8 12ZM8 18C8 17.4477 8.44772 17 9 17H19C19.5523 17 20 17.4477 20 18C20 18.5523 19.5523 19 19 19H9C8.44772 19 8 18.5523 8 18ZM5 7C5.55228 7 6 6.55228 6 6C6 5.44772 5.55228 5 5 5C4.44772 5 4 5.44772 4 6C4 6.55228 4.44772 7 5 7ZM6 12C6 12.5523 5.55228 13 5 13C4.44772 13 4 12.5523 4 12C4 11.4477 4.44772 11 5 11C5.55228 11 6 11.4477 6 12ZM5 19C5.55228 19 6 18.5523 6 18C6 17.4477 5.55228 17 5 17C4.44772 17 4 17.4477 4 18C4 18.5523 4.44772 19 5 19Z" clip-rule="evenodd"/></svg>