<svg  viewBox="0 0 24 24" fill="none" xmlns="http://www.w3.org/2000/svg">
<path fill-rule="evenodd" clip-rule="evenodd" d="M8 6C8 5.44772 8.44772 5 9 5L19 5C19.5523 5 20 5.44772 20 6C20 6.55228 19.5523 7 19 7L9 7C8.44772 7 8 6.55228 8 6Z" fill="black"/>
<path fill-rule="evenodd" clip-rule="evenodd" d="M8 12C8 11.4477 8.44772 11 9 11L19 11C19.5523 11 20 11.4477 20 12C20 12.5523 19.5523 13 19 13L9 13C8.44772 13 8 12.5523 8 12Z" fill="black"/>
<path fill-rule="evenodd" clip-rule="evenodd" d="M8 18C8 17.4477 8.44772 17 9 17H19C19.5523 17 20 17.4477 20 18C20 18.5523 19.5523 19 19 19H9C8.44772 19 8 18.5523 8 18Z" fill="black"/>
<path d="M6 6C6 6.55228 5.55228 7 5 7C4.44772 7 4 6.55228 4 6C4 5.44772 4.44772 5 5 5C5.55228 5 6 5.44772 6 6Z" fill="black"/>
<path d="M6 12C6 12.5523 5.55228 13 5 13C4.44772 13 4 12.5523 4 12C4 11.4477 4.44772 11 5 11C5.55228 11 6 11.4477 6 12Z" fill="black"/>
<path d="M6 18C6 18.5523 5.55228 19 5 19C4.44772 19 4 18.5523 4 18C4 17.4477 4.44772 17 5 17C5.55228 17 6 17.4477 6 18Z" fill="black"/>
</svg>
