<svg  viewBox="0 0 24 24" fill="none" xmlns="http://www.w3.org/2000/svg">
<path fill-rule="evenodd" clip-rule="evenodd" d="M21.6963 2.28228C21.9802 2.55764 22.0751 2.97441 21.9384 3.34552C20.1091 8.31434 18.2593 13.2428 16.4072 18.1774C16.0103 19.2349 15.6133 20.2926 15.2163 21.3512C15.097 21.6695 14.824 21.9054 14.4917 21.9774C14.255 22.0286 14.0112 21.9917 13.8036 21.8793C13.544 21.7603 13.3407 21.5325 13.2585 21.2448C13.2021 21.0476 13.1381 20.8411 13.07 20.6214L13.0683 20.616C13.0027 20.4049 12.9333 20.1812 12.8708 19.9629C12.5114 18.7796 12.1519 17.589 11.7928 16.3994L11.7923 16.3979C11.4693 15.3278 11.1465 14.2585 10.8237 13.1948C9.81689 12.9669 8.80451 12.739 7.79147 12.5109L7.79035 12.5106C6.65869 12.2558 5.52622 12.0008 4.40111 11.7458C4.40039 11.7456 4.39968 11.7455 4.39896 11.7453L4.39233 11.7438C3.85951 11.6254 3.29786 11.5006 2.73237 11.3435C2.3224 11.2297 2.02939 10.8688 2.00208 10.4442C1.97476 10.0196 2.21913 9.6242 2.61113 9.45873C8.58933 6.93527 14.596 4.50262 20.6262 2.07251C20.993 1.92469 21.4125 2.00692 21.6963 2.28228ZM6.23091 10.1091C6.89587 10.2591 7.5625 10.4092 8.22941 10.5594C9.35848 10.8136 10.4887 11.0681 11.6113 11.3225C11.7849 11.3589 12.0238 11.4372 12.2414 11.6351C12.4504 11.825 12.5491 12.0452 12.5985 12.1686C12.6091 12.1951 12.6185 12.222 12.6268 12.2493C12.9871 13.4352 13.3473 14.6284 13.7072 15.8206C13.9226 16.534 14.1379 17.2473 14.3531 17.9585C14.4139 17.7965 14.4747 17.6345 14.5355 17.4726C16.1238 13.2408 17.7085 9.01862 19.28 4.77193C14.9121 6.53505 10.563 8.30242 6.23091 10.1091Z" fill="black"/>
</svg>
