<svg  viewBox="0 0 24 24" fill="none" xmlns="http://www.w3.org/2000/svg">
<path fill-rule="evenodd" clip-rule="evenodd" d="M12 20L10.7506 21.5617C11.4566 22.1265 12.4537 22.1475 13.1827 21.6128L12 20ZM12 20C12 20 18 15.6 18 9.6C18 6.50721 15.3137 4 12 4C8.68629 4 6 6.50721 6 9.6C6 15.2 12 20 12 20ZM12 20C13.1827 21.6128 13.1833 21.6124 13.1838 21.612L13.1851 21.6111L13.1879 21.609L13.1954 21.6035L13.2167 21.5876C13.2337 21.5748 13.2564 21.5577 13.2842 21.5363C13.34 21.4936 13.4168 21.4337 13.5117 21.3573C13.7013 21.2048 13.964 20.9856 14.2754 20.7053C14.8959 20.1469 15.7229 19.3341 16.5535 18.3096C18.1831 16.2997 20 13.26 20 9.6C20 5.27491 16.2861 2 12 2C7.71393 2 4 5.27491 4 9.6C4 13.0757 5.83463 16.1182 7.43023 18.1393C8.25161 19.1797 9.06883 20.0237 9.68078 20.6085C9.98795 20.902 10.2465 21.1332 10.4323 21.2942C10.5253 21.3748 10.6003 21.438 10.6543 21.4828C10.6813 21.5053 10.703 21.5232 10.7192 21.5363L10.7392 21.5526L10.746 21.5581L10.7486 21.5601L10.7497 21.561C10.7502 21.5614 10.7506 21.5617 12 20ZM13 10C13 10.5523 12.5523 11 12 11C11.4477 11 11 10.5523 11 10C11 9.44772 11.4477 9 12 9C12.5523 9 13 9.44772 13 10ZM15 10C15 11.6569 13.6569 13 12 13C10.3431 13 9 11.6569 9 10C9 8.34315 10.3431 7 12 7C13.6569 7 15 8.34315 15 10Z" fill="black"/>
</svg>
