<svg xmlns="http://www.w3.org/2000/svg" fill="none" viewBox="0 0 24 24"><path fill="#000" fill-rule="evenodd" d="M10.7506 21.5617L12 20L13.1827 21.6128C12.4537 22.1475 11.4566 22.1265 10.7506 21.5617ZM12 20C12 20 6 15.2 6 9.6C6 6.50721 8.68629 4 12 4C15.3137 4 18 6.50721 18 9.6C18 15.6 12 20 12 20ZM13.1838 21.612C13.1833 21.6124 13.1827 21.6128 12 20C10.7506 21.5617 10.7502 21.5614 10.7497 21.561L10.7486 21.5601L10.746 21.5581L10.7392 21.5526L10.7192 21.5363C10.703 21.5232 10.6813 21.5053 10.6543 21.4828C10.6003 21.438 10.5253 21.3748 10.4323 21.2942C10.2465 21.1332 9.98795 20.902 9.68078 20.6085C9.06883 20.0237 8.25161 19.1797 7.43023 18.1393C5.83463 16.1182 4 13.0757 4 9.6C4 5.27491 7.71393 2 12 2C16.2861 2 20 5.27491 20 9.6C20 13.26 18.1831 16.2997 16.5535 18.3096C15.7229 19.3341 14.8959 20.1469 14.2754 20.7053C13.964 20.9856 13.7013 21.2048 13.5117 21.3573C13.4168 21.4337 13.34 21.4936 13.2842 21.5363C13.2564 21.5577 13.2337 21.5748 13.2167 21.5876L13.1954 21.6035L13.1879 21.609L13.1851 21.6111L13.1838 21.612Z" clip-rule="evenodd"/><path fill="#000" fill-rule="evenodd" d="M12 7C12.5523 7 13 7.44772 13 8V14C13 14.5523 12.5523 15 12 15C11.4477 15 11 14.5523 11 14V8C11 7.44772 11.4477 7 12 7Z" clip-rule="evenodd"/><path fill="#000" fill-rule="evenodd" d="M16 11C16 11.5523 15.5523 12 15 12L9 12C8.44772 12 8 11.5523 8 11C8 10.4477 8.44772 10 9 10L15 10C15.5523 10 16 10.4477 16 11Z" clip-rule="evenodd"/></svg>