<svg  viewBox="0 0 24 24" fill="none" xmlns="http://www.w3.org/2000/svg">
<path fill-rule="evenodd" clip-rule="evenodd" d="M15.7071 5.29289C15.3166 4.90237 14.6834 4.90237 14.2929 5.29289C13.9024 5.68342 13.9024 6.31658 14.2929 6.70711L18.5858 11L7 11C6.44772 11 6 11.4477 6 12C6 12.5523 6.44772 13 7 13L18.5858 13L14.2929 17.2929C13.9024 17.6834 13.9024 18.3166 14.2929 18.7071C14.6834 19.0976 15.3166 19.0976 15.7071 18.7071L21.7071 12.7071C22.0976 12.3166 22.0976 11.6834 21.7071 11.2929L15.7071 5.29289Z" fill="black"/>
<path fill-rule="evenodd" clip-rule="evenodd" d="M2 4C2 3.44772 2.44772 3 3 3L11 3C11.5523 3 12 3.44772 12 4C12 4.55228 11.5523 5 11 5L4 5L4 19H11C11.5523 19 12 19.4477 12 20C12 20.5523 11.5523 21 11 21H3C2.44772 21 2 20.5523 2 20L2 4Z" fill="black"/>
</svg>
