<svg xmlns="http://www.w3.org/2000/svg" fill="none" viewBox="0 0 24 24"><path fill="#000" fill-rule="evenodd" d="M3 10.6657C3 6.42219 6.4051 2.99835 10.5856 2.99835C14.7661 2.99835 18.1712 6.4222 18.1712 10.6657C18.1712 14.9093 14.7661 18.3331 10.5856 18.3331C6.4051 18.3331 3 14.9093 3 10.6657ZM10.5856 0.998352C5.28269 0.998352 1 5.33555 1 10.6657C1 15.9959 5.28269 20.3331 10.5856 20.3331C12.9132 20.3331 15.0443 19.4975 16.7029 18.1091L21.2923 22.7065C21.6825 23.0974 22.3156 23.098 22.7065 22.7078C23.0974 22.3176 23.0979 21.6844 22.7077 21.2936L18.0958 16.6735C19.3956 15.0226 20.1712 12.9341 20.1712 10.6657C20.1712 5.33555 15.8885 0.998352 10.5856 0.998352ZM9.18799 5.33203C9.74027 5.33203 10.188 5.77975 10.188 6.33203L10.188 14.0994C10.188 14.6516 9.74027 15.0994 9.18799 15.0994C8.6357 15.0994 8.18799 14.6516 8.18799 14.0994L8.18799 6.33203C8.18799 5.77975 8.6357 5.33203 9.18799 5.33203ZM15.4121 7.8988C15.4121 7.34652 14.9644 6.8988 14.4121 6.8988C13.8598 6.8988 13.4121 7.34652 13.4121 7.8988V14.0993C13.4121 14.6516 13.8598 15.0993 14.4121 15.0993C14.9644 15.0993 15.4121 14.6516 15.4121 14.0993V7.8988ZM11.8496 8.43237C12.4019 8.43237 12.8496 8.88009 12.8496 9.43237V14.0994C12.8496 14.6517 12.4019 15.0994 11.8496 15.0994C11.2973 15.0994 10.8496 14.6517 10.8496 14.0994V9.43237C10.8496 8.88009 11.2973 8.43237 11.8496 8.43237ZM7.625 10.9991C7.625 10.4468 7.17728 9.99908 6.625 9.99908C6.07272 9.99908 5.625 10.4468 5.625 10.9991V14.0994C5.625 14.6516 6.07272 15.0994 6.625 15.0994C7.17728 15.0994 7.625 14.6516 7.625 14.0994V10.9991Z" clip-rule="evenodd"/></svg>