<svg  viewBox="0 0 24 24" fill="none" xmlns="http://www.w3.org/2000/svg">
<path fill-rule="evenodd" clip-rule="evenodd" d="M15.3003 2C14.748 2 14.3003 2.44772 14.3003 3V3.5564V5.84725V6.67999L7.92592 6.67999C7.6343 6.63685 7.33622 6.6145 7.03334 6.6145C3.73177 6.6145 1 9.27044 1 12.5563L1 20.6072C1 21.4058 1.63174 21.9999 2.4 21.9999H6.8588L6.8667 22L20.5667 22C21.9316 22 23.0001 20.885 23.0001 19.56L23.0001 12.1636C23.0001 9.59381 21.2496 7.44741 18.8813 6.84725H20.0336C20.5859 6.84725 21.0336 6.39954 21.0336 5.84725V3C21.0336 2.44772 20.5859 2 20.0336 2L15.3003 2ZM16.3003 4.84725L19.0336 4.84725V4H16.3003V4.84725ZM14.3003 14.4218V8.67999H11.5974C12.5108 9.71991 13.0667 11.074 13.0667 12.5563L13.0667 20H20.5667C20.8018 20 21.0001 19.8058 21.0001 19.56L21.0001 12.1636C21.0001 10.2267 19.4458 8.67999 17.5334 8.67999H16.3003V12.4729C17.3677 12.491 18.2002 13.3721 18.2002 14.4217C18.2002 15.4823 17.3503 16.3708 16.2668 16.3708C15.308 16.3708 14.5322 15.675 14.3663 14.7799C14.3237 14.6687 14.3003 14.548 14.3003 14.4218ZM16.3003 14.4218C16.3003 14.4365 16.3 14.4511 16.2994 14.4656C16.3088 14.4614 16.3154 14.4563 16.3199 14.4518C16.3291 14.4424 16.3335 14.4301 16.3335 14.4217C16.3335 14.4134 16.3291 14.4011 16.3199 14.3917C16.3156 14.3873 16.3093 14.3824 16.3003 14.3783V14.4218ZM3 12.5563C3 10.4095 4.80157 8.6145 7.03334 8.6145C9.26511 8.6145 11.0667 10.4095 11.0667 12.5563V12.6036L5 12.6036C4.44772 12.6036 4 13.0514 4 13.6036L4 19.9999H3L3 12.5563ZM6 19.8691L6 14.6036L10.9667 14.6036L10.9667 19.8691H6Z" fill="black"/>
</svg>
