<svg xmlns="http://www.w3.org/2000/svg" fill="none" viewBox="0 0 24 24"><path fill="#000" fill-rule="evenodd" d="M3.00195 7.85822L3.00195 20.8987L21.0004 20.8987L21.0004 10.0382L17.2044 11.7882C16.3717 12.1882 15.4767 11.5429 15.4767 10.6849V10.0102L11.7948 11.8146C10.9647 12.2256 10.0676 11.5913 10.053 10.7393L10.0288 9.94027L5.7745 11.8624C5.46502 12.0022 5.10574 11.9754 4.82042 11.7913C4.53511 11.6071 4.36276 11.2907 4.36276 10.9511L4.36276 7.85822H3.00195ZM11.5936 9.16255C11.5027 9.25346 11.4056 9.31845 11.307 9.36273C11.4135 9.31336 11.5105 9.2456 11.5936 9.16255ZM16.8047 9.35943C16.9008 9.31525 16.9953 9.25123 17.084 9.16255C17.0061 9.24045 16.9159 9.30494 16.8169 9.35341L16.8047 9.35943ZM22.6077 9.22909C22.5165 9.32023 22.4193 9.38532 22.3204 9.4296C22.4272 9.38019 22.5245 9.31232 22.6077 9.22909ZM1.00692 7.39095C1.08215 6.6386 1.70055 5.85822 2.66746 5.85822L4.73052 5.85822C5.64833 5.85822 6.36276 6.63876 6.36276 7.52372L6.36276 9.40196L10.3953 7.58001C10.7795 7.35407 11.2114 7.44265 11.4632 7.5937C11.7797 7.78353 11.9781 8.12437 11.986 8.49875L12.0157 9.47907L15.8641 7.59311C16.2536 7.35075 16.697 7.43981 16.9536 7.5937C17.2767 7.78745 17.4767 8.13851 17.4767 8.52198V9.46039L21.4041 7.64972C21.7898 7.41961 22.2248 7.50866 22.4776 7.66043C22.8005 7.85421 23.0004 8.20514 23.0004 8.58856L23.0004 21.2332C23.0004 22.083 22.3526 22.8987 21.3682 22.8987L2.63418 22.8987C1.71635 22.8987 1.00195 22.1181 1.00195 21.2332L1.00195 7.49045C1.00195 7.45722 1.00361 7.42402 1.00692 7.39095Z" clip-rule="evenodd"/><path fill="#000" fill-rule="evenodd" d="M6.39551 16.0107V17.6377H6.89116V16.0107H6.39551ZM4.73 14.3452C4.89528 14.1799 5.17008 14.0107 5.52862 14.0107H7.75806C8.11661 14.0107 8.39142 14.1799 8.55671 14.3452C8.72199 14.5105 8.89116 14.7853 8.89116 15.1438V18.5046C8.89116 18.8631 8.72199 19.1379 8.55671 19.3032C8.39142 19.4685 8.11661 19.6377 7.75806 19.6377H5.52862C5.17008 19.6377 4.89528 19.4685 4.73 19.3032C4.56472 19.1379 4.39551 18.8631 4.39551 18.5046L4.39551 15.1438C4.39551 14.7853 4.56472 14.5105 4.73 14.3452Z" clip-rule="evenodd"/><path fill="#000" fill-rule="evenodd" d="M11.9858 16.0107V17.6377H12.4815V16.0107H11.9858ZM10.3203 14.3452C10.4856 14.1799 10.7604 14.0107 11.1189 14.0107H13.3484C13.7069 14.0107 13.9818 14.1799 14.147 14.3452C14.3123 14.5105 14.4815 14.7853 14.4815 15.1438V18.5046C14.4815 18.8631 14.3123 19.1379 14.147 19.3032C13.9818 19.4685 13.7069 19.6377 13.3484 19.6377H11.1189C10.7604 19.6377 10.4856 19.4685 10.3203 19.3032C10.155 19.1379 9.98584 18.8631 9.98584 18.5046V15.1438C9.98584 14.7853 10.155 14.5105 10.3203 14.3452Z" clip-rule="evenodd"/><path fill="#000" fill-rule="evenodd" d="M17.4097 16.0107V17.6377H17.9053V16.0107H17.4097ZM15.7441 14.3452C15.9094 14.1799 16.1842 14.0107 16.5428 14.0107H18.7722C19.1308 14.0107 19.4056 14.1799 19.5709 14.3452C19.7362 14.5105 19.9053 14.7853 19.9053 15.1438V18.5046C19.9053 18.8631 19.7362 19.1379 19.5709 19.3032C19.4056 19.4685 19.1308 19.6377 18.7722 19.6377H16.5428C16.1842 19.6377 15.9094 19.4685 15.7441 19.3032C15.5788 19.1379 15.4097 18.8631 15.4097 18.5046V15.1438C15.4097 14.7853 15.5788 14.5105 15.7441 14.3452Z" clip-rule="evenodd"/><path fill="#000" fill-rule="evenodd" d="M1.46496 2.12818C1.91605 1.49283 2.69128 1 3.5656 1C4.78909 1 6.0824 1.95276 6.09615 3.4729C6.11998 4.07841 5.90546 4.50538 5.71059 4.80083C5.66693 4.86703 5.62331 4.92807 5.59109 4.97315L5.59042 4.97409C5.55468 5.0241 5.53233 5.05544 5.51258 5.08515C5.4997 5.10451 5.49171 5.11775 5.48704 5.12589C5.42859 5.38536 5.45671 5.70376 5.53272 6.02437C5.57043 6.18341 5.61475 6.32243 5.65241 6.43539C5.65592 6.44594 5.65996 6.45796 5.66428 6.47082C5.67858 6.51335 5.69595 6.56506 5.70765 6.60296C5.71447 6.62504 5.7316 6.68079 5.74434 6.745C5.74986 6.77285 5.76426 6.84837 5.76499 6.94426C5.76535 6.99252 5.76287 7.08168 5.73696 7.18944C5.71258 7.29086 5.64886 7.4869 5.47062 7.66514C5.28308 7.85267 5.02873 7.95803 4.76351 7.95803L2.63389 7.95803C2.30207 7.95803 1.99186 7.79343 1.80583 7.51866C1.6198 7.24389 1.58218 6.89473 1.70542 6.58664C1.7045 6.58894 1.70473 6.58813 1.70593 6.58387C1.70988 6.56992 1.72434 6.51886 1.74325 6.41861C1.76505 6.30303 1.78558 6.16142 1.80223 6.01156C1.83787 5.6908 1.84454 5.43546 1.83791 5.35448C1.83118 5.34496 1.82008 5.33015 1.80258 5.30882C1.78189 5.2836 1.75755 5.25562 1.72317 5.21675C1.71792 5.21082 1.7123 5.20447 1.70637 5.19778C1.67729 5.16498 1.64089 5.12391 1.60568 5.08274C1.51822 4.98049 1.40601 4.84119 1.30426 4.66677L1.29795 4.65595L1.29802 4.65591C0.78293 3.74693 0.997358 2.78678 1.46496 2.12818ZM1.83576 5.32752L1.83595 5.32992L1.83576 5.32752ZM3.03505 3.66444C3.05016 3.68931 3.07534 3.72404 3.12555 3.78274C3.13129 3.78946 3.1455 3.80559 3.16444 3.82709C3.21585 3.88545 3.30213 3.98339 3.34875 4.0402C3.43314 4.14306 3.52807 4.27081 3.61155 4.42692C3.68282 4.23781 3.77459 4.08687 3.84704 3.9779C3.88655 3.91848 3.9272 3.86162 3.9574 3.81938C3.9594 3.81658 3.96135 3.81385 3.96326 3.81119C3.99739 3.76342 4.02054 3.73074 4.04104 3.69965C4.10062 3.60932 4.09986 3.59417 4.09759 3.54896L4.09751 3.54733C4.09668 3.53069 4.09626 3.51404 4.09626 3.49739C4.09626 3.35015 4.03918 3.23748 3.94366 3.15027C3.83774 3.05356 3.69448 3 3.5656 3C3.44166 3 3.23526 3.08949 3.09573 3.28602C2.97517 3.45581 2.98693 3.57569 3.03505 3.66444ZM3.79662 7.19286C3.79812 7.19769 3.79778 7.19695 3.79632 7.19188L3.79662 7.19286Z" clip-rule="evenodd"/></svg>