<svg xmlns="http://www.w3.org/2000/svg" fill="none" viewBox="0 0 24 24"><path fill="#000" fill-rule="evenodd" d="M21.5848 2.18876C21.8455 2.37672 22.0001 2.67856 22.0001 3.00001L22.0001 18.93C22.0001 19.362 21.7226 19.7452 21.3122 19.8801L15.3182 21.8491C15.0709 22.0029 14.7675 22.042 14.4876 21.9532L9.05654 20.2304L3.1683 21.2357C2.87786 21.2853 2.58033 21.2043 2.35513 21.0143C2.12994 20.8243 2 20.5446 2 20.25L2 4.31997C2 3.83262 2.35131 3.41625 2.8317 3.33423L8.98172 2.28423C9.04777 2.27295 9.11418 2.26843 9.18003 2.27041C9.29283 2.26702 9.40677 2.28271 9.51696 2.31826L14.785 4.01761L20.6838 2.05132C20.9888 1.94967 21.324 2.00081 21.5848 2.18876ZM15.79 5.79078L15.79 19.589L20.0001 18.2059L20.0001 4.38743L15.79 5.79078ZM10.21 4.64329L10.21 18.4981L13.79 19.6337L13.79 5.79813L10.21 4.64329ZM4 19.0648L4 5.16371L8.15002 4.45517L8.15002 18.3562L4 19.0648Z" clip-rule="evenodd"/></svg>