<svg  viewBox="0 0 24 24" fill="none" xmlns="http://www.w3.org/2000/svg">
<path fill-rule="evenodd" clip-rule="evenodd" d="M8.89648 7V5L14.9276 5V7H8.89648ZM6.89648 7L6.89648 4.36922C6.89648 3.61941 7.47746 3 8.25879 3L15.5653 3C16.3466 3 16.9276 3.61945 16.9276 4.36922V7L20.4263 7C21.3621 7 22 7.77741 22 8.5846L22 19.4154C22 20.2574 21.2983 21 20.4263 21L3.45841 21C2.52261 21 1.88477 20.2225 1.88477 19.4154L1.88477 8.5846C1.88477 7.67747 2.62073 7 3.45841 7L6.89648 7ZM15.9578 9L7.89648 9H3.88477L3.88477 19L20 19L20 9H15.9578ZM7.68164 14C7.68164 13.4477 8.12936 13 8.68164 13H10.9419V11.0153C10.9419 10.463 11.3896 10.0153 11.9419 10.0153C12.4942 10.0153 12.9419 10.463 12.9419 11.0153V13H15.2031C15.7554 13 16.2031 13.4477 16.2031 14C16.2031 14.5523 15.7554 15 15.2031 15H12.9419V17.0153C12.9419 17.5676 12.4942 18.0153 11.9419 18.0153C11.3896 18.0153 10.9419 17.5676 10.9419 17.0153V15H8.68164C8.12936 15 7.68164 14.5523 7.68164 14Z" fill="black"/>
</svg>
