<svg xmlns="http://www.w3.org/2000/svg" fill="none" viewBox="0 0 24 24"><path fill="#000" fill-rule="evenodd" d="M12.25 5C8.24594 5 5 8.24594 5 12.25C5 16.2541 8.24594 19.5 12.25 19.5C16.2541 19.5 19.5 16.2541 19.5 12.25C19.5 8.24594 16.2541 5 12.25 5ZM3 12.25C3 7.14137 7.14137 3 12.25 3C17.3586 3 21.5 7.14137 21.5 12.25C21.5 17.3586 17.3586 21.5 12.25 21.5C7.14137 21.5 3 17.3586 3 12.25Z" clip-rule="evenodd"/><path fill="#000" d="M8.3998 13.35C9.00732 13.35 9.4998 12.8575 9.4998 12.25C9.4998 11.6425 9.00732 11.15 8.3998 11.15C7.79229 11.15 7.2998 11.6425 7.2998 12.25C7.2998 12.8575 7.79229 13.35 8.3998 13.35Z"/><path fill="#000" d="M12.2499 13.3775C12.8574 13.3775 13.3499 12.885 13.3499 12.2775C13.3499 11.67 12.8574 11.1775 12.2499 11.1775C11.6424 11.1775 11.1499 11.67 11.1499 12.2775C11.1499 12.885 11.6424 13.3775 12.2499 13.3775Z"/><path fill="#000" d="M16.1 13.35C16.7075 13.35 17.2 12.8575 17.2 12.25C17.2 11.6425 16.7075 11.15 16.1 11.15C15.4925 11.15 15 11.6425 15 12.25C15 12.8575 15.4925 13.35 16.1 13.35Z"/></svg>