<svg xmlns="http://www.w3.org/2000/svg" fill="none" viewBox="0 0 24 24"><path fill="#000" fill-rule="evenodd" d="M4 6C4 5.44772 4.44772 5 5 5L19 5C19.5523 5 20 5.44772 20 6C20 6.55228 19.5523 7 19 7L5 7C4.44772 7 4 6.55228 4 6Z" clip-rule="evenodd"/><path fill="#000" fill-rule="evenodd" d="M4 12C4 11.4477 4.44772 11 5 11L19 11C19.5523 11 20 11.4477 20 12C20 12.5523 19.5523 13 19 13L5 13C4.44772 13 4 12.5523 4 12Z" clip-rule="evenodd"/><path fill="#000" fill-rule="evenodd" d="M4 18C4 17.4477 4.44772 17 5 17L19 17C19.5523 17 20 17.4477 20 18C20 18.5523 19.5523 19 19 19L5 19C4.44772 19 4 18.5523 4 18Z" clip-rule="evenodd"/></svg>