<svg  viewBox="0 0 24 24" fill="none" xmlns="http://www.w3.org/2000/svg">
<path fill-rule="evenodd" clip-rule="evenodd" d="M14 7C14 6.44772 13.5523 6 13 6L3 6C2.44771 6 2 6.44772 2 7C2 7.55228 2.44771 8 3 8L13 8C13.5523 8 14 7.55228 14 7Z" fill="black"/>
<path fill-rule="evenodd" clip-rule="evenodd" d="M14 12C14 11.4477 13.5523 11 13 11L3 11C2.44771 11 2 11.4477 2 12C2 12.5523 2.44771 13 3 13L13 13C13.5523 13 14 12.5523 14 12Z" fill="black"/>
<path fill-rule="evenodd" clip-rule="evenodd" d="M14 17C14 16.4477 13.5523 16 13 16H3C2.44771 16 2 16.4477 2 17C2 17.5523 2.44771 18 3 18H13C13.5523 18 14 17.5523 14 17Z" fill="black"/>
<path fill-rule="evenodd" clip-rule="evenodd" d="M16.2929 7.29289C15.9024 7.68342 15.9024 8.31658 16.2929 8.70711L19.5858 12L16.2929 15.2929C15.9024 15.6834 15.9024 16.3166 16.2929 16.7071C16.6834 17.0976 17.3166 17.0976 17.7071 16.7071L21.7071 12.7071C21.8946 12.5196 22 12.2652 22 12C22 11.7348 21.8946 11.4804 21.7071 11.2929L17.7071 7.29289C17.3166 6.90237 16.6834 6.90237 16.2929 7.29289Z" fill="black"/>
</svg>
