<svg  viewBox="0 0 24 24" fill="none" xmlns="http://www.w3.org/2000/svg">
<path fill-rule="evenodd" clip-rule="evenodd" d="M10 7C10 6.44772 10.4477 6 11 6L21 6C21.5523 6 22 6.44772 22 7C22 7.55228 21.5523 8 21 8L11 8C10.4477 8 10 7.55228 10 7Z" fill="black"/>
<path fill-rule="evenodd" clip-rule="evenodd" d="M10 12C10 11.4477 10.4477 11 11 11L21 11C21.5523 11 22 11.4477 22 12C22 12.5523 21.5523 13 21 13L11 13C10.4477 13 10 12.5523 10 12Z" fill="black"/>
<path fill-rule="evenodd" clip-rule="evenodd" d="M10 17C10 16.4477 10.4477 16 11 16L21 16C21.5523 16 22 16.4477 22 17C22 17.5523 21.5523 18 21 18H11C10.4477 18 10 17.5523 10 17Z" fill="black"/>
<path fill-rule="evenodd" clip-rule="evenodd" d="M7.70711 7.29289C8.09763 7.68342 8.09763 8.31658 7.70711 8.70711L4.41421 12L7.70711 15.2929C8.09763 15.6834 8.09763 16.3166 7.70711 16.7071C7.31658 17.0976 6.68342 17.0976 6.29289 16.7071L2.29289 12.7071C2.10536 12.5196 2 12.2652 2 12C2 11.7348 2.10536 11.4804 2.29289 11.2929L6.29289 7.29289C6.68342 6.90237 7.31658 6.90237 7.70711 7.29289Z" fill="black"/>
</svg>
