<svg xmlns="http://www.w3.org/2000/svg" fill="none" viewBox="0 0 24 24"><path fill="#000" fill-rule="evenodd" d="M3.77419 4.87946C3.28701 4.87946 3 5.23995 3 5.53507L3 18.211L5.58436 15.8879L20.2258 15.8879C20.7251 15.8879 21 15.5162 21 15.2619L21 5.53507C21 5.22853 20.733 4.87946 20.2258 4.87946L3.77419 4.87946ZM1 5.53507C1 3.99719 2.32589 2.87946 3.77419 2.87946L20.2258 2.87946C21.7186 2.87946 23 4.00861 23 5.53507L23 15.2619C23 16.7814 21.662 17.8879 20.2258 17.8879L6.35112 17.8879L3.28397 20.6449C2.85532 21.0344 2.29172 21.0719 1.86305 20.9072C1.42948 20.7406 1 20.3062 1 19.667L1 5.53507Z" clip-rule="evenodd"/><path fill="#000" d="M7.5 12C8.32843 12 9 11.3285 9 10.5001C9 9.67162 8.32843 9 7.5 9C6.67157 9 6 9.67162 6 10.5001C6 11.3285 6.67157 12 7.5 12Z"/><path fill="#000" d="M12.2422 12C13.0706 12 13.7422 11.3285 13.7422 10.5001C13.7422 9.67162 13.0706 9 12.2422 9C11.4138 9 10.7422 9.67162 10.7422 10.5001C10.7422 11.3285 11.4138 12 12.2422 12Z"/><path fill="#000" d="M16.9839 12C17.8123 12 18.4839 11.3285 18.4839 10.5001C18.4839 9.67162 17.8123 9 16.9839 9C16.1555 9 15.4839 9.67162 15.4839 10.5001C15.4839 11.3285 16.1555 12 16.9839 12Z"/></svg>