<svg width="14" height="14" viewBox="0 0 14 14" fill="none" xmlns="http://www.w3.org/2000/svg">
<path d="M13.4733 6.52667L11.9067 5V2.76C11.9067 2.58319 11.8364 2.41362 11.7114 2.2886C11.5864 2.16357 11.4168 2.09333 11.24 2.09333H9.03333L7.47333 0.526667C7.41136 0.464181 7.33762 0.414585 7.25638 0.380739C7.17515 0.346893 7.08801 0.329468 7 0.329468C6.91199 0.329468 6.82486 0.346893 6.74362 0.380739C6.66238 0.414585 6.58864 0.464181 6.52667 0.526667L5 2.09333H2.76C2.58319 2.09333 2.41362 2.16357 2.2886 2.2886C2.16357 2.41362 2.09333 2.58319 2.09333 2.76V5L0.526667 6.52667C0.464181 6.58864 0.414585 6.66238 0.380739 6.74362C0.346893 6.82486 0.329468 6.91199 0.329468 7C0.329468 7.08801 0.346893 7.17515 0.380739 7.25638C0.414585 7.33762 0.464181 7.41136 0.526667 7.47333L2.09333 9.03333V11.24C2.09333 11.4168 2.16357 11.5864 2.2886 11.7114C2.41362 11.8364 2.58319 11.9067 2.76 11.9067H5L6.56 13.4733C6.62198 13.5358 6.69571 13.5854 6.77695 13.6193C6.85819 13.6531 6.94533 13.6705 7.03333 13.6705C7.12134 13.6705 7.20848 13.6531 7.28972 13.6193C7.37096 13.5854 7.44469 13.5358 7.50667 13.4733L9.06667 11.9067H11.2733C11.4501 11.9067 11.6197 11.8364 11.7447 11.7114C11.8698 11.5864 11.94 11.4168 11.94 11.24V9.03333L13.5067 7.47333C13.567 7.40918 13.6141 7.33371 13.6451 7.25128C13.6761 7.16884 13.6905 7.08107 13.6874 6.99305C13.6843 6.90503 13.6638 6.81849 13.627 6.73844C13.5903 6.65839 13.538 6.58641 13.4733 6.52667ZM10.7733 8.28667C10.7103 8.34841 10.6602 8.42204 10.6259 8.50329C10.5916 8.58454 10.5737 8.6718 10.5733 8.76V10.5733H8.76C8.6718 10.5737 8.58454 10.5916 8.50329 10.6259C8.42204 10.6602 8.34841 10.7103 8.28667 10.7733L7 12.06L5.71333 10.7733C5.65159 10.7103 5.57796 10.6602 5.49671 10.6259C5.41546 10.5916 5.3282 10.5737 5.24 10.5733H3.42667V8.76C3.4263 8.6718 3.40843 8.58454 3.3741 8.50329C3.33977 8.42204 3.28966 8.34841 3.22667 8.28667L1.94 7L3.22667 5.71333C3.28966 5.65159 3.33977 5.57796 3.3741 5.49671C3.40843 5.41546 3.4263 5.3282 3.42667 5.24V3.42667H5.24C5.3282 3.4263 5.41546 3.40843 5.49671 3.3741C5.57796 3.33977 5.65159 3.28966 5.71333 3.22667L7 1.94L8.28667 3.22667C8.34841 3.28966 8.42204 3.33977 8.50329 3.3741C8.58454 3.40843 8.6718 3.4263 8.76 3.42667H10.5733V5.24C10.5737 5.3282 10.5916 5.41546 10.6259 5.49671C10.6602 5.57796 10.7103 5.65159 10.7733 5.71333L12.06 7L10.7733 8.28667Z" fill="#67899F"/>
<path d="M5.32571 9C5.2381 9 5.1619 8.96895 5.09714 8.90685C5.03238 8.84475 5 8.77169 5 8.68767V5.31233C5 5.22831 5.03238 5.15525 5.09714 5.09315C5.1619 5.03105 5.2381 5 5.32571 5H5.65143C5.75048 5 5.84 5.02557 5.92 5.07671C6 5.12785 6.05905 5.19726 6.09714 5.28493L6.98286 7.35069C6.98286 7.35434 6.98476 7.35616 6.98857 7.35616C6.99238 7.35616 6.99429 7.35434 6.99429 7.35069L7.88 5.28493C7.9181 5.19726 7.97714 5.12785 8.05714 5.07671C8.13714 5.02557 8.22667 5 8.32571 5H8.67429C8.76191 5 8.8381 5.03105 8.90286 5.09315C8.96762 5.15525 9 5.22831 9 5.31233V8.68767C9 8.77169 8.96762 8.84475 8.90286 8.90685C8.8381 8.96895 8.76191 9 8.67429 9H8.4C8.31238 9 8.23619 8.96895 8.17143 8.90685C8.11048 8.84475 8.08 8.77169 8.08 8.68767V6.55616C8.08 6.55251 8.0781 6.55068 8.07429 6.55068C8.06667 6.55068 8.06286 6.55251 8.06286 6.55616L7.51429 7.8C7.47619 7.88767 7.41524 7.95708 7.33143 8.00822C7.25143 8.05936 7.16191 8.08493 7.06286 8.08493H6.91429C6.81524 8.08493 6.72381 8.05936 6.64 8.00822C6.56 7.95708 6.50095 7.88767 6.46286 7.8L5.91429 6.55616C5.91429 6.55251 5.91048 6.55068 5.90286 6.55068C5.89905 6.55068 5.89714 6.55251 5.89714 6.55616V8.68767C5.89714 8.77169 5.86476 8.84475 5.8 8.90685C5.73905 8.96895 5.66476 9 5.57714 9H5.32571Z" fill="#67899F"/>
</svg>
