<svg  viewBox="0 0 24 24" fill="none" xmlns="http://www.w3.org/2000/svg">
<path fill-rule="evenodd" clip-rule="evenodd" d="M6.85205 2C7.40434 2 7.85205 2.44772 7.85205 3V5.81613C8.98562 6.08166 9.91455 6.69332 10.6874 7.35165C11.1078 7.70979 11.1583 8.34094 10.8001 8.76136C10.442 9.18179 9.81086 9.23228 9.39044 8.87414C8.53112 8.14213 7.66987 7.67706 6.64202 7.67706C5.7579 7.67706 5.10718 8.26705 5.12013 9.09337C5.14873 9.60518 5.51935 9.99223 6.57005 10.5331C6.72904 10.615 6.9204 10.7082 7.12369 10.8072C7.47077 10.9762 7.85261 11.1622 8.1675 11.3375C8.70252 11.6353 9.29148 12.0258 9.71615 12.5879L9.71829 12.5907C10.984 14.2784 10.6378 16.9928 8.40899 17.9589C8.22702 18.0394 8.04084 18.1044 7.85205 18.1553V21C7.85205 21.5523 7.40434 22 6.85205 22C6.29977 22 5.85205 21.5523 5.85205 21V18.244C5.58821 18.2052 5.33006 18.1497 5.08201 18.0817C4.03315 17.7943 3.02547 17.2481 2.31533 16.581C1.9128 16.2029 1.89302 15.57 2.27116 15.1675C2.64929 14.765 3.28215 14.7452 3.68468 15.1233C4.13018 15.5418 4.83845 15.9412 5.6106 16.1528C6.39058 16.3666 7.09793 16.3529 7.60164 16.1291L7.61132 16.1248L7.61134 16.1248C8.45945 15.7586 8.74233 14.6246 8.1194 13.7922C7.94858 13.5668 7.65356 13.3404 7.19473 13.085C6.90727 12.925 6.63928 12.7954 6.34636 12.6538L6.34633 12.6537L6.34631 12.6537L6.3463 12.6537L6.34629 12.6537C6.13439 12.5513 5.90945 12.4425 5.65466 12.3113C4.63801 11.788 3.20287 10.9335 3.12169 9.17453L3.1209 9.15168C3.07779 7.29798 4.37284 6.08375 5.85205 5.76239V3C5.85205 2.44772 6.29977 2 6.85205 2ZM12.994 15.9304C13.3763 15.5318 14.0093 15.5185 14.4079 15.9008C15.2411 16.6997 15.9232 17.3363 16.4629 17.8307V4.96112C16.4629 4.40884 16.9106 3.96112 17.4629 3.96112C18.0152 3.96112 18.4629 4.40884 18.4629 4.96112V17.6721L20.3145 15.9294C20.7167 15.5509 21.3495 15.57 21.728 15.9722C22.1066 16.3744 22.0874 17.0072 21.6852 17.3858L18.1132 20.7477C17.7476 21.0919 17.1833 21.1114 16.7946 20.7934L16.789 20.7888L16.7766 20.7785L16.7312 20.7407C16.6918 20.7077 16.6339 20.6589 16.557 20.5931C16.4034 20.4615 16.1739 20.2622 15.8648 19.9865C15.2467 19.4351 14.3098 18.5776 13.0237 17.3443C12.6251 16.9621 12.6118 16.3291 12.994 15.9304Z" fill="black"/>
</svg>
