<svg xmlns="http://www.w3.org/2000/svg" fill="none" viewBox="0 0 24 24"><path fill="#000" fill-rule="evenodd" d="M12 4C7.58172 4 4 7.58172 4 12C4 16.4183 7.58172 20 12 20C16.4183 20 20 16.4183 20 12C20 7.58172 16.4183 4 12 4ZM2 12C2 6.47715 6.47715 2 12 2C17.5228 2 22 6.47715 22 12C22 17.5228 17.5228 22 12 22C6.47715 22 2 17.5228 2 12Z" clip-rule="evenodd"/><path fill="#000" fill-rule="evenodd" d="M9.56092 10.3222C9.50963 8.73221 10.7858 7.78998 12.0604 7.78998C13.249 7.78998 14.1052 8.35666 14.7445 8.89507C15.167 9.25081 15.221 9.88166 14.8653 10.3041C14.5096 10.7266 13.8787 10.7806 13.4563 10.4249C12.9556 10.0033 12.5518 9.78998 12.0604 9.78998C11.8853 9.78998 11.7534 9.8517 11.6774 9.92261C11.6148 9.9809 11.5553 10.0747 11.5597 10.2521C11.5635 10.325 11.59 10.4669 12.2129 10.7896C12.2906 10.8298 12.3953 10.8812 12.5115 10.9383C12.7292 11.0452 12.9875 11.1721 13.1844 11.2826C13.5217 11.4718 13.9328 11.741 14.2386 12.1476C15.1507 13.3512 14.86 15.279 13.3233 15.9962L13.3012 16.0061C12.5422 16.3382 11.7128 16.2865 11.0332 16.099C10.3479 15.9099 9.6866 15.5493 9.20917 15.0926C8.81007 14.7109 8.796 14.0779 9.17775 13.6788C9.5595 13.2796 10.1925 13.2656 10.5916 13.6473C10.8042 13.8507 11.1628 14.06 11.5651 14.171C11.9652 14.2814 12.2861 14.2625 12.4879 14.1788C12.6194 14.1136 12.7094 13.9952 12.7437 13.8348C12.7807 13.6615 12.7413 13.4828 12.6442 13.3551L12.6404 13.35L12.6404 13.35C12.5864 13.2779 12.4659 13.1728 12.2057 13.0268C12.0378 12.9325 11.8952 12.8633 11.7304 12.7834C11.6046 12.7223 11.4658 12.655 11.2929 12.5654C10.6872 12.2516 9.61825 11.6423 9.56134 10.3334L9.56085 10.3222L9.56092 10.3222Z" clip-rule="evenodd"/><path fill="#000" fill-rule="evenodd" d="M12.1802 5.59998C12.7325 5.59998 13.1802 6.04769 13.1802 6.59998V8.39998C13.1802 8.95226 12.7325 9.39998 12.1802 9.39998C11.6279 9.39998 11.1802 8.95226 11.1802 8.39998V6.59998C11.1802 6.04769 11.6279 5.59998 12.1802 5.59998Z" clip-rule="evenodd"/><path fill="#000" fill-rule="evenodd" d="M12.1802 14.6C12.7325 14.6 13.1802 15.0477 13.1802 15.6V17.4C13.1802 17.9523 12.7325 18.4 12.1802 18.4C11.6279 18.4 11.1802 17.9523 11.1802 17.4V15.6C11.1802 15.0477 11.6279 14.6 12.1802 14.6Z" clip-rule="evenodd"/></svg>