<svg viewBox="0 0 24 20" fill="none" xmlns="http://www.w3.org/2000/svg">
<path d="M20.8037 3.33333H19.8125C17.5988 3.33333 17.6022 0 16.0384 0H6.61744C4.85466 0 3.42283 1.39167 3.42283 3.10667V6.66667H5.13759V3.10667C5.13759 2.31333 5.80292 1.66667 6.61744 1.66667H15.7125C15.8189 1.82667 15.9543 2.06667 16.0521 2.245C16.6265 3.275 17.5885 5 19.8125 5H20.8037C21.565 5 22.2852 5.81 22.2852 6.66667V16.895C22.2852 17.6867 21.6199 18.3333 20.8037 18.3333H6.61744C5.80292 18.3333 5.13759 17.6867 5.13759 16.895V15H3.42283V16.895C3.42283 18.61 4.85466 20 6.61744 20H20.802C22.5682 20 24 18.61 24 16.895V6.66667C24 4.95167 22.5682 3.33333 20.8037 3.33333Z" fill="#1E2A33"/>
<path d="M11.6038 14.7349L15.1688 11.3532C15.1723 11.3499 15.174 11.3449 15.1774 11.3399C15.2528 11.2666 15.3163 11.0916 15.3592 10.9949C15.3952 10.9049 15.4089 10.9782 15.4158 10.8882C15.4158 10.8682 15.426 10.8516 15.426 10.8332C15.426 10.8199 15.4192 10.8099 15.4192 10.7982C15.414 10.6982 15.3952 10.6482 15.3592 10.5549C15.3232 10.4699 15.2649 10.3982 15.2048 10.3299C15.1911 10.3132 15.1843 10.2899 15.1688 10.2749L11.6038 6.81324C11.2609 6.47824 10.7036 6.63157 10.3606 6.96657C10.016 7.29991 10.016 7.84157 10.3606 8.17657L12.4201 10.0249L0.908832 10.0266C0.406405 10.0266 -0.00170938 10.3599 5.38396e-06 10.8316C-0.00170938 11.3032 0.406405 11.6049 0.910546 11.6049H12.4218L10.3623 13.6766C10.0177 14.0116 10.0177 14.5516 10.3623 14.8882C10.5338 15.0549 10.7567 14.9866 10.9831 14.9866C11.2094 14.9866 11.4341 14.8999 11.6038 14.7349Z" fill="#1E2A33"/>
</svg>
