<svg  viewBox="0 0 24 24" fill="none" xmlns="http://www.w3.org/2000/svg">
<path fill-rule="evenodd" clip-rule="evenodd" d="M12.9166 7.07967L12.9298 3.12374C13.6653 3.45218 14.4081 4.18724 15.0496 5.38389C15.3225 5.89294 15.5655 6.46735 15.7708 7.09552L12.9166 7.07967ZM11.1166 7.06967L11.1298 3.11827C10.393 3.44175 9.64575 4.17059 8.99592 5.36033C8.72088 5.86387 8.47486 6.43214 8.26552 7.05383L11.1166 7.06967ZM7.79556 8.85125L11.1106 8.86966L11.103 11.1464L7.52034 11.1345C7.56166 10.3366 7.65609 9.57159 7.79556 8.85125ZM7.51858 12.9345L11.097 12.9464L11.0884 15.5369L7.85279 15.5249C7.67957 14.7168 7.56415 13.8473 7.51858 12.9345ZM6.01514 15.5181C5.85828 14.6926 5.75659 13.8245 5.71629 12.9284L2.94789 12.9192C3.04131 13.829 3.26939 14.699 3.61195 15.5092L6.01514 15.5181ZM4.63246 17.313L6.46566 17.3197C6.71123 18.0986 7.01087 18.8197 7.35767 19.4666C7.44624 19.6318 7.53885 19.7937 7.63538 19.9516C6.44881 19.3033 5.42298 18.3988 4.63246 17.313ZM2.1158 16.5752C2.14682 16.7392 2.22235 16.8875 2.32938 17.007C4.07508 20.3476 7.50733 22.6699 11.4974 22.8507C11.6472 22.8688 11.7996 22.8784 11.9543 22.879C12.1081 22.8796 12.2596 22.8713 12.4088 22.8546C16.4104 22.7073 19.8623 20.4067 21.6332 17.0783C21.741 16.9597 21.8175 16.8122 21.8497 16.6487C22.5232 15.2349 22.9001 13.6531 22.9001 11.9831C22.9001 5.98862 18.0435 1.12941 12.0469 1.10422L12.0366 1.10413L12.026 1.10416L12.0001 1.10413C5.98198 1.10413 1.1001 5.97302 1.1001 11.9831C1.1001 13.6242 1.46408 15.1802 2.1158 16.5752ZM20.3617 15.5712C20.7113 14.7614 20.9462 13.8907 21.0459 12.9796L18.2703 12.9703C18.2232 13.8677 18.1148 14.7366 17.9513 15.5623L20.3617 15.5712ZM16.1135 15.5555C16.2932 14.7477 16.4154 13.878 16.4679 12.9643L12.897 12.9524L12.8883 15.5435L16.1135 15.5555ZM12.8823 17.3435L15.5829 17.3535C15.4078 17.8178 15.2115 18.2483 14.9978 18.6396C14.3499 19.8258 13.6052 20.5538 12.8705 20.8788L12.8823 17.3435ZM11.0823 17.3368L11.0705 20.8792C10.3329 20.5522 9.58754 19.8163 8.94409 18.6161C8.73359 18.2234 8.54089 17.7919 8.36954 17.3268L11.0823 17.3368ZM17.4869 17.3606L19.3278 17.3674C18.5267 18.4509 17.4899 19.3504 16.2927 19.9906C16.3917 19.8317 16.4866 19.6688 16.5775 19.5025C16.9297 18.8577 17.2352 18.1383 17.4869 17.3606ZM5.9675 8.84109C5.84013 9.57556 5.75568 10.3413 5.71845 11.1284L2.94077 11.1192C3.01634 10.3206 3.1956 9.5521 3.465 8.82719L5.9675 8.84109ZM12.903 11.1524L16.4797 11.1643C16.4447 10.3732 16.3573 9.61388 16.2252 8.89808L12.9106 8.87966L12.903 11.1524ZM18.2816 11.1704L21.0649 11.1796C20.9959 10.3943 20.8266 9.63751 20.5699 8.92221L18.054 8.90824C18.1734 9.63535 18.2506 10.3926 18.2816 11.1704ZM6.38235 7.04337C6.65542 6.10987 7.00382 5.25248 7.41619 4.4975C7.51575 4.31522 7.62023 4.13706 7.72947 3.9639C6.36657 4.68788 5.2102 5.74757 4.37099 7.0322L6.38235 7.04337ZM19.6841 7.11726C18.8515 5.81117 17.6935 4.73159 16.3238 3.99232C16.4328 4.16791 16.5369 4.34857 16.636 4.5334C17.0452 5.29663 17.3887 6.16313 17.6552 7.10599L19.6841 7.11726Z" fill="black"/>
</svg>
