<svg xmlns="http://www.w3.org/2000/svg" fill="none" viewBox="0 0 24 24"><path fill="#000" fill-rule="evenodd" d="M17.8404 3C16.0969 3 14.6807 4.41619 14.6807 6.16667C14.6807 7.91715 16.0969 9.33334 17.8404 9.33334C19.5839 9.33334 21.0001 7.91715 21.0001 6.16667C21.0001 4.41619 19.5839 3 17.8404 3ZM12.6807 6.16667C12.6807 5.52116 12.7989 4.90317 13.015 4.33331H4.89517C3.82886 4.33331 3 5.17329 3 6.16665V15.1667C3 16.16 3.82886 17 4.89517 17H7.45756C7.78813 17 8.09735 17.1634 8.28364 17.4364L10.1863 20.2255L12.089 17.4364C12.2753 17.1634 12.5846 17 12.9151 17H18.173C19.2393 17 20.0682 16.16 20.0682 15.1667V10.8283C19.3939 11.152 18.6384 11.3333 17.8404 11.3333C14.9892 11.3333 12.6807 9.01857 12.6807 6.16667ZM22.0682 9.33332C22.0682 9.27152 22.0626 9.21104 22.0519 9.15234C22.6491 8.30904 23.0001 7.27869 23.0001 6.16667C23.0001 3.31477 20.6916 1 17.8404 1C16.5047 1 15.2882 1.50797 14.3722 2.34118C14.331 2.33599 14.2889 2.33331 14.2462 2.33331H4.89517C2.76682 2.33331 1 4.02667 1 6.16665V15.1667C1 17.3066 2.76682 19 4.89517 19H6.92922L9.36026 22.5635C9.54656 22.8366 9.85577 23 10.1863 23C10.5169 23 10.8261 22.8366 11.0124 22.5635L13.4435 19H18.173C20.3014 19 22.0682 17.3066 22.0682 15.1667V9.33332ZM18.8403 5.10004C18.8403 4.54775 18.3926 4.10004 17.8403 4.10004C17.288 4.10004 16.8403 4.54775 16.8403 5.10004V7.26671C16.8403 7.81899 17.288 8.26671 17.8403 8.26671C18.3926 8.26671 18.8403 7.81899 18.8403 7.26671V5.10004ZM4.42725 8.66669C4.42725 8.1144 4.87496 7.66669 5.42725 7.66669H10.8848C11.4371 7.66669 11.8848 8.1144 11.8848 8.66669C11.8848 9.21897 11.4371 9.66669 10.8848 9.66669H5.42725C4.87496 9.66669 4.42725 9.21897 4.42725 8.66669ZM5.42725 12.3334C4.87496 12.3334 4.42725 12.7811 4.42725 13.3334C4.42725 13.8857 4.87496 14.3334 5.42725 14.3334H16.3091C16.8614 14.3334 17.3091 13.8857 17.3091 13.3334C17.3091 12.7811 16.8614 12.3334 16.3091 12.3334H5.42725Z" clip-rule="evenodd"/></svg>