<svg xmlns="http://www.w3.org/2000/svg" fill="none" viewBox="0 0 24 24"><path fill="#000" fill-rule="evenodd" d="M16.1931 4.68092C15.3346 3.77303 13.9425 3.77303 13.084 4.68092L5.14242 13.0458C3.61921 14.6294 3.6192 17.2451 5.1424 18.8287L5.14832 18.8349C6.61332 20.3842 9.00481 20.394 10.5105 18.8305C10.511 18.8299 10.5116 18.8293 10.5122 18.8287L20.2757 8.57106C20.6564 8.17101 21.2894 8.15539 21.6894 8.53616C22.0895 8.91693 22.1051 9.5499 21.7243 9.94994L11.9573 20.2114L11.9536 20.2152C9.66901 22.5904 5.95959 22.6005 3.69798 20.2121C1.4338 17.8547 1.43401 14.0188 3.6986 11.6618L11.6308 3.30681C11.6311 3.30651 11.6314 3.30622 11.6317 3.30592C13.2793 1.5644 15.999 1.56469 17.6463 3.30681C19.2638 5.01748 19.2638 7.7612 17.6463 9.47187L9.70915 17.832L9.6927 17.8489C8.65923 18.8872 7.02752 18.8872 5.99405 17.8489C4.96627 16.8163 4.96317 15.1056 5.98476 14.0689L13.9776 5.64986C14.3578 5.24933 14.9908 5.23289 15.3913 5.61315C15.7918 5.9934 15.8083 6.62635 15.428 7.02689L7.42804 15.4535L7.41157 15.4704C7.15732 15.7259 7.15732 16.1826 7.41157 16.438C7.66104 16.6887 8.01721 16.6908 8.26855 16.4446L16.1931 8.09776C16.1933 8.09754 16.1929 8.09799 16.1931 8.09776C17.0809 7.15806 17.0813 5.62034 16.1931 4.68092Z" clip-rule="evenodd"/></svg>