<svg xmlns="http://www.w3.org/2000/svg" fill="none" viewBox="0 0 24 24"><path fill="#000" fill-rule="evenodd" d="M11.7814 3.03334C11.7814 2.96108 11.8405 2.89998 11.9165 2.89998C11.9925 2.89998 12.0516 2.96108 12.0516 3.03334C12.0516 3.10555 11.9925 3.16667 11.9165 3.16667C11.8405 3.16667 11.7814 3.10555 11.7814 3.03334ZM11.9165 1.09998C10.8492 1.09998 9.98145 1.96421 9.98145 3.03334C9.98145 3.77743 10.4017 4.42222 11.0171 4.74553V6.16662C11.0171 6.66368 11.42 7.06662 11.9171 7.06662C12.4141 7.06662 12.8171 6.66368 12.8171 6.16662V4.74491C13.4318 4.4214 13.8516 3.77696 13.8516 3.03334C13.8516 1.96421 12.9838 1.09998 11.9165 1.09998ZM11.7482 9.93331C11.7482 9.76512 11.8781 9.63331 12.0502 9.63331C12.2055 9.63331 12.3263 9.7405 12.3486 9.88489C12.2951 10.1815 12.1917 10.387 12.0488 10.5297L12.0169 10.5616L11.9849 10.5297C11.8311 10.3761 11.7482 10.1769 11.7482 9.93331ZM12.0502 7.83331C10.8868 7.83331 9.94824 8.76816 9.94824 9.93331C9.94824 10.3758 10.0516 10.8091 10.2614 11.1984L9.36421 12.2135L9.35606 12.2232C9.05748 12.5809 8.87988 13.0505 8.87988 13.5333V14.2333C8.87988 15.0707 9.55791 15.6333 10.2807 15.6333H13.6196C14.4548 15.6333 15.0205 14.9586 15.0205 14.2333V13.5333C15.0205 13.0505 14.8428 12.5809 14.5443 12.2232L14.5361 12.2135L13.7215 11.2918C13.9602 10.8975 14.0848 10.4688 14.1432 10.0608L14.1523 9.99737V9.93331C14.1523 8.76816 13.2137 7.83331 12.0502 7.83331ZM12.3506 12.4587C12.2396 12.4858 12.127 12.5 12.0169 12.5C11.8583 12.5 11.7099 12.4756 11.5731 12.4322L10.7332 13.3826C10.7006 13.4248 10.6799 13.4851 10.6799 13.5333V13.8333H13.2205V13.5333C13.2205 13.4851 13.1998 13.4248 13.1672 13.3826L12.3506 12.4587ZM7.45274 6.28073C7.51041 6.09749 7.54151 5.90243 7.54151 5.70003C7.54151 4.6309 6.67378 3.76666 5.60645 3.76666C4.53913 3.76666 3.67139 4.6309 3.67139 5.70003C3.67139 6.76921 4.53917 7.63335 5.60645 7.63335C5.80421 7.63335 5.99512 7.60369 6.17493 7.54854L7.16647 8.56257C7.51398 8.91796 8.0838 8.92435 8.43919 8.57684C8.79458 8.22933 8.80096 7.65951 8.45345 7.30412L7.45274 6.28073ZM5.47139 5.70003C5.47139 5.62777 5.53047 5.56666 5.60645 5.56666C5.68242 5.56666 5.74151 5.62777 5.74151 5.70003C5.74151 5.77225 5.68246 5.83335 5.60645 5.83335C5.53043 5.83335 5.47139 5.77224 5.47139 5.70003ZM4.74826 11.1667C4.42398 10.5518 3.77787 10.1334 3.03515 10.1334C1.96787 10.1334 1.1001 10.9975 1.1001 12.0667C1.1001 13.1359 1.96787 14 3.03515 14C3.77787 14 4.42398 13.5815 4.74826 12.9667H6.14058C6.63763 12.9667 7.04058 12.5637 7.04058 12.0667C7.04058 11.5696 6.63763 11.1667 6.14058 11.1667H4.74826ZM2.9001 12.0667C2.9001 11.9945 2.95914 11.9334 3.03515 11.9334C3.11118 11.9334 3.17022 11.9945 3.17022 12.0667C3.17022 12.1389 3.11118 12.2 3.03515 12.2C2.95914 12.2 2.9001 12.1389 2.9001 12.0667ZM8.54685 15.5308C8.89803 15.8826 8.89755 16.4524 8.54579 16.8036L7.55459 17.7931C7.61082 17.9743 7.64112 18.1669 7.64112 18.3667C7.64112 19.4358 6.77333 20.3 5.70605 20.3C4.63877 20.3 3.771 19.4358 3.771 18.3667C3.771 17.2975 4.63873 16.4333 5.70605 16.4333C5.90648 16.4333 6.09987 16.4638 6.28179 16.5203L7.27406 15.5297C7.62583 15.1786 8.19567 15.179 8.54685 15.5308ZM5.571 18.3667C5.571 18.2944 5.63008 18.2333 5.70605 18.2333C5.78203 18.2333 5.84112 18.2944 5.84112 18.3667C5.84112 18.4389 5.78207 18.5 5.70605 18.5C5.63004 18.5 5.571 18.4389 5.571 18.3667ZM12.0504 16.9333C12.5474 16.9333 12.9504 17.3362 12.9504 17.8333V19.2548C13.5654 19.5783 13.9854 20.2228 13.9854 20.9667C13.9854 22.0358 13.1176 22.9 12.0503 22.9C10.983 22.9 10.1152 22.0358 10.1152 20.9667C10.1152 20.2228 10.5353 19.5781 11.1504 19.2547V17.8333C11.1504 17.3362 11.5533 16.9333 12.0504 16.9333ZM11.9152 20.9667C11.9152 20.8944 11.9743 20.8333 12.0503 20.8333C12.1263 20.8333 12.1854 20.8944 12.1854 20.9667C12.1854 21.0389 12.1263 21.1 12.0503 21.1C11.9743 21.1 11.9152 21.0389 11.9152 20.9667ZM15.5199 15.4308C15.8711 15.0791 16.4409 15.0786 16.7927 15.4298L17.8105 16.4459C17.9849 16.3944 18.1694 16.3667 18.3603 16.3667C19.4276 16.3667 20.2954 17.2308 20.2954 18.3C20.2954 19.3692 19.4276 20.2334 18.3603 20.2334C17.2931 20.2334 16.4253 19.3692 16.4253 18.3C16.4253 18.0908 16.4585 17.8895 16.5199 17.7009L15.521 16.7036C15.1692 16.3524 15.1687 15.7826 15.5199 15.4308ZM18.2253 18.3C18.2253 18.2278 18.2843 18.1667 18.3603 18.1667C18.4364 18.1667 18.4954 18.2278 18.4954 18.3C18.4954 18.3722 18.4364 18.4334 18.3603 18.4334C18.2843 18.4334 18.2253 18.3722 18.2253 18.3ZM16.9268 11.9333C16.9268 11.4363 17.3297 11.0333 17.8268 11.0333H19.2517C19.576 10.4185 20.2221 10 20.9648 10C22.0321 10 22.8999 10.8641 22.8999 11.9333C22.8999 13.0025 22.0321 13.8667 20.9648 13.8667C20.2221 13.8667 19.576 13.4482 19.2517 12.8333H17.8268C17.3297 12.8333 16.9268 12.4304 16.9268 11.9333ZM20.8298 11.9333C20.8298 11.8611 20.8888 11.8 20.9648 11.8C21.0409 11.8 21.0999 11.8611 21.0999 11.9333C21.0999 12.0055 21.0409 12.0667 20.9648 12.0667C20.8888 12.0667 20.8298 12.0055 20.8298 11.9333ZM16.4438 6.19991L15.4291 7.18877C15.0731 7.53568 15.0658 8.10548 15.4127 8.46145C15.7596 8.81742 16.3294 8.82477 16.6854 8.47785L17.7119 7.47747C17.8958 7.53542 18.0915 7.56666 18.2944 7.56666C19.3617 7.56666 20.2295 6.70252 20.2295 5.63334C20.2295 4.56416 19.3617 3.70001 18.2944 3.70001C17.2272 3.70001 16.3594 4.56416 16.3594 5.63334C16.3594 5.83055 16.3889 6.02079 16.4438 6.19991ZM18.1594 5.63334C18.1594 5.56113 18.2184 5.50001 18.2944 5.50001C18.3705 5.50001 18.4295 5.56113 18.4295 5.63334C18.4295 5.70555 18.3705 5.76666 18.2944 5.76666C18.2184 5.76666 18.1594 5.70555 18.1594 5.63334Z" clip-rule="evenodd"/></svg>