<svg  viewBox="0 0 24 24" fill="none" xmlns="http://www.w3.org/2000/svg">
<path fill-rule="evenodd" clip-rule="evenodd" d="M3 1C2.44772 1 2 1.44772 2 2L2 10.9996V10.9998L2 22C2 22.5523 2.44772 23 3 23H9.98909C10.5414 23 10.9891 22.5523 10.9891 22V18.1H12.9782V22C12.9782 22.5523 13.4259 23 13.9782 23H21C21.5523 23 22 22.5523 22 22L22 11.672V11.6619V2C22 1.44772 21.5523 1 21 1L3 1ZM20 11.2778V3L4 3L4 10.5568L5.98544 12.3568L7.34366 11.1519C7.72462 10.814 8.2987 10.8163 8.67692 11.1573L10.0036 12.3535L11.3304 11.1573C11.7109 10.8142 12.2891 10.8142 12.6696 11.1573L13.9964 12.3535L15.3231 11.1573C15.6928 10.824 16.2513 10.8133 16.6334 11.1322L18.6168 12.7872L20 11.2778ZM4 13.2564L4 21H8.98909V17.1C8.98909 16.5477 9.43681 16.1 9.98909 16.1H13.9782C14.5305 16.1 14.9782 16.5477 14.9782 17.1L14.9782 21H20V14.2381L19.4464 14.8423C19.0854 15.2362 18.4786 15.2768 18.0684 14.9345L16.0181 13.2236L14.666 14.4427C14.2855 14.7858 13.7072 14.7858 13.3267 14.4427L12 13.2465L10.6733 14.4427C10.2928 14.7858 9.71451 14.7858 9.334 14.4427L8.00186 13.2416L6.64181 14.4481C6.26007 14.7867 5.68459 14.7836 5.30653 14.4409L4 13.2564ZM12 4C12.5523 4 13 4.53369 13 5.19204V6H13.9223C14.5175 6 15 6.44772 15 7C15 7.55228 14.5175 8 13.9223 8H13V8.80796C13 9.46631 12.5523 10 12 10C11.4477 10 11 9.46631 11 8.80796V8L10.0777 8C9.48251 8 9 7.55228 9 7C9 6.44772 9.48251 6 10.0777 6L11 6V5.19204C11 4.53369 11.4477 4 12 4Z" fill="black"/>
</svg>
