<svg  viewBox="0 0 24 24" fill="none" xmlns="http://www.w3.org/2000/svg">
<path fill-rule="evenodd" clip-rule="evenodd" d="M8.31986 2.86339L10.4641 4.91772L10.4801 4.93342C11.0662 5.52071 11.307 6.33495 11.307 7.06864C11.307 7.80232 11.0662 8.61653 10.4802 9.20382L9.43689 10.2494C9.6825 11.1099 10.2679 12.0591 11.0829 12.8813C11.9001 13.7055 12.8489 14.3023 13.7247 14.5514L14.7674 13.5065C15.3537 12.9189 16.1672 12.677 16.901 12.677C17.6347 12.677 18.4483 12.9189 19.0346 13.5065C19.0346 13.5065 19.0345 13.5065 19.0346 13.5065L21.1732 15.6497C21.7593 16.237 22 17.0512 22 17.7849C22 18.5186 21.7592 19.3328 21.1732 19.9201C19.5784 21.5183 17.498 22 16.5444 22C15.0682 22 13.735 21.9091 12.2001 21.1911C10.7036 20.491 9.09001 19.2307 6.92613 17.0621C4.73292 14.8641 3.48625 13.0667 2.79662 11.4873C2.09751 9.88624 2 8.57402 2 7.42591C2 6.62276 2.10093 5.854 2.43709 5.06802C2.76988 4.28992 3.3045 3.56185 4.07447 2.7902C4.67733 2.18604 5.50841 1.97419 6.24022 2.00247C6.96926 2.03063 7.75309 2.3008 8.31986 2.86339ZM6.16302 4.00098C5.83204 3.98819 5.60033 4.09253 5.49022 4.20288C4.83446 4.86006 4.47791 5.38231 4.27596 5.8545C4.07738 6.31881 4 6.80031 4 7.42591C4 8.42115 4.0809 9.43058 4.6295 10.687C5.18757 11.965 6.25791 13.5609 8.34189 15.6494C10.4552 17.7673 11.871 18.8291 13.0476 19.3795C14.1857 19.9119 15.169 20 16.5444 20C17.0513 20 18.5936 19.6738 19.7574 18.5074C19.8843 18.3802 20 18.1228 20 17.7849C20 17.4469 19.8843 17.1895 19.7575 17.0624L17.6188 14.9192C17.4923 14.7923 17.2365 14.677 16.901 14.677C16.5654 14.677 16.3097 14.7923 16.1831 14.9192L14.7574 16.348C14.5349 16.5709 14.2205 16.676 13.9087 16.6317C12.3463 16.4095 10.8211 15.458 9.66259 14.2893C8.5044 13.121 7.57453 11.5963 7.35659 10.0674C7.31224 9.75632 7.41673 9.44244 7.63871 9.21998L9.06444 7.79115C9.19129 7.66401 9.30698 7.40657 9.30698 7.06861C9.30699 6.73575 9.19477 6.48105 9.07022 6.35203L6.9291 4.30071L6.91307 4.285C6.76753 4.13917 6.49296 4.01372 6.16302 4.00098Z" fill="black"/>
</svg>
