<svg  viewBox="0 0 24 24" fill="none" xmlns="http://www.w3.org/2000/svg">
<path fill-rule="evenodd" clip-rule="evenodd" d="M2.16721 1.00165C1.8898 1.00165 1.58092 1.09848 1.33888 1.34052C1.09683 1.58256 1 1.89145 1 2.16886L1 5.88085C1 6.15826 1.09683 6.46714 1.33888 6.70918C1.58092 6.95122 1.8898 7.04806 2.16721 7.04806H2.73877L2.73877 15.8798C2.73877 16.8 3.48746 17.5487 4.4076 17.5487H8.99853C9.71292 20.7262 12.5517 23.1 15.945 23.1C19.8771 23.1 23.0648 19.9123 23.0648 15.9802C23.0648 12.048 19.8771 8.86041 15.945 8.86041C14.8417 8.86041 13.7971 9.11134 12.865 9.55923V7.04806H13.437C13.7144 7.04806 14.0233 6.95122 14.2653 6.70918C14.5073 6.46714 14.6042 6.15826 14.6042 5.88085V2.25633C14.6501 1.8639 14.4772 1.51205 14.2292 1.29505C13.9818 1.07853 13.6836 1.00165 13.437 1.00165L2.16721 1.00165ZM10.865 10.9916C9.69746 12.1805 8.94395 13.7773 8.83806 15.5487L4.73877 15.5487L4.73877 7.04806L10.865 7.04806V10.9916ZM11.8714 5.04805H12.6042V3.00165H10.9253V5.04803H11.865L11.8714 5.04805ZM8.92529 5.04803V3.00165L6.8125 3.00165L6.8125 5.04803H8.92529ZM3 3.00165L4.8125 3.00165V5.04803L3.73877 5.04803L3.73237 5.04805H3V3.00165ZM15.945 10.8604C13.1174 10.8604 10.8252 13.1526 10.8252 15.9802C10.8252 18.8078 13.1174 21.1 15.945 21.1C18.7726 21.1 21.0648 18.8078 21.0648 15.9802C21.0648 13.1526 18.7726 10.8604 15.945 10.8604ZM16.8793 12.3016V13.1568C17.2734 13.2975 17.6084 13.5214 17.8951 13.7604C18.2346 14.0432 18.2804 14.5477 17.9976 14.8871C17.7147 15.2265 17.2103 15.2724 16.8709 14.9895C16.5456 14.7184 16.2873 14.6064 16.0119 14.6064C15.9407 14.6064 15.8748 14.6343 15.8323 14.6731C15.8015 14.7013 15.7806 14.7357 15.7761 14.788C15.7791 14.7921 15.7848 14.7987 15.7952 14.8092C15.8482 14.8628 15.95 14.9327 16.1482 15.0347C16.1951 15.0589 16.2571 15.0893 16.3267 15.1235C16.4793 15.1983 16.6685 15.2912 16.8159 15.3754C17.0465 15.5072 17.3382 15.7018 17.5552 16.0019C18.2199 16.8581 18.0402 18.276 16.8793 18.7814V19.6253C16.8793 20.0671 16.5211 20.4253 16.0793 20.4253C15.6375 20.4253 15.2793 20.0671 15.2793 19.6253V18.8739C15.2715 18.8718 15.2637 18.8698 15.256 18.8677C14.773 18.7374 14.3024 18.487 13.9627 18.1715C13.6389 17.8709 13.6202 17.3647 13.9208 17.0409C14.2214 16.7172 14.7276 16.6984 15.0514 16.9991C15.1798 17.1183 15.4116 17.2525 15.6726 17.3229C15.9409 17.3953 16.1211 17.37 16.2045 17.3305C16.2151 17.3255 16.2257 17.3207 16.2365 17.3162C16.2905 17.2935 16.3233 17.2547 16.3369 17.19C16.3528 17.1151 16.3336 17.0358 16.2901 16.9815C16.2795 16.9681 16.2692 16.9545 16.2594 16.9405C16.2438 16.9182 16.1884 16.8596 16.022 16.7646C15.9117 16.7015 15.8158 16.6549 15.7001 16.5987L15.7 16.5987C15.619 16.5593 15.5281 16.5151 15.4158 16.4573C15.0134 16.2501 14.2104 15.8102 14.1757 14.8382C14.1754 14.8287 14.1752 14.8192 14.1752 14.8097C14.1752 14.004 14.6645 13.4183 15.2793 13.1574V12.3016C15.2793 11.8598 15.6375 11.5016 16.0793 11.5016C16.5211 11.5016 16.8793 11.8598 16.8793 12.3016Z" fill="black"/>
</svg>
