<svg xmlns="http://www.w3.org/2000/svg" fill="none" viewBox="0 0 24 24"><path fill="#000" fill-rule="evenodd" d="M3.14992 3C2.8593 3 2.54827 3.10882 2.31357 3.35779C2.0839 3.60143 2 3.90116 2 4.15903L2 8.35751C2 8.61538 2.0839 8.91512 2.31357 9.15875C2.54827 9.40772 2.8593 9.51654 3.14992 9.51654H3.8291L3.8291 19.5854C3.8291 20.4311 4.49188 21.2215 5.42877 21.2215H12.7748C13.6814 21.2215 14.3927 20.4553 14.3445 19.5525V17.5291L16.407 20.0582L16.4182 20.0718C17.539 21.3979 19.5136 21.6095 20.8512 20.4802C22.2085 19.3598 22.3743 17.3674 21.2862 16.0284L20.6858 15.296L20.6838 15.2935L18.0173 12.0199L18.0057 12.0059C17.0857 10.9174 15.5905 10.5798 14.3445 11.1183V9.51654H15.0534C15.344 9.51654 15.6551 9.40772 15.8898 9.15875C16.1194 8.91512 16.2033 8.61538 16.2033 8.35751V4.15903C16.2033 3.90116 16.1194 3.60143 15.8898 3.35779C15.6551 3.10882 15.344 3 15.0534 3L3.14992 3ZM4 7.51654L4 5L6.01758 5L6.01758 7.51654L4 7.51654ZM8.01758 7.51654V5L10.3052 5V7.51654L8.01758 7.51654ZM12.3052 7.51654H14.2033V5H12.3052V7.51654ZM5.8291 19.2215L5.8291 9.5166L12.3445 9.5166V19.2215H5.8291ZM16.4731 13.291C16.036 12.78 15.3203 12.7375 14.8606 13.1276L14.8482 13.1379C14.3525 13.5451 14.2805 14.2836 14.6894 14.7874L15.6833 16.0063L17.4891 14.5383L16.4731 13.291ZM18.7522 16.0889L16.9473 17.5562L17.9506 18.7865C18.3877 19.2977 19.1036 19.3402 19.5633 18.9501L19.5756 18.9397C20.0711 18.5328 20.1433 17.7948 19.7352 17.2911L19.1351 16.5591L18.7522 16.0889Z" clip-rule="evenodd"/></svg>