<svg xmlns="http://www.w3.org/2000/svg" fill="none" viewBox="0 0 24 24"><path fill="#000" fill-rule="evenodd" d="M4 1C3.44772 1 3 1.44772 3 2L3 7.89998C3 8.45227 3.44772 8.89998 4 8.89998H5.0083L5.0083 22C5.0083 22.5523 5.45602 23 6.0083 23L18.0594 23C18.6117 23 19.0594 22.5523 19.0594 22L19.0594 8.89998H20C20.5523 8.89998 21 8.45227 21 7.89998V2C21 1.44772 20.5523 1 20 1L4 1ZM5 6.89998L5 3L8.44678 3V6.89998L5 6.89998ZM10.4468 6.89998V3L13.8936 3L13.8936 6.89998L10.4468 6.89998ZM15.8936 6.89998L19 6.89998V3L15.8936 3L15.8936 6.89998ZM7.0083 21L7.0083 9.10004L17.0594 9.10004L17.0594 21L7.0083 21Z" clip-rule="evenodd"/></svg>