<svg width="20" height="20" viewBox="0 0 20 20" fill="none" xmlns="http://www.w3.org/2000/svg">
<rect width="20" height="20" rx="4" fill="#E1EBE6"/>
<path d="M12.8452 12.5713L14.8779 10.4804C15.0407 10.313 15.0407 10.0417 14.8779 9.87428L14.2886 9.26813C14.1259 9.10072 13.8621 9.10072 13.6993 9.26813L11.6665 11.359L9.48012 9.11009C10.7111 8.94992 11.6665 7.88092 11.6665 6.57139C11.6665 5.15123 10.5473 4 9.16658 4H5.41666C5.18645 4 5 4.19178 5 4.42856V11.2856C5 11.5224 5.18645 11.7142 5.41666 11.7142H6.24998C6.48018 11.7142 6.66663 11.5224 6.66663 11.2856V9.14277H7.15491L10.4882 12.5713L8.4554 14.6621C8.29264 14.8296 8.29264 15.1009 8.4554 15.2683L9.04471 15.8744C9.20747 16.0419 9.47127 16.0419 9.63402 15.8744L11.6665 13.7833L13.6993 15.8742C13.8621 16.0416 14.1259 16.0416 14.2886 15.8742L14.8779 15.268C15.0407 15.1006 15.0407 14.8293 14.8779 14.6619L12.8452 12.5713ZM6.66663 5.71426H9.16658C9.62595 5.71426 9.9999 6.09889 9.9999 6.57139C9.9999 7.04388 9.62595 7.42851 9.16658 7.42851H6.66663V5.71426Z" fill="#1E5D4A"/>
</svg>
