<svg xmlns="http://www.w3.org/2000/svg" width="14" height="16" fill="none" viewBox="0 0 14 16"><path fill="#4AA486" d="M10.9834 11.4284L13.8294 8.64057C14.0572 8.41736 14.0572 8.05558 13.8294 7.83237L13.0043 7.02417C12.7765 6.80096 12.4071 6.80096 12.1793 7.02417L9.33333 9.81198L6.27229 6.81346C7.99568 6.59989 9.33333 5.17456 9.33333 3.42851C9.33333 1.53497 7.76635 0 5.83333 0H0.583333C0.261042 0 0 0.25571 0 0.571419V9.71412C0 10.0298 0.261042 10.2855 0.583333 10.2855H1.75C2.07229 10.2855 2.33333 10.0298 2.33333 9.71412V6.85703H3.01693L7.68359 11.4284L4.83766 14.2162C4.60979 14.4394 4.60979 14.8012 4.83766 15.0244L5.66271 15.8326C5.89057 16.0558 6.2599 16.0558 6.48776 15.8326L9.33333 13.0444L12.1793 15.8322C12.4071 16.0554 12.7765 16.0554 13.0043 15.8322L13.8294 15.024C14.0572 14.8008 14.0572 14.439 13.8294 14.2158L10.9834 11.4284ZM2.33333 2.28568H5.83333C6.47646 2.28568 7 2.79852 7 3.42851C7 4.0585 6.47646 4.57135 5.83333 4.57135H2.33333V2.28568Z"/></svg>