<svg xmlns="http://www.w3.org/2000/svg" fill="none" viewBox="0 0 24 24"><path fill="#000" fill-rule="evenodd" d="M6 2C6 1.44772 6.44772 1 7 1L16.9667 1C17.5189 1 17.9667 1.44772 17.9667 2V7.70001H19.7C21.5466 7.70001 23 9.24244 23 11.0667L23 14.7333C23 16.5575 21.5466 18.1 19.7 18.1H17.9667V22C17.9667 22.5523 17.5189 23 16.9667 23L7 23C6.44772 23 6 22.5523 6 22L6 18.1H4.3C2.45338 18.1 1 16.5575 1 14.7333L1 11.0667C1 9.24245 2.45339 7.70001 4.3 7.70001H6L6 2ZM8 17.1V21L15.9667 21L15.9667 14.2H8L8 17.1ZM17.9667 16.1V14.2H18.9332C19.4855 14.2 19.9332 13.7523 19.9332 13.2C19.9332 12.6477 19.4855 12.2 18.9332 12.2L16.9667 12.2H7L4.83325 12.2C4.28097 12.2 3.83325 12.6477 3.83325 13.2C3.83325 13.7523 4.28097 14.2 4.83325 14.2H6L6 16.1H4.3C3.61328 16.1 3 15.5091 3 14.7333L3 11.0667C3 10.2909 3.61327 9.70001 4.3 9.70001L19.7 9.70001C20.3867 9.70001 21 10.2909 21 11.0667L21 14.7333C21 15.5091 20.3867 16.1 19.7 16.1H17.9667ZM8 3V7.66666L15.9667 7.66666L15.9667 3L8 3ZM10.0332 16.7667C9.48092 16.7667 9.0332 17.2144 9.0332 17.7667C9.0332 18.3189 9.48092 18.7667 10.0332 18.7667L13.7332 18.7667C14.2855 18.7667 14.7332 18.3189 14.7332 17.7667C14.7332 17.2144 14.2855 16.7667 13.7332 16.7667H10.0332Z" clip-rule="evenodd"/></svg>