<svg  viewBox="0 0 24 24" fill="none" xmlns="http://www.w3.org/2000/svg">
<path fill-rule="evenodd" clip-rule="evenodd" d="M17.0867 6.88537C13.3945 3.0403 7.40175 3.0349 3.73822 6.88903C0.108195 10.7079 0.0652124 16.8639 3.74172 20.6926C4.12425 21.091 4.75728 21.1038 5.15564 20.7213C5.554 20.3388 5.56684 19.7057 5.18432 19.3074C2.25948 16.2615 2.28318 11.3227 5.18782 8.26695C8.05867 5.24674 12.7341 5.24104 15.6433 8.26972C16.582 9.25292 17.2301 10.4623 17.5655 11.7324L14.1811 9.86729C13.6974 9.60073 13.0892 9.77675 12.8226 10.2604C12.5561 10.7441 12.7321 11.3523 13.2158 11.6189L18.6502 14.6138C18.8877 14.7447 19.1681 14.7735 19.4272 14.6937C19.6863 14.6139 19.9019 14.4323 20.0246 14.1906L22.8918 8.54111C23.1418 8.04862 22.9452 7.44676 22.4527 7.19681C21.9602 6.94686 21.3583 7.14347 21.1084 7.63596L19.4245 10.9538C18.9888 9.47017 18.2061 8.05726 17.0886 6.88728L17.0867 6.88537Z" fill="black"/>
</svg>
