<svg  viewBox="0 0 24 24" fill="none" xmlns="http://www.w3.org/2000/svg">
<path d="M8.48108 17.6878C8.00082 18.1109 8.01677 18.8757 8.57442 19.1899C9.57821 19.7554 10.6322 20 12 20C16.026 20 19.3482 16.9463 19.8338 13H21.0115C21.7997 13 22.2698 12.1099 21.8326 11.4453L19.7291 8.24808C19.3385 7.65434 18.4775 7.65434 18.0869 8.24808L15.9834 11.4453C15.5462 12.1099 16.0163 13 16.8045 13H17.8393C17.3695 15.8377 14.9339 18 12 18C11.1848 18 10.408 17.833 9.70119 17.531C9.29356 17.3569 8.81368 17.3947 8.48108 17.6878Z" fill="black"/>
<path d="M15.5189 6.31225C15.1863 6.60527 14.7064 6.64312 14.2988 6.46895C13.592 6.16695 12.8152 6 12 6C9.06607 6 6.63054 8.16229 6.16072 11H7.19546C7.98366 11 8.45379 11.8901 8.01658 12.5547L5.91311 15.7519C5.52249 16.3457 4.66149 16.3457 4.27087 15.7519L2.1674 12.5547C1.73019 11.8901 2.20032 11 2.98852 11H4.16621C4.65184 7.05369 7.97399 4 12 4C13.3678 4 14.4218 4.24456 15.4256 4.81007C15.9832 5.12425 15.9992 5.88913 15.5189 6.31225Z" fill="black"/>
</svg>
