<svg xmlns="http://www.w3.org/2000/svg" fill="none" viewBox="0 0 24 24"><path fill="#000" fill-rule="evenodd" d="M20.3778 11.4889C20.9252 11.5101 21.3519 11.9747 21.3308 12.5266L21.2974 13.4011C21.2969 13.4159 21.296 13.4308 21.2947 13.4457L21.2917 13.482C21.2605 13.8611 21.2208 14.3432 21.0964 14.8029C19.949 19.0556 16.1598 22.1101 11.6745 21.997L11.6717 21.9969C7.62459 21.8836 4.24642 19.1301 2.98813 15.4364C2.8102 14.914 3.08596 14.3452 3.60407 14.1658C4.12218 13.9864 4.68643 14.2644 4.86436 14.7867C5.87446 17.7519 8.56731 19.9087 11.7255 19.9977C15.2458 20.0857 18.2613 17.6921 19.1823 14.2774L19.1825 14.2767C19.2531 14.0159 19.2818 13.7134 19.316 13.3018L19.3485 12.4497C19.3695 11.8979 19.8304 11.4677 20.3778 11.4889Z" clip-rule="evenodd"/><path fill="#000" fill-rule="evenodd" d="M20.3679 11.0176C20.6374 11.0254 20.8922 11.1434 21.0735 11.3445L22.7416 13.1944C23.1101 13.603 23.0802 14.2355 22.6749 14.607C22.2695 14.9785 21.6422 14.9484 21.2737 14.5397L20.2988 13.4585L19.2662 14.4799C18.8751 14.8667 18.2471 14.8607 17.8635 14.4665C17.4798 14.0722 17.4858 13.4391 17.8768 13.0523L19.6449 11.3034C19.8374 11.113 20.0984 11.0099 20.3679 11.0176Z" clip-rule="evenodd"/><path fill="#000" fill-rule="evenodd" d="M3.62175 12.5111C3.07435 12.4899 2.64766 12.0253 2.66871 11.4735L2.70208 10.599C2.70264 10.5841 2.70354 10.5692 2.70477 10.5544L2.70776 10.5181C2.73901 10.139 2.77874 9.65684 2.9031 9.19716C4.05051 4.94443 7.83973 1.89 12.325 2.00304L12.3278 2.00312C16.3749 2.11646 19.7531 4.86995 21.0114 8.5637C21.1893 9.08604 20.9136 9.6549 20.3954 9.83429C19.8773 10.0137 19.3131 9.73567 19.1351 9.21333C18.1251 6.24814 15.4322 4.09139 12.274 4.00238C8.75367 3.91434 5.73823 6.30793 4.81718 9.72268L4.81699 9.7234C4.74645 9.98416 4.71769 10.2867 4.68355 10.6983L4.65104 11.5503C4.62999 12.1022 4.16916 12.5324 3.62175 12.5111Z" clip-rule="evenodd"/><path fill="#000" fill-rule="evenodd" d="M3.63159 12.9824C3.36209 12.9747 3.10733 12.8566 2.92597 12.6555L1.25794 10.8057C0.889443 10.397 0.919315 9.7646 1.32466 9.39309C1.73001 9.02158 2.35733 9.0517 2.72583 9.46036L3.70074 10.5415L4.73336 9.52012C5.12439 9.13333 5.7524 9.13936 6.13605 9.53359C6.5197 9.92781 6.51372 10.5609 6.12269 10.9477L4.35458 12.6967C4.16212 12.887 3.9011 12.9902 3.63159 12.9824Z" clip-rule="evenodd"/><path fill="#000" fill-rule="evenodd" d="M7.60498 10.6046C7.60498 8.18454 9.6363 6.34222 11.9997 6.34222C14.363 6.34222 16.3943 8.18454 16.3943 10.6046C16.3943 12.4427 15.3721 14.1708 14.4914 15.3416C14.0355 15.9476 13.5817 16.4508 13.2423 16.8026C13.072 16.979 12.929 17.1188 12.827 17.216C12.776 17.2646 12.7351 17.3026 12.706 17.3293L12.6715 17.3608L12.6613 17.37L12.658 17.373L12.6568 17.374C12.6566 17.3742 12.6559 17.3748 11.9997 16.625C11.3393 17.3712 11.3391 17.371 11.3389 17.3708L11.3373 17.3693L11.334 17.3664L11.3239 17.3571L11.2895 17.3255C11.2606 17.2986 11.2198 17.2603 11.1688 17.2113C11.0671 17.1134 10.9243 16.9726 10.7543 16.795C10.4154 16.441 9.96219 15.9351 9.50686 15.3275C8.62852 14.1555 7.60498 12.4268 7.60498 10.6046ZM11.9997 16.625L11.3389 17.3708C11.7136 17.7078 12.2794 17.7097 12.6559 17.3748L11.9997 16.625ZM12.0026 15.2155C12.2713 14.9262 12.5917 14.5571 12.9107 14.133C13.7314 13.042 14.4105 11.7599 14.4105 10.6046C14.4105 9.39236 13.3727 8.34222 11.9997 8.34222C10.6266 8.34222 9.58878 9.39236 9.58878 10.6046C9.58878 11.7422 10.2666 13.0236 11.0897 14.1219C11.4105 14.5499 11.7327 14.9231 12.0026 15.2155Z" clip-rule="evenodd"/></svg>