<svg xmlns="http://www.w3.org/2000/svg" fill="none" viewBox="0 0 24 24"><path fill="#000" fill-rule="evenodd" d="M20.3778 11.4889C20.9252 11.5101 21.3519 11.9747 21.3308 12.5266L21.2974 13.4011C21.2969 13.4159 21.296 13.4308 21.2947 13.4457L21.2917 13.482C21.2605 13.8611 21.2208 14.3432 21.0964 14.8029C19.949 19.0556 16.1598 22.1101 11.6745 21.997L11.6717 21.9969C7.62459 21.8836 4.24642 19.1301 2.98813 15.4364C2.8102 14.914 3.08596 14.3452 3.60407 14.1658C4.12218 13.9864 4.68643 14.2644 4.86436 14.7867C5.87446 17.7519 8.56731 19.9087 11.7255 19.9977C15.2458 20.0857 18.2613 17.6921 19.1823 14.2774L19.1825 14.2767C19.2531 14.0159 19.2818 13.7134 19.316 13.3018L19.3485 12.4497C19.3695 11.8979 19.8304 11.4677 20.3778 11.4889Z" clip-rule="evenodd"/><path fill="#000" fill-rule="evenodd" d="M20.3679 11.0176C20.6374 11.0254 20.8922 11.1434 21.0735 11.3445L22.7416 13.1944C23.1101 13.603 23.0802 14.2355 22.6749 14.607C22.2695 14.9785 21.6422 14.9484 21.2737 14.5397L20.2988 13.4585L19.2662 14.4799C18.8751 14.8667 18.2471 14.8607 17.8635 14.4665C17.4798 14.0722 17.4858 13.4391 17.8768 13.0523L19.6449 11.3034C19.8374 11.113 20.0984 11.0099 20.3679 11.0176Z" clip-rule="evenodd"/><path fill="#000" fill-rule="evenodd" d="M3.62175 12.5111C3.07435 12.4899 2.64766 12.0253 2.66871 11.4735L2.70208 10.599C2.70264 10.5841 2.70354 10.5692 2.70477 10.5544L2.70776 10.5181C2.73901 10.139 2.77874 9.65684 2.9031 9.19716C4.05051 4.94443 7.83973 1.89 12.325 2.00304L12.3278 2.00312C16.3749 2.11646 19.7531 4.86995 21.0114 8.5637C21.1893 9.08604 20.9136 9.6549 20.3954 9.83429C19.8773 10.0137 19.3131 9.73567 19.1351 9.21333C18.1251 6.24814 15.4322 4.09139 12.274 4.00238C8.75367 3.91434 5.73823 6.30793 4.81718 9.72268L4.81699 9.7234C4.74645 9.98416 4.71769 10.2867 4.68355 10.6983L4.65104 11.5503C4.62999 12.1022 4.16916 12.5324 3.62175 12.5111Z" clip-rule="evenodd"/><path fill="#000" fill-rule="evenodd" d="M3.63159 12.9824C3.36209 12.9747 3.10733 12.8566 2.92597 12.6555L1.25794 10.8057C0.889443 10.397 0.919315 9.7646 1.32466 9.39309C1.73001 9.02158 2.35733 9.0517 2.72583 9.46036L3.70074 10.5415L4.73336 9.52012C5.12439 9.13333 5.7524 9.13936 6.13605 9.53359C6.5197 9.92781 6.51372 10.5609 6.12269 10.9477L4.35458 12.6967C4.16212 12.887 3.9011 12.9902 3.63159 12.9824Z" clip-rule="evenodd"/><path fill="#000" fill-rule="evenodd" d="M8.21287 10.1992C7.4655 10.6983 7 11.5641 7 12.4812V12.5532C7 13.8772 8.00624 15.3454 9.72015 15.3454L13.6797 15.3454C15.5093 15.3845 16.769 14.1055 16.9711 12.6149C17.1011 11.6561 16.7708 10.5677 15.9592 9.85438C15.543 8.46467 14.315 7.33655 12.6727 7.33655H12.5767C11.7733 7.33655 11.0208 7.65231 10.4638 8.11186C10.3065 8.24165 10.1486 8.39723 10.0028 8.5772C9.18091 8.83863 8.55095 9.45117 8.21287 10.1992ZM9.93618 13.737C9.92743 13.737 9.91388 13.737 9.89638 13.7366C9.90962 13.7369 9.92288 13.737 9.93618 13.737ZM9.94164 11.3615C9.93803 11.3981 9.93618 11.4353 9.93618 11.473V11.737C9.93979 11.737 9.9396 11.7376 9.93618 11.7385C9.9194 11.743 9.82488 11.7567 9.72015 11.7602C9.7043 11.7607 9.68822 11.761 9.67213 11.761C9.31206 11.761 9 12.0731 9 12.4812V12.5532C9 12.9682 9.28784 13.3167 9.67213 13.3437C9.68798 13.3448 9.70399 13.3454 9.72015 13.3454H13.7049C15.2653 13.3934 15.4333 11.377 14.113 11.1129V10.8969C14.113 10.0327 13.4649 9.33655 12.6727 9.33655H12.5767C12.0419 9.33655 11.4243 9.75029 11.3385 10.3089C11.3319 10.352 11.3285 10.396 11.3285 10.4408H10.8964C10.4079 10.4408 10.0016 10.8309 9.94335 11.3454C9.94274 11.3507 9.94217 11.3561 9.94164 11.3615Z" clip-rule="evenodd"/></svg>