<svg  viewBox="0 0 24 24" fill="none" xmlns="http://www.w3.org/2000/svg">
<path fill-rule="evenodd" clip-rule="evenodd" d="M20.3778 11.4889C20.9252 11.5101 21.3519 11.9747 21.3308 12.5266L21.2974 13.4011C21.2969 13.4159 21.296 13.4308 21.2947 13.4457L21.2917 13.482C21.2605 13.8611 21.2208 14.3432 21.0964 14.8029C19.949 19.0556 16.1598 22.1101 11.6745 21.997L11.6717 21.9969C7.62459 21.8836 4.24642 19.1301 2.98813 15.4364C2.8102 14.914 3.08596 14.3452 3.60407 14.1658C4.12218 13.9864 4.68643 14.2644 4.86436 14.7867C5.87446 17.7519 8.56731 19.9087 11.7255 19.9977C15.2458 20.0857 18.2613 17.6921 19.1823 14.2774L19.1825 14.2767C19.2531 14.0159 19.2818 13.7134 19.316 13.3018L19.3485 12.4497C19.3695 11.8979 19.8304 11.4677 20.3778 11.4889Z" fill="black"/>
<path fill-rule="evenodd" clip-rule="evenodd" d="M20.3679 11.0176C20.6374 11.0254 20.8922 11.1434 21.0735 11.3445L22.7416 13.1944C23.1101 13.603 23.0802 14.2355 22.6749 14.607C22.2695 14.9785 21.6422 14.9484 21.2737 14.5397L20.2988 13.4585L19.2662 14.4799C18.8751 14.8667 18.2471 14.8607 17.8635 14.4665C17.4798 14.0722 17.4858 13.4391 17.8768 13.0523L19.6449 11.3034C19.8374 11.113 20.0984 11.0099 20.3679 11.0176Z" fill="black"/>
<path fill-rule="evenodd" clip-rule="evenodd" d="M3.62175 12.5111C3.07435 12.4899 2.64766 12.0253 2.66871 11.4735L2.70208 10.599C2.70264 10.5841 2.70354 10.5692 2.70477 10.5544L2.70776 10.5181C2.73901 10.139 2.77874 9.65684 2.9031 9.19716C4.05051 4.94443 7.83973 1.89 12.325 2.00304L12.3278 2.00312C16.3749 2.11646 19.7531 4.86995 21.0114 8.5637C21.1893 9.08604 20.9136 9.6549 20.3954 9.83429C19.8773 10.0137 19.3131 9.73567 19.1351 9.21333C18.1251 6.24814 15.4322 4.09139 12.274 4.00238C8.75367 3.91434 5.73823 6.30793 4.81718 9.72268L4.81699 9.7234C4.74645 9.98416 4.71769 10.2867 4.68355 10.6983L4.65104 11.5503C4.62999 12.1022 4.16916 12.5324 3.62175 12.5111Z" fill="black"/>
<path fill-rule="evenodd" clip-rule="evenodd" d="M3.63159 12.9824C3.36209 12.9747 3.10733 12.8566 2.92597 12.6555L1.25794 10.8057C0.889443 10.397 0.919315 9.7646 1.32466 9.39309C1.73001 9.02158 2.35733 9.0517 2.72583 9.46036L3.70074 10.5415L4.73336 9.52012C5.12439 9.13333 5.7524 9.13936 6.13605 9.53359C6.5197 9.92781 6.51372 10.5609 6.12269 10.9477L4.35458 12.6967C4.16212 12.887 3.9011 12.9902 3.63159 12.9824Z" fill="black"/>
<path fill-rule="evenodd" clip-rule="evenodd" d="M11.9765 7.00002C12.3645 6.99786 12.7188 7.22034 12.8853 7.57079L13.9114 9.73003L16.1446 10.0564C16.5168 10.1108 16.827 10.3694 16.9474 10.7258C17.0678 11.0821 16.9781 11.4759 16.7151 11.7449L15.0584 13.4396L15.4447 15.8412C15.5057 16.2203 15.3442 16.6009 15.0292 16.8204C14.7141 17.04 14.3012 17.0597 13.9666 16.8713L11.9821 15.7533L9.99758 16.8713C9.66112 17.0608 9.24559 17.0397 8.93009 16.817C8.61458 16.5943 8.45551 16.2098 8.52143 15.8293L8.93636 13.4342L7.28495 11.7449C7.022 11.4759 6.93224 11.0821 7.05264 10.7258C7.17304 10.3694 7.48323 10.1108 7.85543 10.0564L10.0816 9.73107L11.0742 7.58087C11.2368 7.22859 11.5885 7.00218 11.9765 7.00002ZM11.9952 10.3575L11.6703 11.0613C11.5286 11.3683 11.2415 11.5828 10.907 11.6317L10.0881 11.7514L10.7241 12.4019C10.9486 12.6316 11.0491 12.9551 10.9943 13.2716L10.8518 14.0945L11.4913 13.7343C11.796 13.5626 12.1682 13.5626 12.4729 13.7343L13.1406 14.1104L13.0038 13.2598C12.9534 12.9468 13.0544 12.6285 13.276 12.4019L13.9119 11.7514L13.0931 11.6317C12.7625 11.5834 12.4779 11.3732 12.3345 11.0714L11.9952 10.3575Z" fill="black"/>
</svg>
