<svg xmlns="http://www.w3.org/2000/svg" fill="none" viewBox="0 0 24 24"><path fill="#000" fill-rule="evenodd" d="M5 5C5 3.89543 5.89543 3 7 3L17 3C18.1046 3 19 3.89543 19 5L19 20C19 20.388 18.7755 20.741 18.4242 20.9056C18.0728 21.0702 17.6579 21.0166 17.3598 20.7682L12 16.3017L6.64018 20.7682C6.3421 21.0166 5.92723 21.0702 5.57584 20.9056C5.22446 20.741 5 20.388 5 20L5 5ZM17 5L7 5L7 17.865L11.3598 14.2318C11.7307 13.9227 12.2693 13.9227 12.6402 14.2318L17 17.865V5Z" clip-rule="evenodd"/><path fill="#000" fill-rule="evenodd" d="M9.58312 9.19919C9.34049 9.23465 9.24057 9.53041 9.41198 9.70575L10.4011 10.7176C10.4065 10.7231 10.4117 10.7288 10.4166 10.7346C10.4707 10.7992 10.4953 10.8838 10.4838 10.9678C10.4835 10.9702 10.4832 10.9725 10.4828 10.9749L10.2559 12.3855C10.216 12.6335 10.4804 12.8178 10.6993 12.6945L11.8663 12.0371C11.9577 11.9856 12.0694 11.9856 12.1608 12.0371L13.3277 12.6945C13.5466 12.8178 13.8111 12.6335 13.7712 12.3854L13.544 10.9733C13.5302 10.8877 13.5542 10.8008 13.6089 10.7345C13.6137 10.7288 13.6186 10.7232 13.6238 10.7178L14.5965 9.70475C14.7654 9.52877 14.6649 9.23541 14.4235 9.20013L13.0892 9.00515C12.9888 8.99048 12.9027 8.92611 12.8602 8.83404L12.282 7.58149C12.1754 7.35056 11.8478 7.34874 11.7386 7.57846L11.1407 8.83675C11.0977 8.92728 11.0123 8.99034 10.9131 9.00483L9.58312 9.19919Z" clip-rule="evenodd"/></svg>