<svg  viewBox="0 0 24 24" fill="none" xmlns="http://www.w3.org/2000/svg">
<path fill-rule="evenodd" clip-rule="evenodd" d="M5 5C5 3.89543 5.89543 3 7 3L17 3C18.1046 3 19 3.89543 19 5L19 20C19 20.388 18.7755 20.741 18.4242 20.9056C18.0728 21.0702 17.6579 21.0166 17.3598 20.7682L12 16.3017L6.64018 20.7682C6.3421 21.0166 5.92723 21.0702 5.57584 20.9056C5.22446 20.741 5 20.388 5 20L5 5ZM17 5L7 5L7 17.865L11.3598 14.2318C11.7307 13.9227 12.2693 13.9227 12.6402 14.2318L17 17.865V5Z" fill="black"/>
</svg>
