<svg xmlns="http://www.w3.org/2000/svg" fill="none" viewBox="0 0 24 24"><path fill="#000" fill-rule="evenodd" d="M12.9697 3C12.9697 2.44772 12.522 2 11.9697 2C11.4174 2 10.9697 2.44772 10.9697 3V4.97931H4.88965C4.33736 4.97931 3.88965 5.42702 3.88965 5.97931C3.88965 6.25755 4.00329 6.50925 4.18668 6.69053L2.05111 13.112C1.94971 13.4169 2.001 13.752 2.18897 14.0126C2.37694 14.2732 2.67869 14.4276 3.00001 14.4276H7.50001C7.82133 14.4276 8.12308 14.2732 8.31105 14.0126C8.49902 13.752 8.55031 13.4169 8.44891 13.112L6.40937 6.97931H10.9697V20H9.47998C8.9277 20 8.47998 20.4477 8.47998 21C8.47998 21.5523 8.9277 22 9.47998 22H14.46C15.0123 22 15.46 21.5523 15.46 21C15.46 20.4477 15.0123 20 14.46 20H12.9697V6.97931H17.5906L15.5511 13.112C15.4497 13.4169 15.501 13.752 15.689 14.0126C15.8769 14.2732 16.1787 14.4276 16.5 14.4276H21C21.3213 14.4276 21.6231 14.2732 21.811 14.0126C21.999 13.752 22.0503 13.4169 21.9489 13.112L19.7976 6.64312C19.9544 6.46655 20.0497 6.23405 20.0497 5.97931C20.0497 5.42702 19.6019 4.97931 19.0497 4.97931H12.9697V3ZM6.11359 12.4276L5.25001 9.83087L4.38643 12.4276H6.11359ZM19.6136 12.4276L18.75 9.83087L17.8864 12.4276H19.6136Z" clip-rule="evenodd"/></svg>