<svg  viewBox="0 0 24 24" fill="none" xmlns="http://www.w3.org/2000/svg">
<path fill-rule="evenodd" clip-rule="evenodd" d="M5.29757 18.0024C5.13779 17.8426 4.99627 17.5517 5.00028 17.0174C5.00433 16.4781 5.16014 15.7752 5.50292 14.9427C5.70549 14.4508 5.96649 13.9302 6.28239 13.3922C6.80386 14.0367 7.37895 14.6763 8.00132 15.2987C8.62369 15.9211 9.26331 16.4961 9.90779 17.0176C9.36982 17.3335 8.84922 17.5945 8.35727 17.7971C7.52481 18.1399 6.8219 18.2957 6.28264 18.2997C5.74832 18.3037 5.45736 18.1622 5.29757 18.0024ZM11.65 18.2902C10.7848 18.8549 9.93103 19.3122 9.11885 19.6466C8.14147 20.0491 7.17669 20.2933 6.29764 20.2999C5.41365 20.3065 4.5357 20.0693 3.88322 19.4168C3.23073 18.7643 2.9935 17.8863 3.00013 17.0024C3.00673 16.1233 3.25093 15.1585 3.65338 14.1811C3.9878 13.369 4.44512 12.5152 5.00984 11.65C4.44512 10.7848 3.9878 9.93103 3.65338 9.11885C3.25093 8.14147 3.00673 7.17669 3.00013 6.29764C2.9935 5.41365 3.23073 4.53571 3.88322 3.88322C4.5357 3.23074 5.41365 2.99351 6.29764 3.00014C7.17669 3.00673 8.14147 3.25093 9.11885 3.65338C9.93103 3.98781 10.7848 4.44512 11.65 5.00984C12.5152 4.44512 13.369 3.98781 14.1812 3.65338C15.1585 3.25093 16.1233 3.00673 17.0024 3.00013C17.8864 2.9935 18.7643 3.23073 19.4168 3.88322C20.0693 4.5357 20.3065 5.41365 20.2999 6.29764C20.2933 7.17669 20.0491 8.14147 19.6466 9.11885C19.3122 9.93103 18.8549 10.7848 18.2902 11.65C18.8549 12.5152 19.3122 13.369 19.6466 14.1812C20.0491 15.1585 20.2933 16.1233 20.2999 17.0024C20.3065 17.8864 20.0693 18.7643 19.4168 19.4168C18.7643 20.0693 17.8864 20.3065 17.0024 20.2999C16.1233 20.2933 15.1585 20.0491 14.1812 19.6466C13.369 19.3122 12.5152 18.8549 11.65 18.2902ZM17.0176 13.3922C17.3335 13.9302 17.5945 14.4508 17.7971 14.9427C18.1399 15.7752 18.2957 16.4781 18.2997 17.0174C18.3037 17.5517 18.1622 17.8426 18.0024 18.0024C17.8426 18.1622 17.5517 18.3037 17.0174 18.2997C16.4781 18.2957 15.7752 18.1399 14.9427 17.7971C14.4508 17.5945 13.9302 17.3335 13.3922 17.0176C14.0367 16.4961 14.6763 15.921 15.2987 15.2987C15.921 14.6763 16.4961 14.0367 17.0176 13.3922ZM15.8426 11.65C15.2768 12.3939 14.6213 13.1474 13.8843 13.8843C13.1474 14.6213 12.3939 15.2768 11.65 15.8426C10.9061 15.2768 10.1526 14.6213 9.41568 13.8843C8.67873 13.1474 8.02325 12.3939 7.45743 11.65C8.02325 10.9061 8.67873 10.1526 9.41568 9.41568C10.1526 8.67873 10.9061 8.02325 11.65 7.45743C12.3939 8.02325 13.1474 8.67873 13.8843 9.41568C14.6213 10.1526 15.2768 10.9061 15.8426 11.65ZM17.0176 9.9078C17.3335 9.36982 17.5945 8.84922 17.7971 8.35727C18.1399 7.52481 18.2957 6.8219 18.2997 6.28264C18.3037 5.74832 18.1622 5.45736 18.0024 5.29757C17.8426 5.13779 17.5517 4.99627 17.0174 5.00028C16.4781 5.00433 15.7752 5.16014 14.9427 5.50292C14.4508 5.70549 13.9302 5.96649 13.3922 6.2824C14.0367 6.80386 14.6763 7.37896 15.2987 8.00132C15.921 8.62369 16.4961 9.26332 17.0176 9.9078ZM9.90779 6.2824C9.36982 5.96649 8.84922 5.70549 8.35727 5.50293C7.52481 5.16015 6.8219 5.00433 6.28264 5.00029C5.74832 4.99628 5.45736 5.13779 5.29757 5.29758C5.13779 5.45737 4.99627 5.74833 5.00028 6.28264C5.00433 6.8219 5.16014 7.52481 5.50292 8.35728C5.70549 8.84922 5.96649 9.36982 6.28239 9.9078C6.80386 9.26332 7.37895 8.62369 8.00132 8.00132C8.62369 7.37895 9.26331 6.80386 9.90779 6.2824Z" fill="black"/>
</svg>
