<svg xmlns="http://www.w3.org/2000/svg" fill="none" viewBox="0 0 24 24"><path fill="#000" fill-rule="evenodd" d="M9.82079 7.3556C9.95291 6.86889 10.1044 6.42151 10.2714 6.02065C10.5806 5.27864 10.9233 4.74345 11.2527 4.40905C11.5787 4.07817 11.8306 4 12 4C12.1694 4 12.4213 4.07817 12.7473 4.40905C13.0767 4.74345 13.4194 5.27864 13.7286 6.02065C13.8956 6.42151 14.0471 6.86889 14.1792 7.3556C13.4759 7.28623 12.7462 7.25 12 7.25C11.2538 7.25 10.5241 7.28623 9.82079 7.3556ZM7.68434 7.68434C7.87538 6.79167 8.12521 5.97158 8.42527 5.25142C8.79472 4.36476 9.26008 3.58193 9.82794 3.00548C10.3993 2.42551 11.1339 2 12 2C12.8661 2 13.6007 2.42551 14.1721 3.00548C14.7399 3.58193 15.2053 4.36476 15.5747 5.25142C15.8748 5.97158 16.1246 6.79167 16.3157 7.68434C17.2083 7.87538 18.0284 8.12521 18.7486 8.42527C19.6352 8.79472 20.4181 9.26008 20.9945 9.82794C21.5745 10.3993 22 11.1339 22 12C22 12.8661 21.5745 13.6007 20.9945 14.1721C20.4181 14.7399 19.6352 15.2053 18.7486 15.5747C18.0284 15.8748 17.2083 16.1246 16.3157 16.3157C16.1246 17.2083 15.8748 18.0284 15.5747 18.7486C15.2053 19.6352 14.7399 20.4181 14.1721 20.9945C13.6007 21.5745 12.8661 22 12 22C11.1339 22 10.3993 21.5745 9.82794 20.9945C9.26008 20.4181 8.79472 19.6352 8.42527 18.7486C8.12521 18.0284 7.87538 17.2083 7.68434 16.3157C6.79166 16.1246 5.97158 15.8748 5.25142 15.5747C4.36476 15.2053 3.58193 14.7399 3.00548 14.1721C2.42551 13.6007 2 12.8661 2 12C2 11.1339 2.42551 10.3993 3.00548 9.82794C3.58193 9.26008 4.36476 8.79472 5.25142 8.42527C5.97158 8.12521 6.79166 7.87538 7.68434 7.68434ZM7.3556 14.1792C6.86889 14.0471 6.42151 13.8956 6.02065 13.7286C5.27864 13.4194 4.74345 13.0767 4.40905 12.7473C4.07817 12.4213 4 12.1694 4 12C4 11.8306 4.07817 11.5787 4.40905 11.2527C4.74345 10.9233 5.27864 10.5806 6.02065 10.2714C6.42151 10.1044 6.86889 9.95291 7.3556 9.82079C7.28623 10.5241 7.25 11.2538 7.25 12C7.25 12.7462 7.28623 13.4759 7.3556 14.1792ZM9.41513 14.5849C9.30859 13.776 9.25 12.9077 9.25 12C9.25 11.0923 9.30859 10.224 9.41513 9.41513C10.224 9.30859 11.0923 9.25 12 9.25C12.9077 9.25 13.776 9.30859 14.5849 9.41513C14.6914 10.224 14.75 11.0923 14.75 12C14.75 12.9077 14.6914 13.776 14.5849 14.5849C13.776 14.6914 12.9077 14.75 12 14.75C11.0923 14.75 10.224 14.6914 9.41513 14.5849ZM9.82079 16.6444C9.95291 17.1311 10.1044 17.5785 10.2714 17.9793C10.5806 18.7214 10.9233 19.2565 11.2527 19.591C11.5787 19.9218 11.8306 20 12 20C12.1694 20 12.4213 19.9218 12.7473 19.591C13.0767 19.2565 13.4194 18.7214 13.7286 17.9793C13.8956 17.5785 14.0471 17.1311 14.1792 16.6444C13.4759 16.7138 12.7462 16.75 12 16.75C11.2538 16.75 10.5241 16.7138 9.82079 16.6444ZM16.6444 14.1792C17.1311 14.0471 17.5785 13.8956 17.9793 13.7286C18.7214 13.4194 19.2565 13.0767 19.591 12.7473C19.9218 12.4213 20 12.1694 20 12C20 11.8306 19.9218 11.5787 19.591 11.2527C19.2565 10.9233 18.7214 10.5806 17.9793 10.2714C17.5785 10.1044 17.1311 9.95291 16.6444 9.82079C16.7138 10.5241 16.75 11.2538 16.75 12C16.75 12.7462 16.7138 13.4759 16.6444 14.1792Z" clip-rule="evenodd"/></svg>