<svg xmlns="http://www.w3.org/2000/svg" fill="none" viewBox="0 0 24 24"><path fill="#000" d="M21.2 1H2.8C1.8 1 1 1.8 1 2.9V14.2C1 15.2 1.8 16.1 2.8 16.1H11C11 16.2 11.1 16.4 11.1 16.5C11.3 17 11.4 17.6 11.6 18.1C11.9 19 12.2 20 12.5 20.9C12.6 21.3 13 22.1 13.8 22.1C14.6 22.1 15.1 21.3 15.3 20.9C15.4 20.6 15.5 20.3 15.6 20V19.9L18.2 22.7C18.4 23 18.8 23.1 19.1 23.1C19.4 23.1 19.8 23 20 22.7L21.5 21.1C21.7 20.9 21.8 20.6 21.9 20.3C21.9 19.9 21.8 19.6 21.6 19.3L18.9 16.3C19 16.3 19.1 16.2 19.1 16.2H19.2H21.2C22.2 16.2 23 15.4 23 14.3V2.9C23 1.8 22.2 1 21.2 1ZM3 14V3H21V13.5C20.8 13.2 20.5 12.9 19.9 12.7C18.3 12.1 15.8 11 13.5 10C12.3 9.5 11.2 9 10.4 8.6C10 8.4 9.6 8.5 9.3 8.8C9 9 8.9 9.5 9.1 9.8C9.4 10.7 9.8 11.9 10.1 13C10.2 13.3 10.3 13.6 10.4 13.9H3V14ZM19.7 20L19.2 20.6L16.1 17.2C15.9 17 15.6 16.9 15.4 16.9C15.3 16.9 15.3 16.9 15.2 16.9C14.9 17 14.6 17.2 14.5 17.6C14.4 17.9 14.3 18.1 14.2 18.4L14 18.7C14 18.7 14 18.7 14 18.8C13.9 18.4 13.7 17.9 13.6 17.5C13.4 16.9 13.3 16.4 13.1 15.8C12.8 14.8 12.4 13.7 12.1 12.5C12 12.1 11.9 11.7 11.7 11.3C12 11.5 12.4 11.6 12.7 11.8C14.6 12.7 16.7 13.6 18.3 14.3C18.1 14.4 17.9 14.5 17.6 14.6C17.3 14.7 17.1 14.8 16.8 14.9C16.5 15 16.3 15.3 16.2 15.6C16.1 15.9 16.2 16.2 16.4 16.5L19.7 20Z"/><path fill="#000" d="M19 6C19 5.4 18.6 5 18 5H6C5.4 5 5 5.4 5 6C5 6.6 5.4 7 6 7H18C18.6 7 19 6.6 19 6Z"/></svg>