<svg xmlns="http://www.w3.org/2000/svg" fill="none" viewBox="0 0 24 24"><path fill="#0C1720" fill-rule="evenodd" d="M16 6C16 4.89543 16.8954 4 18 4C19.1046 4 20 4.89543 20 6C20 7.10457 19.1046 8 18 8C16.8954 8 16 7.10457 16 6ZM18 2C15.7909 2 14 3.79086 14 6C14 6.25283 14.0235 6.50019 14.0683 6.74001L8.69405 9.04326C7.98319 8.39518 7.03774 8 6 8C3.79086 8 2 9.79086 2 12C2 14.2091 3.79086 16 6 16C7.05991 16 8.02353 15.5878 8.73928 14.9149L14.0707 17.2474C14.0243 17.4911 14 17.7427 14 18C14 20.2091 15.7909 22 18 22C20.2091 22 22 20.2091 22 18C22 15.7909 20.2091 14 18 14C16.7651 14 15.6609 14.5596 14.9272 15.439L9.81597 13.2029C9.93553 12.8232 10 12.4191 10 12C10 11.5618 9.92954 11.1401 9.79933 10.7455L14.9191 8.5513C15.6528 9.43631 16.7606 10 18 10C20.2091 10 22 8.20914 22 6C22 3.79086 20.2091 2 18 2ZM18 16C16.8954 16 16 16.8954 16 18C16 19.1046 16.8954 20 18 20C19.1046 20 20 19.1046 20 18C20 16.8954 19.1046 16 18 16ZM4 12C4 10.8954 4.89543 10 6 10C7.10457 10 8 10.8954 8 12C8 13.1046 7.10457 14 6 14C4.89543 14 4 13.1046 4 12Z" clip-rule="evenodd"/></svg>