<svg  viewBox="0 0 24 24" fill="none" xmlns="http://www.w3.org/2000/svg">
<path fill-rule="evenodd" clip-rule="evenodd" d="M12 2C12.3939 2 12.7511 2.23118 12.9123 2.59049L15.2909 7.88957L21.1043 8.49887C21.4977 8.5401 21.8298 8.80935 21.9515 9.18571C22.0732 9.56207 21.9617 9.97481 21.6669 10.2386L17.3291 14.1206L18.5403 19.7911C18.6227 20.1769 18.4706 20.5751 18.1519 20.8077C17.8333 21.0403 17.4077 21.0638 17.0653 20.8677L12 17.9665L6.93474 20.8677C6.59241 21.0638 6.1668 21.0403 5.84815 20.8077C5.52951 20.5751 5.37739 20.1769 5.45979 19.7911L6.67094 14.1206L2.33316 10.2386C2.03841 9.97481 1.92684 9.56207 2.04856 9.18571C2.17028 8.80935 2.5024 8.5401 2.8958 8.49887L8.70913 7.88957L11.0877 2.59049C11.249 2.23118 11.6062 2 12 2Z" fill="black"/>
</svg>
