<svg  viewBox="0 0 24 24" fill="none" xmlns="http://www.w3.org/2000/svg">
<path fill-rule="evenodd" clip-rule="evenodd" d="M8.28 2C8.01479 2 7.76043 2.10536 7.5729 2.29289L2.29289 7.5729C2.10536 7.76043 2 8.01479 2 8.28L2 15.72C2 15.9852 2.10536 16.2396 2.29289 16.4271L7.5729 21.7071C7.76043 21.8946 8.01479 22 8.28 22L15.72 22C15.9852 22 16.2396 21.8946 16.4271 21.7071L21.7071 16.4271C21.8946 16.2396 22 15.9852 22 15.72L22 8.28C22 8.01479 21.8946 7.76043 21.7071 7.5729L16.4271 2.29289C16.2396 2.10536 15.9852 2 15.72 2L8.28 2ZM4 8.69422L8.69422 4L15.3058 4L20 8.69421L20 15.3058L15.3058 20L8.69421 20L4 15.3058L4 8.69422ZM6.94971 7.79999C6.94971 7.2477 7.39742 6.79999 7.94971 6.79999L16.3497 6.79999C16.902 6.79999 17.3497 7.2477 17.3497 7.79999V10.83C17.3497 11.3823 16.902 11.83 16.3497 11.83H16.33V16.2C16.33 16.7523 15.8823 17.2 15.33 17.2H9C8.44772 17.2 8 16.7523 8 16.2L8 11.83H7.94971C7.39742 11.83 6.94971 11.3823 6.94971 10.83L6.94971 7.79999ZM8.94971 8.79999V9.82999H9.7998V8.79999H8.94971ZM11.7998 8.79999V9.82999H12.6499V8.79999H11.7998ZM15.3497 9.82999H14.6499V8.79999H15.3497V9.82999ZM10 11.95V15.2H14.33V11.95H10Z" fill="black"/>
</svg>
