<svg  viewBox="0 0 24 24" fill="none" xmlns="http://www.w3.org/2000/svg">
<path fill-rule="evenodd" clip-rule="evenodd" d="M16.2351 2.20353C16.675 2.53749 16.7608 3.1648 16.4269 3.60468L15.3432 5.03213L16.6358 6.2162C17.043 6.58925 17.0707 7.22181 16.6977 7.62906C16.3246 8.0363 15.6921 8.06403 15.2848 7.69098L14.1286 6.63186L13.1569 7.91181C12.8229 8.35168 12.1956 8.43755 11.7557 8.10359C11.3158 7.76963 11.23 7.14232 11.5639 6.70244L12.6475 5.27516L11.3548 4.09097C10.9476 3.71792 10.9198 3.08536 11.2929 2.67811C11.6659 2.27087 12.2985 2.24314 12.7057 2.61619L13.8621 3.67543L14.834 2.39531C15.1679 1.95543 15.7952 1.86957 16.2351 2.20353ZM8.40128 5.09374C8.84263 5.42575 8.93127 6.05267 8.59927 6.49403L7.52281 7.92502L8.80828 9.1116C9.2141 9.48621 9.23941 10.1189 8.8648 10.5247C8.4902 10.9305 7.85754 10.9558 7.45172 10.5812L6.31442 9.5314L5.35925 10.8012C5.02725 11.2425 4.40032 11.3312 3.95897 10.9991C3.51762 10.6671 3.42897 10.0402 3.76098 9.59886L4.83736 8.16796L3.55171 6.98121C3.14588 6.60661 3.12058 5.97395 3.49518 5.56812C3.86978 5.1623 4.50244 5.137 4.90826 5.5116L6.04575 6.56158L7.00099 5.29173C7.33299 4.85038 7.95992 4.76174 8.40128 5.09374ZM12.0787 16.3116C11.6729 15.937 11.0402 15.9623 10.6656 16.3681C10.291 16.7739 10.3163 17.4066 10.7221 17.7812L12.0075 18.9677L10.9309 20.3988C10.5989 20.8402 10.6875 21.4671 11.1289 21.7991C11.5702 22.1311 12.1972 22.0425 12.5292 21.6011L13.4845 20.3311L14.6221 21.3812C15.028 21.7558 15.6606 21.7305 16.0352 21.3247C16.4098 20.9189 16.3845 20.2862 15.9787 19.9116L14.6929 18.7247L15.7692 17.294C16.1012 16.8526 16.0125 16.2257 15.5712 15.8937C15.1298 15.5617 14.5029 15.6503 14.1709 16.0917L13.2158 17.3613L12.0787 16.3116ZM11.556 9.91938C11.2223 9.86663 10.8844 9.98597 10.6579 10.2367L6.61688 14.7088C6.21513 14.516 5.76498 14.4072 5.28001 14.4072C3.36993 14.4072 2 16.0958 2 17.9465C2 19.7971 3.36994 21.4857 5.28001 21.4857C7.19008 21.4857 8.56001 19.7971 8.56001 17.9465C8.56001 17.2817 8.38327 16.6379 8.06823 16.0857L11.7787 11.9794L18.8197 13.0925L17.7319 14.0436C17.3161 14.4071 17.2738 15.0389 17.6373 15.4546C18.0009 15.8704 18.6326 15.9127 19.0484 15.5492L21.6584 13.2671C22.0496 12.925 22.1136 12.3403 21.8057 11.9217L19.7957 9.18951C19.4684 8.74465 18.8424 8.64933 18.3976 8.97661C17.9527 9.30389 17.8574 9.92984 18.1847 10.3747L18.6779 11.0452L11.556 9.91938ZM5.28001 16.4072C4.67166 16.4072 4 16.9923 4 17.9465C4 18.9006 4.67165 19.4857 5.28001 19.4857C5.88837 19.4857 6.56001 18.9006 6.56001 17.9465C6.56001 16.9923 5.88836 16.4072 5.28001 16.4072Z" fill="black"/>
</svg>
