<svg xmlns="http://www.w3.org/2000/svg" fill="none" viewBox="0 0 24 24"><path fill="#000" fill-rule="evenodd" d="M8.93409 19.1494C8.76772 18.8035 8.41761 18.5829 8.03296 18.5829H6.43314L6.43314 11.2501L8.23295 11.2501C8.66691 11.2501 9.05051 10.9703 9.18404 10.559L9.18529 10.5557C9.18947 10.5447 9.20013 10.5179 9.21938 10.4765C9.25781 10.3938 9.33092 10.2522 9.45593 10.0621C9.70537 9.68286 10.1659 9.10381 10.98 8.41259L10.9934 8.40101C11.9577 7.55249 12.3993 6.89289 13.0081 5.56787C13.0178 5.54671 13.0268 5.52522 13.035 5.50344L13.7016 3.73684C13.7124 3.70826 13.7219 3.67921 13.73 3.64977C13.853 3.20381 14.3248 2.91232 14.8054 3.02444L14.8123 3.02606L14.8123 3.02604C15.3307 3.14309 15.6043 3.64095 15.5023 4.04898L14.1814 8.50321C13.3945 8.93298 12.8687 9.79137 12.8333 10.7116C12.8328 10.7244 12.8325 10.7373 12.8325 10.7501V10.8168C12.8325 11.4185 13.0468 12.0138 13.423 12.4794C13.2793 12.6854 13.1647 12.914 13.086 13.1605C13.0794 13.18 13.0733 13.1998 13.0679 13.2199C13.0122 13.4103 12.9779 13.6108 12.9678 13.8194C12.8925 14.0765 12.7684 14.2333 12.6416 14.3419C12.4298 14.5234 12.1111 14.6513 11.7013 14.7163C11.2981 14.7802 10.8805 14.7714 10.5502 14.7418C10.3884 14.7273 10.2552 14.7086 10.1651 14.694C10.1201 14.6867 10.0864 14.6805 10.0656 14.6766L10.0446 14.6724L10.0441 14.6723C9.50453 14.5558 8.97255 14.8985 8.85565 15.4381C8.7387 15.9778 9.08146 16.5102 9.62122 16.6271L9.83297 15.6498C9.62122 16.6271 9.62159 16.6272 9.62197 16.6273L9.62281 16.6275L9.62478 16.6279L9.62983 16.629L9.64432 16.632C9.65589 16.6343 9.67129 16.6374 9.69027 16.641C9.72819 16.6483 9.78055 16.6578 9.84539 16.6683C9.97474 16.6892 10.1556 16.7145 10.3719 16.7338C10.7978 16.772 11.3927 16.7902 12.0144 16.6916C12.4067 16.6294 12.8412 16.5157 13.2587 16.3095C13.1865 16.5301 13.1432 16.7652 13.1337 17.0113C13.1332 17.0241 13.133 17.037 13.133 17.0498V17.0991C13.1167 17.6288 13.2745 18.1209 13.5503 18.5306C13.1841 18.9524 12.9579 19.4953 12.9337 20.0745C12.9332 20.0884 12.9329 20.1023 12.9329 20.1162V20.332C12.9256 20.5665 12.9509 20.7925 13.0044 21.0064C11.5749 20.9773 10.6307 20.6028 10.0301 20.2269C9.5922 19.9528 9.3074 19.6597 9.13749 19.4475C9.05237 19.3412 8.99625 19.2553 8.96461 19.2029C8.94883 19.1768 8.93926 19.1592 8.93533 19.1518L8.9341 19.1494L8.93409 19.1494ZM6.38711 9.2501L7.60706 9.2501C7.65871 9.16123 7.71769 9.06539 7.78492 8.96317C8.14289 8.41887 8.73024 7.70022 9.67856 6.89395C10.3699 6.28471 10.6624 5.8786 11.1762 4.76434L11.8159 3.06911C12.2456 1.61189 13.7548 0.727468 15.2565 1.07597C16.7981 1.42614 17.8557 2.98618 17.432 4.57481C17.4296 4.58371 17.4271 4.59257 17.4245 4.6014L16.348 8.23178L19.7408 8.28353C21.2054 8.28845 22.1988 9.55462 22.1988 10.8501V10.9168C22.1988 11.3235 22.1052 11.7034 21.9398 12.039C22.498 12.5127 22.8564 13.2154 22.8323 14.0006V14.0499C22.8323 14.5948 22.6642 15.0806 22.3831 15.4775C22.7798 15.9303 23.0191 16.5208 22.9993 17.1672V17.2165C22.9993 18.154 22.5016 18.9167 21.7872 19.352C21.8904 19.6343 21.9427 19.9425 21.9326 20.267V20.4829C21.9326 21.9068 20.7104 22.9161 19.3993 22.9161L19.3826 22.916L15.3901 22.8495C15.3251 22.8492 15.2606 22.8465 15.1967 22.8414C12.2537 23.3068 10.2621 22.7316 8.96896 21.9222C8.31528 21.513 7.86678 21.0603 7.5763 20.6975C7.54484 20.6582 7.51521 20.62 7.48737 20.5829H6.39738C6.28091 21.0061 5.89333 21.317 5.43314 21.317H2C1.44772 21.317 1 20.8692 1 20.317L1 9.55089C1 8.9986 1.44772 8.55089 2 8.55089H5.43314C5.88061 8.55089 6.25944 8.84479 6.38711 9.2501ZM4.43311 19.317L4.43311 10.5509H3L3 19.317H4.43311ZM15.3834 13.3848C15.2148 13.4417 15.0848 13.563 15.017 13.7094C15.005 13.8248 14.9886 13.9369 14.9677 14.0458C14.9951 14.2636 15.2222 14.5165 15.5326 14.5165L15.5469 14.5166L15.6693 14.5183C15.7015 14.5171 15.7339 14.5165 15.7663 14.5165L15.7806 14.5166L20.2646 14.5807C20.6393 14.5525 20.8323 14.2834 20.8323 14.0499V13.9832C20.8323 13.9699 20.8326 13.9566 20.8331 13.9433C20.8422 13.7155 20.6031 13.4166 20.2657 13.4166L20.2514 13.4165L20.0913 13.4142C19.9524 13.4378 19.8101 13.45 19.6655 13.45L19.6503 13.4499L15.3834 13.3848ZM15.2254 11.3764C15.3481 11.359 15.473 11.35 15.5993 11.35L15.6136 11.3501L19.8688 11.4108C20.0628 11.3323 20.1988 11.1437 20.1988 10.9168V10.8501C20.1988 10.6848 20.135 10.5332 20.0395 10.4286C19.9481 10.3285 19.8418 10.2835 19.7322 10.2835L19.717 10.2834L15.3506 10.2168C15.3417 10.2167 15.3329 10.2164 15.3241 10.216C15.1536 10.2089 14.8548 10.393 14.8325 10.7733V10.8168C14.8325 10.9821 14.8963 11.1337 14.9918 11.2383C15.0625 11.3158 15.1422 11.3603 15.2254 11.3764ZM20.4184 16.5831L20.2971 16.5814C20.2645 16.5825 20.2318 16.5831 20.199 16.5831L20.1847 16.583L15.7068 16.5191C15.3821 16.5466 15.151 16.7981 15.133 17.074V17.1165C15.133 17.1298 15.1327 17.1431 15.1322 17.1564C15.1231 17.3841 15.3621 17.683 15.6996 17.683L15.7139 17.6831L20.3718 17.7497C20.7858 17.747 20.9993 17.4621 20.9993 17.2165V17.1498C20.9993 17.1365 20.9995 17.1232 21.0001 17.1099C21.0092 16.8821 20.7701 16.5832 20.4327 16.5832L20.4184 16.5831ZM15.5304 20.8515C15.4303 20.824 15.3249 20.8118 15.2171 20.8172C15.0344 20.748 14.9246 20.5761 14.9321 20.3895C14.9326 20.3762 14.9329 20.3629 14.9329 20.3495V20.1425C14.9523 19.8683 15.1815 19.6724 15.4262 19.6822L15.4495 19.6828L19.4493 19.7495L19.466 19.7496C19.755 19.7496 19.9431 19.9672 19.9334 20.2096C19.9328 20.2229 19.9326 20.2362 19.9326 20.2496V20.4829C19.9326 20.6578 19.757 20.913 19.4058 20.9161L15.5304 20.8515Z" clip-rule="evenodd"/></svg>