<svg  viewBox="0 0 24 24" fill="none" xmlns="http://www.w3.org/2000/svg">
<path fill-rule="evenodd" clip-rule="evenodd" d="M8.93409 4.85865C8.76772 5.20455 8.41761 5.42512 8.03296 5.42512H6.43314L6.43314 12.758L8.23295 12.758C8.66691 12.758 9.05051 13.0377 9.18404 13.449L9.18529 13.4524C9.18947 13.4634 9.20013 13.4902 9.21938 13.5316C9.25781 13.6142 9.33092 13.7558 9.45593 13.9459C9.70537 14.3252 10.1659 14.9042 10.98 15.5955L10.9934 15.607C11.9577 16.4556 12.3993 17.1152 13.0081 18.4402C13.0178 18.4613 13.0268 18.4828 13.035 18.5046L13.7016 20.2712C13.7124 20.2998 13.7219 20.3288 13.73 20.3583C13.853 20.8042 14.3248 21.0957 14.8054 20.9836L14.8123 20.982L14.8123 20.982C15.3307 20.865 15.6043 20.3671 15.5023 19.9591L14.1814 15.5048C13.3945 15.0751 12.8687 14.2167 12.8333 13.2965C12.8328 13.2836 12.8325 13.2708 12.8325 13.2579V13.1912C12.8325 12.5896 13.0468 11.9942 13.423 11.5286C13.2793 11.3227 13.1647 11.094 13.086 10.8476C13.0794 10.828 13.0733 10.8082 13.0679 10.7881C13.0122 10.5978 12.9779 10.3973 12.9678 10.1887C12.8925 9.93154 12.7684 9.77472 12.6416 9.66612C12.4298 9.48466 12.1111 9.35672 11.7013 9.29175C11.2981 9.22783 10.8805 9.23668 10.5502 9.26625C10.3884 9.28074 10.2552 9.29948 10.1651 9.31408C10.1201 9.32135 10.0864 9.32752 10.0656 9.33149L10.0446 9.33563L10.0441 9.33572C9.50453 9.45224 8.97255 9.10955 8.85565 8.57C8.7387 8.03024 9.08146 7.49788 9.62122 7.38093L9.83297 8.35825C9.62122 7.38093 9.62159 7.38085 9.62197 7.38077L9.62281 7.38058L9.62478 7.38016L9.62983 7.37909L9.64432 7.37609C9.65589 7.37372 9.67129 7.37065 9.69027 7.36703C9.72819 7.35978 9.78055 7.35029 9.84539 7.33979C9.97474 7.31885 10.1556 7.29358 10.3719 7.27422C10.7978 7.23608 11.3927 7.21785 12.0144 7.31642C12.4067 7.37861 12.8412 7.49231 13.2587 7.6986C13.1865 7.478 13.1432 7.2429 13.1337 6.99676C13.1332 6.98393 13.133 6.97109 13.133 6.95825V6.90895C13.1167 6.37926 13.2745 5.88711 13.5503 5.47749C13.1841 5.05569 12.9579 4.51276 12.9337 3.93352C12.9332 3.91963 12.9329 3.90572 12.9329 3.89181V3.67602C12.9256 3.44151 12.9509 3.21552 13.0044 3.00167C11.5749 3.03073 10.6307 3.40524 10.0301 3.78117C9.5922 4.05529 9.3074 4.3484 9.13749 4.5606C9.05237 4.66691 8.99625 4.75273 8.96461 4.80511C8.94883 4.83125 8.93926 4.84887 8.93533 4.85629L8.9341 4.85865L8.93409 4.85865ZM6.38711 14.758L7.60706 14.758C7.65871 14.8468 7.71769 14.9427 7.78492 15.0449C8.14289 15.5892 8.73024 16.3078 9.67856 17.1141C10.3699 17.7233 10.6624 18.1295 11.1762 19.2437L11.8159 20.9389C12.2456 22.3962 13.7548 23.2806 15.2565 22.9321C16.7981 22.5819 17.8557 21.0219 17.432 19.4332C17.4296 19.4243 17.4271 19.4155 17.4245 19.4067L16.348 15.7763L19.7408 15.7245C21.2054 15.7196 22.1988 14.4534 22.1988 13.1579V13.0912C22.1988 12.6845 22.1052 12.3046 21.9398 11.9691C22.498 11.4954 22.8564 10.7927 22.8323 10.0075V9.95817C22.8323 9.41325 22.6642 8.92743 22.3831 8.5306C22.7798 8.07777 23.0191 7.48727 22.9993 6.8409V6.7916C22.9993 5.85405 22.5016 5.09141 21.7872 4.65601C21.8904 4.37373 21.9427 4.06552 21.9326 3.74101V3.52517C21.9326 2.10128 20.7104 1.09192 19.3993 1.09192L19.3826 1.09206L15.3901 1.15861C15.3251 1.15884 15.2606 1.16157 15.1967 1.1667C12.2537 0.70127 10.2621 1.27645 8.96896 2.0859C8.31528 2.49507 7.86678 2.94775 7.5763 3.31052C7.54484 3.34982 7.51521 3.38808 7.48737 3.42512H6.39738C6.28091 3.00195 5.89333 2.6911 5.43314 2.6911L2 2.6911C1.44772 2.6911 1 3.13882 1 3.6911L1 14.4572C1 15.0095 1.44772 15.4572 2 15.4572H5.43314C5.88061 15.4572 6.25944 15.1633 6.38711 14.758ZM4.43311 4.6911L4.43311 13.4572H3L3 4.6911H4.43311ZM15.3834 10.6232C15.2148 10.5664 15.0848 10.445 15.017 10.2986C15.005 10.1833 14.9886 10.0711 14.9677 9.96222C14.9951 9.74443 15.2222 9.4916 15.5326 9.4916L15.5469 9.4915L15.6693 9.48975C15.7015 9.49092 15.7339 9.49151 15.7663 9.49151L15.7806 9.49141L20.2646 9.42736C20.6393 9.45558 20.8323 9.72464 20.8323 9.95817V10.0249C20.8323 10.0382 20.8326 10.0515 20.8331 10.0648C20.8422 10.2926 20.6031 10.5915 20.2657 10.5915L20.2514 10.5916L20.0913 10.5939C19.9524 10.5703 19.8101 10.558 19.6655 10.558L19.6503 10.5582L15.3834 10.6232ZM15.2254 12.6317C15.3481 12.6491 15.473 12.6581 15.5993 12.6581L15.6136 12.658L19.8688 12.5972C20.0628 12.6757 20.1988 12.8643 20.1988 13.0912V13.1579C20.1988 13.3232 20.135 13.4749 20.0395 13.5795C19.9481 13.6795 19.8418 13.7245 19.7322 13.7245L19.717 13.7247L15.3506 13.7913C15.3417 13.7914 15.3329 13.7916 15.3241 13.792C15.1536 13.7991 14.8548 13.6151 14.8325 13.2347V13.1912C14.8325 13.026 14.8963 12.8743 14.9918 12.7697C15.0625 12.6923 15.1422 12.6478 15.2254 12.6317ZM20.4184 7.42495L20.2971 7.42669C20.2645 7.42552 20.2318 7.42493 20.199 7.42493L20.1847 7.42503L15.7068 7.48901C15.3821 7.46142 15.151 7.21 15.133 6.93402V6.89159C15.133 6.87828 15.1327 6.86496 15.1322 6.85166C15.1231 6.62392 15.3621 6.32502 15.6996 6.32502L15.7139 6.32492L20.3718 6.25838C20.7858 6.26103 20.9993 6.54597 20.9993 6.7916V6.85826C20.9993 6.87158 20.9995 6.88489 21.0001 6.89819C21.0092 7.12595 20.7701 7.42485 20.4327 7.42485L20.4184 7.42495ZM15.5304 3.15655C15.4303 3.18405 15.3249 3.19622 15.2171 3.19082C15.0344 3.26007 14.9246 3.43194 14.9321 3.61858C14.9326 3.63188 14.9329 3.64519 14.9329 3.65851V3.86554C14.9523 4.13975 15.1815 4.33567 15.4262 4.32588L15.4495 4.32522L19.4493 4.25855L19.466 4.25841C19.755 4.25841 19.9431 4.04086 19.9334 3.79843C19.9328 3.78513 19.9326 3.77181 19.9326 3.7585V3.52517C19.9326 3.35025 19.757 3.0951 19.4058 3.09195L15.5304 3.15655Z" fill="black"/>
</svg>
