<svg xmlns="http://www.w3.org/2000/svg" width="16" height="13" fill="none" viewBox="0 0 16 13"><path fill="#313E48" d="M16 2.32397C15.4124 2.56587 14.7772 2.72715 14.1181 2.80045C14.7931 2.4266 15.3171 1.83283 15.5633 1.12177C14.928 1.4663 14.2293 1.72287 13.4749 1.85482C12.8715 1.26838 12.0218 0.901855 11.0769 0.901855C9.2665 0.901855 7.79752 2.25799 7.79752 3.92934C7.79752 4.16392 7.82928 4.3985 7.88486 4.61841C5.15335 4.49379 2.73151 3.29159 1.11166 1.45897C0.825806 1.90613 0.666997 2.4266 0.666997 2.98371C0.666997 4.03197 1.24665 4.96294 2.12804 5.5054C1.58809 5.49074 1.0799 5.35146 0.643176 5.12421C0.643176 5.13887 0.643176 5.1462 0.643176 5.16087C0.643176 6.62696 1.77072 7.85115 3.2794 8.12971C3.00149 8.19569 2.71563 8.23234 2.4139 8.23234C2.1995 8.23234 1.99305 8.21035 1.79454 8.18102C2.21538 9.38322 3.42233 10.2629 4.85955 10.2849C3.73995 11.0986 2.31861 11.5824 0.786104 11.5824C0.524069 11.5824 0.262035 11.5677 0 11.5384C1.4531 12.3961 3.17618 12.9019 5.03424 12.9019C11.069 12.9019 14.3722 8.28365 14.3722 4.28121C14.3722 4.14926 14.3643 4.01731 14.3643 3.89269C15.0074 3.46752 15.5633 2.9324 16 2.32397Z"/></svg>