<svg  viewBox="0 0 24 24" fill="none" xmlns="http://www.w3.org/2000/svg">
<path fill-rule="evenodd" clip-rule="evenodd" d="M6.91326 6.88537C10.6055 3.0403 16.5982 3.0349 20.2618 6.88903C23.8918 10.7079 23.9348 16.8639 20.2583 20.6926C19.8758 21.091 19.2427 21.1038 18.8444 20.7213C18.446 20.3388 18.4332 19.7057 18.8157 19.3074C21.7405 16.2615 21.7168 11.3227 18.8122 8.26695C15.9413 5.24674 11.2659 5.24104 8.35672 8.26972C7.41796 9.25292 6.76994 10.4623 6.43447 11.7324L9.81892 9.86729C10.3026 9.60073 10.9108 9.77675 11.1774 10.2604C11.4439 10.7441 11.2679 11.3523 10.7842 11.6189L5.34979 14.6138C5.11234 14.7447 4.83194 14.7735 4.57283 14.6937C4.31372 14.6139 4.09811 14.4323 3.97541 14.1906L1.10816 8.54111C0.858208 8.04862 1.05482 7.44676 1.54731 7.19681C2.0398 6.94686 2.64166 7.14347 2.89161 7.63596L4.57552 10.9538C5.01124 9.47017 5.79392 8.05726 6.91142 6.88728L6.91326 6.88537Z" fill="black"/>
</svg>
