<svg  viewBox="0 0 24 24" fill="none" xmlns="http://www.w3.org/2000/svg">
<path fill-rule="evenodd" clip-rule="evenodd" d="M6 5.33668C6 3.93713 6.98742 3 8.00001 3C9.00887 3 9.99275 3.93026 9.99996 5.32128C9.96328 6.36741 9.56688 7.34334 8.91472 8.0894L8.25212 8.82374C8.18105 8.89128 8.11111 8.93929 8.05241 8.9684C7.99176 8.99847 7.96094 8.99993 7.95946 9C7.89985 9 7.80226 8.97653 7.69582 8.85591L6.99922 8.08384L6.99388 8.07801C6.37182 7.39948 6 6.40363 6 5.33668ZM8.00001 1C5.68827 1 4 3.03774 4 5.33668C4 6.51782 4.31993 7.69322 4.94021 8.67136C4.93276 8.6764 4.92535 8.68155 4.91798 8.68682L2.25395 10.5936C1.46692 11.1569 1 12.0653 1 13.0331L1 17C1 18.6569 2.34315 20 4 20L10 20C10 21.6569 11.3431 23 13 23H20C21.6569 23 23 21.6569 23 20V16C23 14.8179 22.3163 13.7955 21.3228 13.3066C21.3517 13.2132 21.3672 13.1139 21.3672 13.0109L21.3672 10.724C21.3672 9.72477 20.9517 8.72029 20.1545 8.01354C19.4268 7.33945 18.4061 6.92877 17.3742 6.92877H15.9457C14.9165 6.92877 13.9225 7.30643 13.1544 8.02376C12.7218 8.42773 12.3797 8.93981 12.1728 9.50461L11.1 8.7C11.067 8.67527 11.033 8.65289 10.9982 8.63282C11.6071 7.674 11.9623 6.5484 11.9995 5.36818C11.9998 5.35769 12 5.34719 12 5.33668C12 3.03774 10.3117 1 8.00001 1ZM9.74441 10.1554L9.71542 10.1875C9.70302 10.2012 9.69024 10.2146 9.6771 10.2277C9.28338 10.6181 8.68001 11 7.95946 11C7.29821 11 6.67399 10.7097 6.21452 10.1998C6.17439 10.2407 6.1302 10.2787 6.08202 10.3132L3.41798 12.2199C3.15564 12.4077 3 12.7105 3 13.0331L3 17C3 17.5523 3.44772 18 4 18H10L10 16C10 14.706 10.8192 13.6034 11.9673 13.1825C11.9577 13.1267 11.9526 13.0694 11.9526 13.0109V11.8369C11.9348 11.8253 11.9173 11.813 11.9 11.8L9.9 10.3C9.84202 10.2565 9.7901 10.2079 9.74441 10.1554ZM12 20V19L12 16C12 15.4477 12.4477 15 13 15L20 15C20.5523 15 21 15.4477 21 16V20C21 20.5523 20.5523 21 20 21H13C12.4477 21 12 20.5523 12 20ZM19.3672 10.724L19.3672 13L13.9526 13V10.724C13.9526 10.2933 14.1605 9.82071 14.5195 9.48546C14.9078 9.12284 15.4103 8.92877 15.9457 8.92877H17.3742C17.9016 8.92877 18.4403 9.14919 18.8004 9.48546C18.8077 9.49233 18.8152 9.49908 18.8227 9.50571C19.1745 9.81489 19.3672 10.2668 19.3672 10.724ZM17.5 17C17.5 16.4477 17.0523 16 16.5 16C15.9477 16 15.5 16.4477 15.5 17L15.5 19C15.5 19.5523 15.9477 20 16.5 20C17.0523 20 17.5 19.5523 17.5 19V17Z" fill="black"/>
</svg>
