<svg  viewBox="0 0 24 24" fill="none" xmlns="http://www.w3.org/2000/svg">
<path fill-rule="evenodd" clip-rule="evenodd" d="M15 3C15 1.89543 15.8954 1 17 1L21 1C22.1046 1 23 1.89543 23 3L23 21C23 22.1046 22.1046 23 21 23H17C15.8954 23 15 22.1046 15 21L15 3ZM21 3L17 3L17 21H21L21 3Z" fill="black"/>
<path fill-rule="evenodd" clip-rule="evenodd" d="M8 4C8 2.89543 8.89543 2 10 2L13 2V4L10 4L10 20H13V22H10C8.89543 22 8 21.1046 8 20L8 4Z" fill="black"/>
<path fill-rule="evenodd" clip-rule="evenodd" d="M1 5C1 3.89543 1.89543 3 3 3L6 3V5L3 5L3 19H6V21H3C1.89543 21 1 20.1046 1 19L1 5Z" fill="black"/>
</svg>
