<svg xmlns="http://www.w3.org/2000/svg" fill="none" viewBox="0 0 24 24"><path fill="#000" fill-rule="evenodd" d="M9.80084 2.09168C10.1554 2.25495 10.3826 2.60964 10.3826 3.00001V7.25001L13.587 7.25001V3.00001C13.587 2.61026 13.8134 2.25602 14.1672 2.0924C14.5209 1.92878 14.9375 1.9856 15.2345 2.23798L19.6475 5.98798C19.8711 6.17798 20 6.4566 20 6.75001V10.95C20 11.2378 19.876 11.5116 19.6597 11.7015L16.1044 14.8228L16.1044 21C16.1044 21.5523 15.6566 22 15.1044 22L8.89565 22C8.34336 22 7.89565 21.5523 7.89565 21L7.89565 14.8228L4.34026 11.7015C4.12399 11.5116 4 11.2378 4 10.95L4 6.75001C4 6.45779 4.12782 6.18019 4.34986 5.9902L8.73246 2.2402C9.02907 1.9864 9.44625 1.92841 9.80084 2.09168ZM9.3826 9.25001C8.83031 9.25001 8.3826 8.8023 8.3826 8.25001V5.17178L6 7.21047L6 10.4972L9.55539 13.6185C9.77166 13.8084 9.89565 14.0822 9.89565 14.37L9.89565 20H14.1044L14.1044 14.37C14.1044 14.0822 14.2283 13.8084 14.4446 13.6185L18 10.4972V7.21254L15.587 5.16205L15.587 8.25001C15.587 8.8023 15.1392 9.25001 14.587 9.25001L9.3826 9.25001Z" clip-rule="evenodd"/></svg>