<svg xmlns="http://www.w3.org/2000/svg" fill="none" viewBox="0 0 24 24"><path fill="#000" fill-rule="evenodd" d="M8.46428 8.46455C8.8548 8.07403 9.48797 8.07403 9.87849 8.46455L15.5353 14.1214C15.9259 14.5119 15.9259 15.1451 15.5353 15.5356C15.1448 15.9261 14.5117 15.9261 14.1211 15.5356L8.46428 9.87877C8.07376 9.48824 8.07376 8.85508 8.46428 8.46455Z" clip-rule="evenodd"/><path fill="#000" fill-rule="evenodd" d="M15.5356 8.46446C15.9261 8.85499 15.9261 9.48815 15.5356 9.87868L9.87871 15.5355C9.48819 15.9261 8.85503 15.9261 8.4645 15.5355C8.07398 15.145 8.07398 14.5118 8.4645 14.1213L14.1214 8.46446C14.5119 8.07394 15.145 8.07394 15.5356 8.46446Z" clip-rule="evenodd"/><path fill="#000" fill-rule="evenodd" d="M12 4C7.58172 4 4 7.58172 4 12C4 16.4183 7.58172 20 12 20C16.4183 20 20 16.4183 20 12C20 7.58172 16.4183 4 12 4ZM12 2C6.47715 2 2 6.47715 2 12C2 17.5228 6.47715 22 12 22C17.5228 22 22 17.5228 22 12C22 6.47715 17.5228 2 12 2Z" clip-rule="evenodd"/></svg>