<svg width="18" height="12" viewBox="0 0 18 12" fill="none" xmlns="http://www.w3.org/2000/svg">
<path d="M17.8153 2.59167C17.8153 2.59167 17.6395 1.41667 17.1031 0.9C16.4172 0.216667 15.6522 0.208333 15.3004 0.175C12.7855 0 9.0044 0 9.0044 0H8.9956C8.9956 0 5.21446 0 2.69956 0.175C2.34783 0.216667 1.5828 0.216667 0.896922 0.9C0.351734 1.40833 0.175867 2.59167 0.175867 2.59167C0.175867 2.59167 0 3.96667 0 5.35V6.64167C0 8.025 0.175867 9.4 0.175867 9.4C0.175867 9.4 0.351734 10.575 0.888129 11.0917C1.57401 11.775 2.47093 11.75 2.87543 11.825C4.31754 11.9583 8.9956 12 8.9956 12C8.9956 12 12.7767 11.9917 15.2916 11.825C15.6434 11.7833 16.4084 11.7833 17.0943 11.1C17.6307 10.5833 17.8065 9.40833 17.8065 9.40833C17.8065 9.40833 17.9824 8.025 17.9824 6.65V5.35C18 3.96667 17.8153 2.59167 17.8153 2.59167ZM6.91158 8.43333V3.19167L12.2316 5.81667L6.91158 8.43333Z" fill="#1E2A33"/>
</svg>
